<svg width="1920" height="322" viewBox="0 0 1920 322" fill="none" xmlns="http://www.w3.org/2000/svg">
<path d="M2005.7 642.401C2007.05 502.419 1957.56 362.487 1868.49 254.493C1843.15 223.769 1813.43 194.718 1775.95 181.242C1667.67 142.308 1552.04 227.418 1460.99 275.743C1351.12 334.054 1242.49 395.165 1128.09 444.372C1063.87 471.999 988.437 495.446 926.311 463.381C863.4 430.907 839.462 355.293 813.453 289.445C783.149 212.716 741.416 138.802 680.157 83.5495C618.897 28.2965 536.084 -6.58448 454.076 2.40905C389.857 9.4537 331.341 42.038 277.905 78.3488C137.503 173.761 18.2245 300.073 -69 445.709" stroke="#2EA7E0" stroke-width="0.552088" stroke-miterlimit="10"/>
<path d="M2009.21 636.349C2010.41 512.632 1966.89 391.548 1889.72 287.7C1882.56 278.055 1875.18 268.57 1867.48 259.345C1842.18 229.04 1812.72 200.359 1775.77 186.778C1668.92 147.453 1555.06 228.113 1464.14 274.704C1383.53 316.011 1303.5 359.626 1220.62 399.106C1191.87 412.858 1162.86 426.103 1133.49 438.597C1069.78 465.693 995.244 488.826 933.581 458.257C871.146 427.301 846.429 354.613 819.702 291.344C788.553 217.623 746.341 146.581 685.197 93.4586C663.908 74.9636 640.086 58.8426 614.64 46.0507C567.028 22.1011 513.729 9.78955 460.767 15.3877C397.15 22.1122 339.06 53.3769 285.965 88.0315C178.474 158.141 83.4868 245.167 5.17859 345.415C-18.1913 375.327 -40.0706 406.41 -60.3378 438.58" stroke="#2EA7E0" stroke-width="0.552088" stroke-miterlimit="10"/>
<path d="M2012.72 630.304C2013.88 510.711 1968.04 396.334 1888.68 292.117C1881.47 282.659 1874.14 273.296 1866.47 264.209C1841.2 234.33 1812 206.013 1775.58 192.321C1670.16 152.598 1558.08 228.814 1467.28 273.677C1387.52 313.085 1308.18 355.546 1225.35 394.192C1196.81 407.619 1168.02 420.582 1138.89 432.833C1075.69 459.405 1002.04 482.217 940.847 453.144C878.886 423.701 853.391 353.939 825.952 293.254C793.964 222.542 751.26 154.371 690.238 103.385C668.988 85.6356 645.281 70.1605 620.006 57.8876C572.731 34.8986 519.924 23.0508 467.464 28.384C404.449 34.7938 346.789 64.7335 294.031 97.7263C187.18 164.457 92.8171 246.702 14.2825 342.34C-9.15361 370.878 -31.1764 400.597 -51.6699 431.464" stroke="#2EA7E0" stroke-width="0.552088" stroke-miterlimit="10"/>
<path d="M2016.23 624.254C2017.34 508.784 1969.22 401.116 1887.64 296.528C1880.4 287.248 1873.11 278.011 1865.47 269.067C1840.24 239.608 1811.29 211.667 1775.4 197.865C1671.41 157.75 1561.13 229.521 1470.43 272.645C1391.53 310.159 1312.8 351.268 1230.1 389.279C1201.73 402.32 1173.19 415.062 1144.29 427.07C1081.61 453.112 1008.85 475.609 948.129 448.032C886.643 420.102 860.369 353.272 832.213 295.165C799.38 227.462 756.196 162.161 695.295 113.307C674.078 96.3024 650.493 81.4733 625.389 69.7138C578.445 47.6855 526.14 36.3014 474.172 41.3751C411.759 47.4701 354.529 76.0849 302.108 107.416C195.892 170.774 102.159 248.232 23.3976 339.266C-0.104765 366.428 -22.2656 394.783 -42.9855 424.353" stroke="#2EA7E0" stroke-width="0.552088" stroke-miterlimit="10"/>
<path d="M2019.73 618.207C2020.81 506.862 1970.42 405.891 1886.59 300.944C1879.32 291.846 1872.07 282.731 1864.46 273.931C1839.26 244.896 1810.56 217.319 1775.21 203.407C1672.66 162.9 1564.18 230.238 1473.57 271.617C1395.54 307.249 1317.45 347.126 1234.82 384.365C1206.66 397.063 1178.35 409.54 1149.68 421.305C1087.51 446.823 1015.64 469.006 955.389 442.919C894.378 416.507 867.326 352.603 838.451 297.074C804.774 232.38 761.109 169.945 700.324 123.227C679.146 106.962 655.682 92.7848 630.745 81.5388C584.137 60.4766 532.329 49.5563 480.853 54.3595C419.035 60.1343 362.236 87.4296 310.158 117.099C204.582 177.078 111.472 249.755 32.4794 336.179C8.90526 361.967 -13.3936 388.958 -34.3398 417.225" stroke="#2EA7E0" stroke-width="0.552088" stroke-miterlimit="10"/>
<path d="M2023.24 612.158C2024.28 504.937 1971.65 410.656 1885.55 305.357C1878.25 296.435 1871.03 287.452 1863.45 278.79C1838.29 250.175 1809.85 222.968 1775.02 208.951C1673.9 168.052 1567.25 230.963 1476.71 270.592C1399.57 304.357 1322.13 342.992 1239.56 379.458C1211.59 391.814 1183.51 404.026 1155.08 415.548C1093.42 440.535 1022.45 462.404 962.66 437.814C902.124 412.914 874.298 351.942 844.701 298.991C810.184 237.301 766.034 177.741 705.365 133.16C684.225 117.641 660.878 104.109 636.111 93.3767C589.84 73.2751 538.524 62.8186 487.549 67.3622C426.334 72.8224 369.966 98.7981 318.224 126.806C213.288 183.411 120.803 251.302 41.5834 333.121C17.943 357.534 -4.49941 383.162 -25.672 410.126" stroke="#2EA7E0" stroke-width="0.552088" stroke-miterlimit="10"/>
<path d="M2026.75 606.106C2027.75 503.009 1972.91 415.404 1884.51 309.762C1877.19 301.017 1870.01 292.161 1862.45 283.642C1837.33 255.453 1809.13 228.61 1774.84 214.482C1675.15 173.192 1570.34 231.68 1479.86 269.547C1403.61 301.458 1326.8 338.84 1244.3 374.527C1216.53 386.54 1188.67 398.488 1160.48 409.761C1099.34 434.224 1029.25 455.772 969.931 432.679C909.87 409.292 881.266 351.251 850.951 300.879C815.589 242.197 770.958 185.509 710.405 143.059C689.305 128.285 666.078 115.399 641.477 105.185C595.538 86.0444 544.724 76.0516 494.241 80.3302C433.627 85.4757 377.684 110.126 326.284 136.472C221.989 189.699 130.127 252.808 50.6818 330.018C26.9696 353.056 4.38916 377.321 -17.0043 402.982" stroke="#2EA7E0" stroke-width="0.552088" stroke-miterlimit="10"/>
<path d="M2030.26 600.061C2031.21 501.088 1974.19 420.152 1883.46 314.179C1876.12 305.605 1868.96 296.882 1861.44 288.506C1836.35 260.736 1808.41 234.264 1774.64 220.031C1676.39 178.343 1573.43 232.431 1483 268.526C1407.67 298.593 1331.47 334.716 1249.03 369.625C1221.46 381.302 1193.83 392.973 1165.87 404.009C1105.24 427.942 1036.05 449.175 977.197 427.578C917.61 405.709 888.228 350.589 857.2 302.8C821 247.127 775.883 193.31 715.452 152.996C694.389 138.962 671.279 126.728 646.849 117.028C601.247 98.8475 550.929 89.324 500.938 93.3377C440.926 98.1629 385.413 121.494 334.345 146.178C230.69 196.032 139.452 254.354 59.7747 326.959C35.9962 348.623 13.2723 371.524 -8.34753 395.882" stroke="#2EA7E0" stroke-width="0.552088" stroke-miterlimit="10"/>
<path d="M2033.77 594.01C2034.68 499.161 1975.51 424.877 1882.42 318.589C1875.06 310.186 1867.94 301.601 1860.43 293.364C1835.39 266.019 1807.7 239.917 1774.46 225.573C1677.65 183.493 1576.55 233.181 1486.14 267.493C1411.74 295.733 1336.15 330.581 1253.77 364.705C1226.4 376.04 1199 387.446 1171.27 398.239C1111.16 421.648 1042.86 442.561 984.468 422.465C925.356 402.109 895.195 349.92 863.45 304.71C826.405 252.046 780.802 201.099 720.492 162.917C699.469 149.628 676.48 138.04 652.215 128.853C606.95 111.639 557.129 102.574 507.629 106.328C448.219 110.838 393.137 132.845 342.405 155.872C239.391 202.347 148.777 255.889 68.8731 323.884C45.0229 344.173 22.1608 365.704 0.314697 388.771" stroke="#2EA7E0" stroke-width="0.552088" stroke-miterlimit="10"/>
<path d="M2037.27 587.959C2038.15 497.234 1976.85 429.587 1881.38 323C1874 314.769 1866.9 306.316 1859.43 298.223C1834.41 271.297 1806.98 245.564 1774.28 231.111C1678.9 188.639 1579.69 233.943 1489.29 266.461C1415.83 292.89 1340.83 326.456 1258.51 359.792C1231.34 370.795 1204.16 381.925 1176.67 392.475C1117.07 415.354 1049.66 435.952 991.739 417.352C933.101 398.51 902.162 349.252 869.699 306.62C831.81 256.965 785.727 208.889 725.533 172.843C704.548 160.3 681.675 149.358 657.582 140.684C612.647 124.431 563.324 115.835 514.326 119.318C455.517 123.509 400.86 144.196 350.471 165.561C248.098 208.663 158.107 257.418 77.977 320.809C54.0605 339.723 31.055 359.891 8.98804 381.654" stroke="#2EA7E0" stroke-width="0.552088" stroke-miterlimit="10"/>
<path d="M2040.78 581.914C2041.62 495.314 1978.22 434.291 1880.34 327.412C1872.95 319.346 1865.87 311.032 1858.42 303.076C1833.44 276.576 1806.26 251.208 1774.09 236.649C1680.14 193.785 1582.83 234.717 1492.43 265.424C1419.91 290.058 1345.51 322.328 1263.23 354.868C1236.27 365.534 1209.31 376.394 1182.06 386.701C1122.97 409.055 1056.45 429.333 998.999 412.23C940.836 394.9 909.119 348.574 875.938 308.52C837.209 261.874 790.64 216.669 730.562 182.754C709.616 170.95 686.859 160.654 662.937 152.5C618.339 137.207 569.512 129.075 521.006 132.299C462.794 136.174 408.573 155.536 358.521 175.24C256.787 214.963 167.421 258.931 87.0588 317.718C63.0761 335.258 39.927 354.062 17.6337 374.522" stroke="#2EA7E0" stroke-width="0.552088" stroke-miterlimit="10"/>
<path d="M2044.29 575.863C2045.09 493.386 1979.61 438.967 1879.29 331.823C1871.89 323.923 1864.83 315.752 1857.41 307.934C1832.47 281.853 1805.54 256.855 1773.9 242.186C1681.39 198.93 1585.99 235.511 1495.57 264.391C1424.02 287.247 1350.19 318.203 1267.98 349.954C1241.22 360.289 1214.48 370.872 1187.47 380.937C1128.89 402.761 1063.26 422.73 1006.28 407.117C948.593 391.305 916.103 347.9 882.199 310.435C842.625 266.792 795.576 224.464 735.619 192.68C714.712 181.622 692.076 171.971 668.32 164.336C624.059 150.004 575.729 142.335 527.714 145.294C470.103 148.855 416.308 166.892 366.598 184.94C265.505 221.289 176.762 260.471 96.1739 314.647C72.1194 330.813 48.8323 348.253 26.3181 367.411" stroke="#2EA7E0" stroke-width="0.552088" stroke-miterlimit="10"/>
<path d="M2047.8 569.818C2048.55 491.465 1981.03 443.627 1878.25 336.24C1870.85 328.506 1863.81 320.456 1856.4 312.799C1831.55 287.093 1804.83 262.514 1773.72 247.735C1682.64 204.081 1589.16 236.329 1498.72 263.37C1428.14 284.471 1354.88 314.102 1272.71 345.046C1246.16 355.05 1219.65 365.352 1192.86 375.174C1134.8 396.473 1070.06 416.122 1013.55 402.005C956.333 387.706 923.064 347.232 888.448 312.346C848.03 271.712 800.501 232.254 740.66 202.607C719.791 192.294 697.271 183.29 673.686 176.168C629.756 162.802 581.923 155.597 534.411 158.291C477.402 161.532 424.037 178.249 374.664 194.635C274.211 227.606 186.093 262.006 105.278 311.579C81.1571 326.369 57.7265 342.446 34.986 360.306" stroke="#2EA7E0" stroke-width="0.552088" stroke-miterlimit="10"/>
<path d="M2051.31 563.767C2052.02 489.538 1982.48 448.259 1877.21 340.651C1869.8 333.077 1862.77 325.176 1855.4 317.657C1830.58 292.371 1804.11 268.162 1773.53 253.272C1683.88 209.226 1592.34 237.162 1501.86 262.332C1432.27 281.694 1359.56 309.983 1277.45 340.127C1251.1 349.799 1224.81 359.825 1198.26 369.404C1140.71 390.174 1076.87 409.508 1020.82 396.887C964.079 384.1 930.032 346.558 894.698 314.25C853.441 276.625 805.425 240.039 745.701 212.522C724.865 202.949 702.472 194.596 679.047 187.988C635.454 175.582 588.118 168.841 541.096 171.27C484.69 174.196 431.755 189.589 382.719 204.313C282.907 233.91 195.412 263.524 114.365 308.486C90.1727 321.902 66.604 336.615 43.6371 353.172" stroke="#2EA7E0" stroke-width="0.552088" stroke-miterlimit="10"/>
<path d="M2054.81 557.715C2055.49 487.611 1983.95 452.868 1876.16 345.062C1868.75 337.647 1861.74 329.89 1854.39 322.515C1829.61 297.649 1803.39 273.809 1773.34 258.815C1685.13 214.377 1595.54 238.017 1505 261.305C1436.41 278.949 1364.26 305.88 1282.18 335.213C1256.04 344.554 1229.96 354.304 1203.65 363.64C1146.62 383.885 1083.67 402.899 1028.08 391.774C971.819 380.506 936.994 345.89 900.942 316.16C858.84 281.544 810.339 247.828 750.736 222.449C729.938 213.621 707.662 205.913 684.408 199.818C641.152 188.374 594.312 182.096 547.782 184.266C491.977 186.878 439.468 200.945 390.768 214.013C291.597 240.231 204.726 265.064 123.453 305.422C99.1939 317.463 75.4817 330.812 52.2939 346.067" stroke="#2EA7E0" stroke-width="0.552088" stroke-miterlimit="10"/>
<path d="M2058.32 551.67C2058.96 485.69 1985.46 457.456 1875.12 349.473C1867.71 342.219 1860.71 334.605 1853.39 327.373C1828.65 302.926 1802.68 279.457 1773.16 264.352C1686.38 219.522 1598.76 238.895 1508.15 260.267C1440.56 276.211 1368.95 301.773 1286.92 330.293C1260.98 339.309 1235.13 348.777 1209.05 357.87C1152.53 377.585 1090.47 396.285 1035.35 386.656C979.565 376.901 943.961 345.211 907.192 318.065C864.25 286.458 815.264 255.612 755.782 232.364C735.023 224.281 712.868 217.22 689.779 211.644C646.855 201.16 600.512 195.352 554.485 197.257C499.281 199.548 447.203 212.296 398.84 223.702C300.309 246.547 214.061 266.594 132.562 302.341C108.231 313.002 84.3812 324.988 60.9672 338.945" stroke="#2EA7E0" stroke-width="0.552088" stroke-miterlimit="10"/>
<path d="M2061.83 545.619C2062.43 483.763 1986.99 462.011 1874.08 353.884C1866.66 346.785 1859.67 339.32 1852.37 332.232C1827.67 308.21 1801.92 285.166 1772.97 269.895C1687.53 224.845 1601.97 239.806 1511.29 259.24C1444.71 273.511 1373.63 297.682 1291.65 325.38C1265.92 334.07 1240.28 343.257 1214.45 352.107C1158.44 371.297 1097.27 389.676 1042.62 381.544C987.3 373.301 950.923 344.543 913.441 319.975C869.655 291.377 820.188 263.403 760.822 242.291C740.102 234.948 718.063 228.538 695.146 223.476C652.558 213.958 606.712 208.608 561.176 210.248C506.569 212.224 454.921 223.647 406.9 233.391C309.009 252.858 223.386 268.123 141.655 299.266C117.258 308.552 93.2643 319.175 69.6239 331.834" stroke="#2EA7E0" stroke-width="0.552088" stroke-miterlimit="10"/>
<path d="M2065.34 539.574C2065.9 481.842 1988.55 466.544 1873.04 358.302C1865.62 351.356 1858.63 344.047 1851.37 337.096C1826.71 313.494 1801.22 290.82 1772.79 275.444C1688.79 229.996 1605.21 240.745 1514.45 258.219C1448.88 270.84 1378.34 293.602 1296.4 320.478C1270.88 328.848 1245.46 337.747 1219.85 346.354C1164.35 365.015 1104.08 383.079 1049.9 376.449C995.051 369.724 957.901 343.892 919.697 321.902C875.066 296.313 825.118 271.21 765.868 252.229C745.187 245.631 723.264 239.868 700.518 235.318C658.266 226.761 612.918 221.881 567.873 223.255C513.867 224.911 462.65 235.02 414.966 243.103C317.716 259.196 232.711 269.675 150.759 296.208C126.29 304.12 102.164 313.378 78.2972 324.735" stroke="#2EA7E0" stroke-width="0.552088" stroke-miterlimit="10"/>
<path d="M2068.85 533.524C2069.37 479.91 1990.13 471.044 1871.99 362.713C1864.58 355.922 1857.6 348.762 1850.36 341.955C1825.72 318.778 1800.49 296.468 1772.59 280.982C1690.02 235.142 1608.43 241.712 1517.58 257.181C1453.04 268.173 1383.03 289.512 1301.12 315.554C1275.82 323.603 1250.61 332.21 1225.24 340.58C1170.26 358.716 1110.87 376.466 1057.16 371.326C1002.79 366.114 964.858 343.213 925.935 323.802C880.465 301.216 830.032 278.983 770.898 262.139C750.255 256.287 728.453 251.169 705.873 247.133C663.953 239.537 619.101 235.12 574.553 236.23C521.15 237.571 470.363 246.355 423.016 252.776C326.406 265.49 242.025 271.182 159.846 293.117C135.311 299.654 111.042 307.548 86.9485 317.602" stroke="#2EA7E0" stroke-width="0.552088" stroke-miterlimit="10"/>
<path d="M2072.36 527.472C2072.84 477.983 1991.74 475.504 1870.95 367.118C1863.55 360.477 1856.56 353.476 1849.36 346.807C1824.76 324.05 1799.78 302.11 1772.41 286.519C1691.28 240.281 1611.68 242.705 1520.73 256.149C1457.22 265.534 1387.74 285.437 1305.87 310.64C1280.77 318.369 1255.77 326.689 1230.64 334.81C1176.17 352.416 1117.68 369.851 1064.43 366.207C1010.54 362.508 971.83 342.534 932.19 325.706C885.876 306.129 834.962 286.767 775.949 272.06C755.345 266.947 733.659 262.481 711.25 258.964C669.667 252.328 625.312 248.375 581.261 249.225C528.459 250.252 478.098 257.711 431.093 262.47C335.123 271.811 251.366 272.717 168.956 290.041C144.355 295.203 119.941 301.734 95.6217 310.485" stroke="#2EA7E0" stroke-width="0.552088" stroke-miterlimit="10"/>
<path d="M2075.86 521.427C2076.3 476.062 1993.38 479.938 1869.91 371.535C1862.51 365.042 1855.52 358.197 1848.35 351.671C1823.79 329.339 1799.06 307.763 1772.23 292.062C1692.52 245.427 1614.93 243.743 1523.87 255.116C1461.39 262.917 1392.43 281.362 1310.6 305.721C1285.71 313.13 1260.94 321.162 1236.04 329.041C1182.08 346.122 1124.48 363.237 1071.7 361.089C1018.28 358.909 978.798 341.86 938.44 327.611C891.281 311.043 839.881 294.552 780.99 281.975C760.425 277.608 738.86 273.788 716.616 270.784C675.37 265.114 631.512 261.625 587.952 262.205C535.752 262.912 485.821 269.051 439.153 272.153C343.824 278.116 260.691 274.24 178.054 286.955C153.381 290.742 128.83 295.91 104.29 303.358" stroke="#2EA7E0" stroke-width="0.552088" stroke-miterlimit="10"/>
<path d="M2079.37 515.376C2079.77 474.135 1995.04 484.332 1868.86 375.946C1861.47 369.597 1854.49 362.911 1847.34 356.529C1822.81 334.622 1798.37 313.361 1772.03 297.604C1693.86 250.417 1618.17 244.819 1527.01 254.089C1465.56 260.333 1397.13 277.299 1315.33 300.812C1290.65 307.906 1266.09 315.647 1241.43 323.282C1187.99 339.834 1131.28 356.634 1078.97 355.982C1026.02 355.314 985.76 341.197 944.69 329.526C896.691 315.967 844.806 302.347 786.03 291.907C765.504 288.285 744.055 285.111 721.983 282.621C681.067 277.912 637.712 274.886 594.644 275.206C543.04 275.598 493.54 280.412 447.208 281.853C352.52 284.443 270.01 275.78 187.147 283.891C162.408 286.303 137.713 290.102 112.946 296.257" stroke="#2EA7E0" stroke-width="0.552088" stroke-miterlimit="10"/>
<path d="M2082.88 509.331C2083.24 472.214 1996.74 488.694 1867.82 380.363C1860.44 374.163 1853.45 367.637 1846.33 361.393C1821.84 339.911 1797.66 319.015 1771.85 303.148C1695.11 255.563 1621.42 245.935 1530.16 253.062C1469.75 257.777 1401.85 273.247 1320.07 295.899C1295.6 302.678 1271.26 310.126 1246.83 317.519C1193.9 333.546 1138.08 350.026 1086.24 350.87C1033.77 351.715 992.727 340.53 950.939 331.437C902.096 320.886 849.731 310.137 791.071 301.828C770.578 298.946 749.256 296.418 727.349 294.447C686.771 290.698 643.906 288.136 601.34 288.197C550.338 288.275 501.269 291.764 455.274 291.543C361.226 290.753 279.34 277.31 196.245 280.81C171.435 281.848 146.602 284.283 121.614 289.136" stroke="#2EA7E0" stroke-width="0.552088" stroke-miterlimit="10"/>
<path d="M2086.39 503.28C2086.71 470.287 1998.45 493.006 1866.78 384.769C1859.41 378.712 1852.42 372.347 1845.33 366.246C1820.87 345.189 1796.94 324.657 1771.66 308.685C1696.36 260.709 1624.66 247.089 1533.3 252.024C1473.92 255.232 1406.55 269.183 1324.8 290.98C1300.54 297.445 1276.42 304.594 1252.23 311.749C1199.81 327.246 1144.88 343.412 1093.51 345.753C1041.51 348.115 999.694 339.851 957.183 333.342C907.495 325.8 854.65 317.922 796.112 311.749C775.657 309.613 754.451 307.73 732.715 306.278C692.468 303.49 650.106 301.398 608.032 301.188C557.632 300.945 508.992 303.115 463.335 301.232C369.927 297.069 288.665 278.839 205.344 277.735C180.467 277.398 155.49 278.469 130.276 282.019" stroke="#2EA7E0" stroke-width="0.552088" stroke-miterlimit="10"/>
<path d="M2089.9 497.229C2090.18 468.36 2000.2 497.279 1865.73 389.18C1858.37 383.262 1851.37 377.078 1844.32 371.105C1819.85 350.517 1796.22 330.305 1771.48 314.228C1697.6 265.86 1627.9 248.293 1536.44 250.998C1478.08 252.72 1411.25 265.148 1329.54 286.066C1305.5 292.222 1281.58 299.074 1257.62 305.986C1205.72 320.958 1151.68 336.803 1100.78 340.64C1049.26 344.516 1006.66 339.183 963.433 335.252C912.906 330.714 859.574 325.712 801.152 321.671C780.736 320.279 759.646 319.043 738.082 318.104C698.171 316.282 656.306 314.648 614.723 314.179C564.925 313.621 516.711 314.466 471.395 310.927C378.628 303.385 297.99 280.374 214.442 274.66C189.493 272.949 164.379 272.656 138.939 274.903" stroke="#2EA7E0" stroke-width="0.552088" stroke-miterlimit="10"/>
<path d="M2093.4 491.183C2093.64 466.439 2001.97 501.513 1864.69 393.596C1857.34 387.821 1850.34 381.804 1843.31 375.962C1818.88 355.8 1795.51 335.958 1771.29 319.765C1698.85 271.005 1631.13 249.54 1539.59 249.959C1482.25 250.224 1415.96 261.1 1334.28 281.147C1310.44 286.993 1286.74 293.547 1263.02 300.21C1211.64 314.653 1158.49 330.189 1108.05 335.516C1057 340.905 1013.63 338.503 969.683 337.151C918.311 335.621 864.499 333.49 806.193 331.58C785.815 330.929 764.847 330.343 743.448 329.918C703.874 329.057 662.501 327.892 621.414 327.152C572.218 326.28 524.434 325.8 479.456 320.599C387.329 309.684 307.315 281.887 223.535 271.568C198.52 268.482 173.262 266.826 147.601 267.775" stroke="#2EA7E0" stroke-width="0.552088" stroke-miterlimit="10"/>
<path d="M2096.91 485.132C2097.11 464.512 2003.76 505.697 1863.65 398.007C1856.31 392.37 1849.3 386.518 1842.31 380.821C1817.91 361.078 1794.79 341.606 1771.11 325.308C1700.1 276.156 1634.35 250.837 1542.73 248.932C1486.39 247.762 1420.67 257.075 1339.01 276.233C1315.39 281.776 1291.9 288.025 1268.42 294.446C1217.54 308.364 1165.29 323.58 1115.31 330.409C1064.74 337.31 1020.59 337.84 975.932 339.066C923.721 340.546 869.424 341.285 811.233 341.512C790.894 341.606 770.042 341.666 748.814 341.755C709.572 341.854 668.701 341.153 628.111 340.154C579.516 338.961 532.158 337.161 487.522 330.299C396.035 316.005 316.645 283.421 232.639 268.498C207.558 264.037 182.156 261.017 156.269 260.664" stroke="#2EA7E0" stroke-width="0.552088" stroke-miterlimit="10"/>
<path d="M2100.42 479.087C2100.58 462.591 2005.58 509.839 1862.6 402.424C1855.28 396.925 1848.26 391.239 1841.3 385.685C1816.94 366.367 1794.07 347.26 1770.92 330.852C1701.35 281.302 1637.54 252.184 1545.88 247.906C1490.53 245.322 1425.38 253.057 1343.75 271.325C1320.34 276.565 1297.07 282.511 1273.82 288.689C1223.46 302.077 1172.09 316.978 1122.58 325.303C1072.49 333.722 1027.56 337.173 982.182 340.982C929.126 345.471 874.343 349.081 816.274 351.439C795.974 352.278 775.243 352.985 754.175 353.587C715.269 354.647 674.895 354.409 634.797 353.145C586.798 351.638 539.876 348.513 495.577 339.994C404.731 322.327 325.964 284.956 241.732 265.424C216.579 259.588 191.039 255.204 164.925 253.548" stroke="#2EA7E0" stroke-width="0.552088" stroke-miterlimit="10"/>
<path d="M2103.93 473.036C2104.05 460.664 2007.43 513.924 1861.56 406.83C1854.26 401.464 1847.23 395.954 1840.29 390.538C1815.97 371.64 1793.35 352.902 1770.74 336.389C1702.6 286.447 1640.72 253.576 1549.02 246.868C1494.66 242.893 1430.1 249.038 1348.49 266.401C1325.29 271.336 1302.23 276.973 1279.22 282.914C1229.37 295.777 1178.9 310.358 1129.86 320.18C1080.24 330.112 1034.53 336.494 988.437 342.881C934.537 350.379 879.273 356.86 821.326 361.354C801.064 362.933 780.449 364.291 759.552 365.412C720.983 367.438 681.101 367.665 641.499 366.135C594.103 364.308 547.611 359.864 503.643 349.683C413.437 328.643 335.294 286.486 250.83 262.348C225.611 255.138 199.928 249.385 173.593 246.432" stroke="#2EA7E0" stroke-width="0.552088" stroke-miterlimit="10"/>
<path d="M2107.44 466.985C2107.52 458.737 2009.29 517.959 1860.52 411.241C1853.23 406.007 1846.2 400.668 1839.29 395.396C1815 376.923 1792.64 358.555 1770.55 341.926C1703.84 291.592 1643.88 255.016 1552.16 245.835C1498.77 240.491 1434.8 245.035 1353.22 261.487C1330.24 266.124 1307.4 271.452 1284.62 277.15C1235.28 289.483 1185.7 303.749 1137.13 315.067C1087.98 326.512 1041.5 335.826 994.687 344.791C939.947 355.298 884.197 364.65 826.366 371.275C806.143 373.599 785.65 375.604 764.919 377.238C726.681 380.225 687.301 380.915 648.196 379.126C601.401 376.984 555.335 371.214 511.709 359.372C422.144 334.953 344.625 288.015 259.934 259.267C234.643 250.682 208.822 243.566 182.261 239.315" stroke="#2EA7E0" stroke-width="0.552088" stroke-miterlimit="10"/>
<path d="M2110.94 460.94C2110.98 456.816 2011.19 521.945 1859.47 415.657C1852.19 410.556 1845.16 405.394 1838.27 400.26C1814.02 382.206 1791.91 364.208 1770.35 347.474C1705.09 296.749 1646.99 256.518 1555.3 244.808C1502.85 238.111 1439.52 241.142 1357.95 256.573C1335.18 260.94 1312.55 265.931 1290 271.386C1241.18 283.195 1192.49 297.14 1144.39 309.954C1095.72 322.917 1048.46 335.157 1000.93 346.701C945.341 360.217 889.111 372.44 831.396 381.202C811.211 384.271 790.834 386.921 770.274 389.069C732.373 393.016 693.489 394.17 654.876 392.116C608.683 389.66 563.047 382.571 519.758 369.067C430.833 341.274 353.938 289.549 269.022 256.198C243.664 246.238 217.7 237.758 190.918 232.204" stroke="#2EA7E0" stroke-width="0.552088" stroke-miterlimit="10"/>
<path d="M2114.45 454.889C2114.45 454.889 2013.11 525.876 1858.43 420.069C1703.76 314.261 1650.52 200.1 1362.69 251.66C1163.8 287.291 976.164 374.687 775.651 400.895C693.153 411.677 606.69 406.598 527.83 378.756C439.545 347.585 363.274 291.079 278.126 253.117C252.696 241.783 226.599 231.939 199.586 225.082" stroke="#2EA7E0" stroke-width="0.552088" stroke-miterlimit="10"/>
</svg>
