<svg xmlns="http://www.w3.org/2000/svg" version="1.1" xmlns:xlink="http://www.w3.org/1999/xlink" xmlns:svgjs="http://svgjs.com/svgjs" width="1920" height="940" preserveAspectRatio="none" viewBox="0 0 1920 940"><g mask="url(&quot;#SvgjsMask1254&quot;)" fill="none"><rect width="1920" height="940" x="0" y="0" fill="rgba(38, 38, 38, 1)"></rect><g><path d="M1443 455L1417 455L1391 455M1339 455L1313 481L1287 481L1261 481L1235 481L1209 481L1183 481M1391 481L1365 507L1339 507L1313 507L1287 507M1729 481L1703 507L1677 507M1547 481L1521 455L1495 455M1833 481L1807 507M1937 481L1911 481L1885 481L1859 481L1833 481L1807 481L1781 481L1755 481L1729 481L1703 481L1677 481L1651 481L1625 481L1599 481L1573 481L1547 481L1521 481L1495 481L1469 455L1443 455L1417 481L1391 481L1365 481L1339 455L1313 455" stroke="url(#SvgjsLinearGradient1255)" stroke-width="4.33"></path><path d="M1308.67 455 a4.33 4.33 0 1 0 8.66 0 a4.33 4.33 0 1 0 -8.66 0zM1386.67 455 a4.33 4.33 0 1 0 8.66 0 a4.33 4.33 0 1 0 -8.66 0zM1178.67 481 a4.33 4.33 0 1 0 8.66 0 a4.33 4.33 0 1 0 -8.66 0zM1282.67 507 a4.33 4.33 0 1 0 8.66 0 a4.33 4.33 0 1 0 -8.66 0zM1672.67 507 a4.33 4.33 0 1 0 8.66 0 a4.33 4.33 0 1 0 -8.66 0zM1490.67 455 a4.33 4.33 0 1 0 8.66 0 a4.33 4.33 0 1 0 -8.66 0zM1802.67 507 a4.33 4.33 0 1 0 8.66 0 a4.33 4.33 0 1 0 -8.66 0z" fill="url(#SvgjsLinearGradient1255)"></path><path d="M1599 455L1573 455L1547 455M1937 455L1911 455L1885 455L1859 455L1833 455L1807 455L1781 455L1755 455L1729 455L1703 455L1677 455L1651 455L1625 455L1599 455L1573 429L1547 429" stroke="url(#SvgjsLinearGradient1255)" stroke-width="4.33"></path><path d="M1542.67 429 a4.33 4.33 0 1 0 8.66 0 a4.33 4.33 0 1 0 -8.66 0zM1542.67 455 a4.33 4.33 0 1 0 8.66 0 a4.33 4.33 0 1 0 -8.66 0z" fill="url(#SvgjsLinearGradient1255)"></path><path d="M1937 429L1911 429L1885 429L1859 429L1833 429L1807 429L1781 429L1755 429L1729 429L1703 429L1677 429L1651 429L1625 429L1599 429" stroke="url(#SvgjsLinearGradient1255)" stroke-width="4.33"></path><path d="M1594.67 429 a4.33 4.33 0 1 0 8.66 0 a4.33 4.33 0 1 0 -8.66 0z" fill="url(#SvgjsLinearGradient1255)"></path><path d="M1807 533L1781 559L1755 559L1729 559M1651 533L1625 507M1703 533L1677 559L1651 559L1625 559M1937 533L1911 533L1885 533L1859 533L1833 533L1807 533L1781 533L1755 533L1729 533L1703 533L1677 533L1651 533L1625 533L1599 533" stroke="url(#SvgjsLinearGradient1255)" stroke-width="4.33"></path><path d="M1594.67 533 a4.33 4.33 0 1 0 8.66 0 a4.33 4.33 0 1 0 -8.66 0zM1724.67 559 a4.33 4.33 0 1 0 8.66 0 a4.33 4.33 0 1 0 -8.66 0zM1620.67 507 a4.33 4.33 0 1 0 8.66 0 a4.33 4.33 0 1 0 -8.66 0zM1620.67 559 a4.33 4.33 0 1 0 8.66 0 a4.33 4.33 0 1 0 -8.66 0z" fill="url(#SvgjsLinearGradient1255)"></path><path d="M1937 403L1911 403L1885 403L1859 403L1833 403L1807 403L1781 403L1755 403L1729 403L1703 403L1677 403L1651 403L1625 403L1599 403L1573 403L1547 403" stroke="url(#SvgjsLinearGradient1255)" stroke-width="4.33"></path><path d="M1542.67 403 a4.33 4.33 0 1 0 8.66 0 a4.33 4.33 0 1 0 -8.66 0z" fill="url(#SvgjsLinearGradient1255)"></path><path d="M1937 559L1911 559" stroke="url(#SvgjsLinearGradient1255)" stroke-width="4.33"></path><path d="M1906.67 559 a4.33 4.33 0 1 0 8.66 0 a4.33 4.33 0 1 0 -8.66 0z" fill="url(#SvgjsLinearGradient1255)"></path><path d="M1365 429L1339 403M1417 429L1391 403L1365 403L1339 377L1313 377M1443 429L1417 403M1469 429L1443 403L1417 377L1391 377L1365 377M1495 403L1469 403M1573 377L1547 351L1521 351L1495 351L1469 351M1937 377L1911 377L1885 377L1859 377L1833 377L1807 377L1781 377L1755 377L1729 377L1703 377L1677 377L1651 377L1625 377L1599 377L1573 377L1547 377L1521 377L1495 403L1469 429L1443 429L1417 429L1391 429L1365 429L1339 429" stroke="url(#SvgjsLinearGradient1255)" stroke-width="4.33"></path><path d="M1334.67 429 a4.33 4.33 0 1 0 8.66 0 a4.33 4.33 0 1 0 -8.66 0zM1334.67 403 a4.33 4.33 0 1 0 8.66 0 a4.33 4.33 0 1 0 -8.66 0zM1308.67 377 a4.33 4.33 0 1 0 8.66 0 a4.33 4.33 0 1 0 -8.66 0zM1412.67 403 a4.33 4.33 0 1 0 8.66 0 a4.33 4.33 0 1 0 -8.66 0zM1360.67 377 a4.33 4.33 0 1 0 8.66 0 a4.33 4.33 0 1 0 -8.66 0zM1464.67 403 a4.33 4.33 0 1 0 8.66 0 a4.33 4.33 0 1 0 -8.66 0zM1464.67 351 a4.33 4.33 0 1 0 8.66 0 a4.33 4.33 0 1 0 -8.66 0z" fill="url(#SvgjsLinearGradient1255)"></path><path d="M1365 611L1339 585L1313 585L1287 585L1261 585L1235 585L1209 585M1781 611L1755 585L1729 585M1651 611L1625 637L1599 637M1417 611L1391 637L1365 637L1339 637M1495 611L1469 637L1443 637L1417 663L1391 663M1755 611L1729 637L1703 637L1677 637L1651 637M1937 585L1911 611L1885 611L1859 611L1833 611L1807 611L1781 611L1755 611L1729 611L1703 611L1677 611L1651 611L1625 611L1599 611L1573 611L1547 611L1521 611L1495 611L1469 611L1443 611L1417 611L1391 611L1365 611L1339 611L1313 637L1287 637" stroke="url(#SvgjsLinearGradient1255)" stroke-width="4.33"></path><path d="M1282.67 637 a4.33 4.33 0 1 0 8.66 0 a4.33 4.33 0 1 0 -8.66 0zM1204.67 585 a4.33 4.33 0 1 0 8.66 0 a4.33 4.33 0 1 0 -8.66 0zM1724.67 585 a4.33 4.33 0 1 0 8.66 0 a4.33 4.33 0 1 0 -8.66 0zM1594.67 637 a4.33 4.33 0 1 0 8.66 0 a4.33 4.33 0 1 0 -8.66 0zM1334.67 637 a4.33 4.33 0 1 0 8.66 0 a4.33 4.33 0 1 0 -8.66 0zM1386.67 663 a4.33 4.33 0 1 0 8.66 0 a4.33 4.33 0 1 0 -8.66 0zM1646.67 637 a4.33 4.33 0 1 0 8.66 0 a4.33 4.33 0 1 0 -8.66 0z" fill="url(#SvgjsLinearGradient1255)"></path><path d="M1755 351L1729 325M1937 351L1911 351L1885 351L1859 351L1833 351L1807 351L1781 351L1755 351L1729 351" stroke="url(#SvgjsLinearGradient1255)" stroke-width="4.33"></path><path d="M1724.67 351 a4.33 4.33 0 1 0 8.66 0 a4.33 4.33 0 1 0 -8.66 0zM1724.67 325 a4.33 4.33 0 1 0 8.66 0 a4.33 4.33 0 1 0 -8.66 0z" fill="url(#SvgjsLinearGradient1255)"></path><path d="M1937 325L1911 325L1885 325L1859 325L1833 325L1807 325L1781 325" stroke="url(#SvgjsLinearGradient1255)" stroke-width="4.33"></path><path d="M1776.67 325 a4.33 4.33 0 1 0 8.66 0 a4.33 4.33 0 1 0 -8.66 0z" fill="url(#SvgjsLinearGradient1255)"></path><path d="M1547 663L1521 637M1495 663L1469 689L1443 689M1911 637L1885 637L1859 637L1833 637L1807 637L1781 637M1521 663L1495 689L1469 715L1443 715M1937 637L1911 637L1885 663L1859 663L1833 663L1807 663L1781 663L1755 663L1729 663L1703 663L1677 663L1651 663L1625 663L1599 663L1573 663L1547 663L1521 663L1495 663L1469 663" stroke="url(#SvgjsLinearGradient1255)" stroke-width="4.33"></path><path d="M1464.67 663 a4.33 4.33 0 1 0 8.66 0 a4.33 4.33 0 1 0 -8.66 0zM1516.67 637 a4.33 4.33 0 1 0 8.66 0 a4.33 4.33 0 1 0 -8.66 0zM1438.67 689 a4.33 4.33 0 1 0 8.66 0 a4.33 4.33 0 1 0 -8.66 0zM1776.67 637 a4.33 4.33 0 1 0 8.66 0 a4.33 4.33 0 1 0 -8.66 0zM1438.67 715 a4.33 4.33 0 1 0 8.66 0 a4.33 4.33 0 1 0 -8.66 0z" fill="url(#SvgjsLinearGradient1255)"></path><path d="M1573 273L1547 299L1521 299L1495 325M1599 273L1573 299L1547 325L1521 325M1677 273L1651 299L1625 299L1599 299L1573 325M1521 273L1495 273L1469 273L1443 299L1417 299M1937 299L1911 299L1885 299L1859 299L1833 299L1807 299L1781 273L1755 273L1729 273L1703 273L1677 273L1651 273L1625 273L1599 273L1573 273L1547 273L1521 273L1495 299" stroke="url(#SvgjsLinearGradient1255)" stroke-width="4.33"></path><path d="M1490.67 299 a4.33 4.33 0 1 0 8.66 0 a4.33 4.33 0 1 0 -8.66 0zM1490.67 325 a4.33 4.33 0 1 0 8.66 0 a4.33 4.33 0 1 0 -8.66 0zM1516.67 325 a4.33 4.33 0 1 0 8.66 0 a4.33 4.33 0 1 0 -8.66 0zM1568.67 325 a4.33 4.33 0 1 0 8.66 0 a4.33 4.33 0 1 0 -8.66 0zM1412.67 299 a4.33 4.33 0 1 0 8.66 0 a4.33 4.33 0 1 0 -8.66 0z" fill="url(#SvgjsLinearGradient1255)"></path><path d="M1729 689L1703 715M1209 741L1183 767L1157 767L1131 767L1105 767L1079 793L1053 793L1027 793M1755 689L1729 715L1703 741L1677 741L1651 767L1625 767L1599 767M1417 741L1391 715L1365 715L1339 715M1391 741L1365 767L1339 767L1313 767L1287 767M1495 741L1469 767L1443 767M1521 715L1495 715M1573 689L1547 715M1937 663L1911 663L1885 689L1859 689L1833 689L1807 689L1781 689L1755 689L1729 689L1703 689L1677 689L1651 689L1625 689L1599 689L1573 689L1547 689L1521 715L1495 741L1469 741L1443 741L1417 741L1391 741L1365 741L1339 741L1313 741L1287 741L1261 741L1235 741L1209 741L1183 741L1157 741L1131 741" stroke="url(#SvgjsLinearGradient1255)" stroke-width="4.33"></path><path d="M1126.67 741 a4.33 4.33 0 1 0 8.66 0 a4.33 4.33 0 1 0 -8.66 0zM1698.67 715 a4.33 4.33 0 1 0 8.66 0 a4.33 4.33 0 1 0 -8.66 0zM1022.67 793 a4.33 4.33 0 1 0 8.66 0 a4.33 4.33 0 1 0 -8.66 0zM1594.67 767 a4.33 4.33 0 1 0 8.66 0 a4.33 4.33 0 1 0 -8.66 0zM1334.67 715 a4.33 4.33 0 1 0 8.66 0 a4.33 4.33 0 1 0 -8.66 0zM1282.67 767 a4.33 4.33 0 1 0 8.66 0 a4.33 4.33 0 1 0 -8.66 0zM1438.67 767 a4.33 4.33 0 1 0 8.66 0 a4.33 4.33 0 1 0 -8.66 0zM1490.67 715 a4.33 4.33 0 1 0 8.66 0 a4.33 4.33 0 1 0 -8.66 0zM1542.67 715 a4.33 4.33 0 1 0 8.66 0 a4.33 4.33 0 1 0 -8.66 0z" fill="url(#SvgjsLinearGradient1255)"></path><path d="M1859 273L1833 247M1755 247L1729 221L1703 221L1677 221L1651 221L1625 221L1599 221L1573 221M1469 247L1443 247M1521 247L1495 221L1469 221M1547 247L1521 221M1937 273L1911 273L1885 273L1859 273L1833 273L1807 273L1781 247L1755 247L1729 247L1703 247L1677 247L1651 247L1625 247L1599 247L1573 247L1547 247L1521 247L1495 247L1469 247L1443 273" stroke="url(#SvgjsLinearGradient1255)" stroke-width="4.33"></path><path d="M1438.67 273 a4.33 4.33 0 1 0 8.66 0 a4.33 4.33 0 1 0 -8.66 0zM1828.67 247 a4.33 4.33 0 1 0 8.66 0 a4.33 4.33 0 1 0 -8.66 0zM1568.67 221 a4.33 4.33 0 1 0 8.66 0 a4.33 4.33 0 1 0 -8.66 0zM1438.67 247 a4.33 4.33 0 1 0 8.66 0 a4.33 4.33 0 1 0 -8.66 0zM1464.67 221 a4.33 4.33 0 1 0 8.66 0 a4.33 4.33 0 1 0 -8.66 0zM1516.67 221 a4.33 4.33 0 1 0 8.66 0 a4.33 4.33 0 1 0 -8.66 0z" fill="url(#SvgjsLinearGradient1255)"></path><path d="M1807 715L1781 741M1833 715L1807 741L1781 767M1885 715L1859 741M1937 689L1911 689L1885 715L1859 715L1833 715L1807 715L1781 715" stroke="url(#SvgjsLinearGradient1255)" stroke-width="4.33"></path><path d="M1776.67 715 a4.33 4.33 0 1 0 8.66 0 a4.33 4.33 0 1 0 -8.66 0zM1776.67 741 a4.33 4.33 0 1 0 8.66 0 a4.33 4.33 0 1 0 -8.66 0zM1776.67 767 a4.33 4.33 0 1 0 8.66 0 a4.33 4.33 0 1 0 -8.66 0zM1854.67 741 a4.33 4.33 0 1 0 8.66 0 a4.33 4.33 0 1 0 -8.66 0z" fill="url(#SvgjsLinearGradient1255)"></path><path d="M1859 221L1833 195L1807 195L1781 195M1911 247L1885 221M1937 247L1911 247L1885 247L1859 221L1833 221L1807 221L1781 221" stroke="url(#SvgjsLinearGradient1255)" stroke-width="4.33"></path><path d="M1776.67 221 a4.33 4.33 0 1 0 8.66 0 a4.33 4.33 0 1 0 -8.66 0zM1776.67 195 a4.33 4.33 0 1 0 8.66 0 a4.33 4.33 0 1 0 -8.66 0zM1880.67 221 a4.33 4.33 0 1 0 8.66 0 a4.33 4.33 0 1 0 -8.66 0z" fill="url(#SvgjsLinearGradient1255)"></path></g></g><defs><mask id="SvgjsMask1254"><rect width="1920" height="940" fill="#ffffff"></rect></mask><linearGradient x1="960" y1="470" x2="1920" y2="470" gradientUnits="userSpaceOnUse" id="SvgjsLinearGradient1255"><stop stop-color="rgba(255, 0, 253, 1)" offset="0"></stop><stop stop-color="rgba(221, 17, 51, 1)" offset="0.8"></stop></linearGradient></defs></svg>