<svg viewBox="680 -460 2498 1057" fill="none" xmlns="http://www.w3.org/2000/svg">
<path d="M232.299 21.3051C203.55 158.31 224.673 305.227 290.86 428.577C309.691 463.67 333.143 497.979 367.253 518.536C465.814 577.928 595.876 517.119 694.624 487.567C813.789 451.909 932.285 413.263 1054.11 387.419C1122.5 372.909 1201.06 364.693 1255.7 408.308C1311.03 452.477 1319.69 531.315 1332.3 600.982C1346.99 682.161 1373.43 762.818 1422.68 829.001C1471.93 895.184 1546.3 945.612 1628.48 952.858C1692.84 958.531 1756.6 938.041 1816.12 912.902C1972.49 846.843 2114.2 746.345 2228.27 620.618" stroke="#2EA7E0" stroke-width="0.552088" stroke-miterlimit="10"/>
<path d="M227.671 26.552C202.26 147.638 221.217 274.901 276.544 391.854C281.682 402.716 287.056 413.462 292.796 424.016C311.672 458.69 334.947 492.587 368.516 513.143C465.593 572.638 593.051 515.847 691.335 487.969C778.47 463.253 865.499 436.162 954.507 413.683C985.397 405.83 1016.43 398.523 1047.68 392.025C1115.46 377.935 1193.09 369.852 1247.57 411.909C1302.73 454.495 1312.73 530.617 1326.54 597.896C1342.65 676.29 1370.13 754.226 1419.68 818.297C1436.93 840.604 1457.13 861.079 1479.58 878.608C1521.58 911.421 1571.43 933.935 1624.46 938.82C1688.17 944.689 1751.26 925.41 1810.11 901.828C1929.25 854.134 2039.45 787.402 2135.88 704.437C2164.65 679.682 2192.2 653.488 2218.38 625.912" stroke="#2EA7E0" stroke-width="0.552088" stroke-miterlimit="10"/>
<path d="M223.048 31.7933C198.482 148.842 221.028 269.982 278.431 387.727C283.644 398.412 288.999 409.031 294.739 419.444C313.665 453.694 336.758 487.184 369.791 507.745C465.388 567.35 590.226 514.567 688.052 488.361C773.987 465.341 860.103 439.244 948.904 417.574C979.524 409.999 1010.29 402.927 1041.26 396.62C1108.44 382.944 1185.13 375.001 1239.44 415.498C1294.43 456.509 1305.77 529.914 1320.79 594.799C1338.3 670.406 1366.83 745.623 1416.68 807.575C1434.04 829.143 1454.26 848.963 1476.64 865.949C1518.49 897.754 1567.95 919.717 1620.44 924.764C1683.49 930.823 1745.9 912.759 1804.1 890.741C1921.95 846.235 2030.6 784.069 2126.35 705.669C2154.92 682.276 2182.34 657.447 2208.48 631.192" stroke="#2EA7E0" stroke-width="0.552088" stroke-miterlimit="10"/>
<path d="M218.42 37.0386C194.706 150.052 220.806 265.062 280.314 383.604C285.593 394.123 290.93 404.608 296.671 414.875C315.642 448.706 338.564 481.779 371.051 502.343C465.163 562.052 587.371 513.276 684.759 488.755C769.478 467.424 854.739 442.536 943.286 421.462C973.657 414.231 1004.14 407.327 1034.83 401.213C1101.4 387.956 1177.16 380.147 1231.3 419.085C1286.12 458.519 1298.8 529.201 1315.02 591.698C1333.96 664.521 1363.51 737.017 1413.66 796.855C1431.14 817.686 1451.36 836.848 1473.67 853.297C1515.39 884.095 1564.46 905.505 1616.41 910.71C1678.81 916.96 1740.53 900.111 1798.08 879.656C1914.65 838.334 2021.74 780.739 2116.81 706.898C2145.18 684.866 2172.46 661.401 2198.57 636.464" stroke="#2EA7E0" stroke-width="0.552088" stroke-miterlimit="10"/>
<path d="M213.798 42.2808C190.929 151.258 220.562 260.144 282.208 379.479C287.556 389.826 292.878 400.184 298.62 410.305C317.642 443.713 340.381 476.377 372.326 496.947C464.954 556.758 584.524 511.976 681.483 489.149C764.978 469.493 849.364 445.685 937.689 425.356C967.799 418.422 998 411.731 1028.42 405.811C1094.38 392.967 1169.2 385.292 1223.18 422.677C1277.83 460.529 1291.84 528.494 1309.28 588.604C1329.63 658.641 1360.22 728.421 1410.68 786.142C1428.26 806.24 1448.49 824.739 1470.74 840.653C1512.32 870.437 1560.98 891.295 1612.4 896.669C1674.15 903.116 1735.2 887.476 1792.08 868.584C1907.36 830.45 2012.9 777.421 2107.3 708.146C2135.47 687.476 2162.62 665.376 2188.7 641.76" stroke="#2EA7E0" stroke-width="0.552088" stroke-miterlimit="10"/>
<path d="M209.174 47.5265C187.152 152.467 220.293 255.23 284.095 375.357C289.504 385.535 294.821 395.757 300.557 405.737C319.623 438.726 342.191 470.978 373.596 491.547C464.739 551.461 581.655 510.664 678.201 489.539C760.464 471.54 843.974 448.824 932.082 429.239C961.93 422.602 991.857 416.127 1022 410.398C1087.35 397.974 1161.24 390.433 1215.05 426.259C1269.53 462.535 1284.88 527.777 1303.53 585.5C1325.29 652.757 1356.92 719.811 1407.68 775.413C1425.37 794.773 1445.61 812.616 1467.8 827.993C1509.23 856.769 1557.51 877.076 1608.38 882.606C1669.48 889.244 1729.85 874.814 1786.07 857.485C1900.06 822.533 2004.06 774.076 2097.77 709.361C2125.73 690.052 2152.76 669.317 2178.81 647.023" stroke="#2EA7E0" stroke-width="0.552088" stroke-miterlimit="10"/>
<path d="M204.545 52.7729C183.369 153.677 219.983 250.328 285.976 371.24C291.441 381.25 296.75 391.341 302.493 401.175C321.604 433.74 343.994 465.586 374.858 486.158C464.523 546.177 578.764 509.355 674.91 489.946C755.928 473.59 838.58 451.981 926.471 433.147C956.057 426.806 985.71 420.547 1015.57 415.015C1080.32 403.004 1153.26 395.603 1206.91 429.87C1261.23 464.569 1277.91 527.089 1297.77 582.425C1320.95 646.896 1353.61 711.23 1404.67 764.719C1422.47 783.341 1442.72 800.527 1464.85 815.362C1506.15 843.131 1554.02 862.885 1604.36 868.579C1664.81 875.407 1724.5 862.193 1780.06 846.427C1892.76 814.663 1995.21 770.772 2088.24 710.622C2116.01 692.675 2142.9 673.304 2168.91 652.331" stroke="#2EA7E0" stroke-width="0.552088" stroke-miterlimit="10"/>
<path d="M199.923 58.0141C179.598 154.882 219.658 245.42 287.87 367.114C293.391 376.961 298.698 386.916 304.437 396.603C323.598 428.75 345.811 460.183 376.135 480.755C464.314 540.882 575.879 508.013 671.63 490.332C751.393 475.606 833.187 455.109 920.871 437.027C950.196 430.978 979.574 424.945 1009.15 419.599C1073.3 408.008 1145.31 400.741 1198.79 433.449C1252.94 466.566 1270.95 526.375 1292.02 579.316C1316.61 641.002 1350.31 702.615 1401.67 753.986C1419.58 771.874 1439.84 788.398 1461.9 802.696C1503.06 829.458 1550.53 848.654 1600.34 854.511C1660.14 861.536 1719.14 849.532 1774.06 835.33C1885.47 806.748 1986.37 767.429 2078.72 711.84C2106.29 695.254 2133.06 677.248 2159.03 657.597" stroke="#2EA7E0" stroke-width="0.552088" stroke-miterlimit="10"/>
<path d="M195.294 63.2606C175.815 156.092 219.289 240.528 289.751 362.993C295.322 372.674 300.629 382.489 306.373 392.036C325.579 423.759 347.616 454.779 377.398 475.356C464.093 535.586 572.961 506.665 668.341 490.729C746.837 477.613 827.791 458.248 915.257 440.922C944.314 435.169 973.423 429.353 1002.73 424.2C1066.26 413.022 1137.34 405.894 1190.66 437.038C1244.64 468.58 1263.99 525.666 1286.26 576.219C1312.27 635.12 1347.01 694.013 1398.67 743.27C1416.69 760.42 1436.96 776.287 1458.95 790.049C1499.97 815.797 1547.05 834.447 1596.33 840.462C1655.47 847.677 1713.79 836.888 1768.05 824.245C1878.18 798.851 1977.52 764.098 2069.2 713.073C2096.56 697.85 2123.2 681.214 2149.14 662.874" stroke="#2EA7E0" stroke-width="0.552088" stroke-miterlimit="10"/>
<path d="M190.671 68.5074C172.037 157.302 218.901 235.648 291.639 358.871C297.259 368.388 302.571 378.069 308.31 387.469C327.566 418.773 349.427 449.382 378.662 469.961C463.878 530.296 570.041 505.305 665.053 491.125C742.274 479.6 822.392 461.375 909.649 444.813C938.446 439.345 967.279 433.755 996.302 428.794C1059.23 418.035 1129.37 411.042 1182.53 440.627C1236.34 470.592 1257.03 524.956 1280.51 573.122C1307.94 629.237 1343.71 685.409 1395.67 732.548C1413.8 748.96 1434.08 764.171 1456.01 777.396C1496.89 802.137 1543.57 820.229 1592.3 826.411C1650.79 833.823 1708.44 824.244 1762.04 813.163C1870.88 790.952 1968.67 760.771 2059.67 714.306C2086.83 700.443 2113.34 685.172 2139.24 668.154" stroke="#2EA7E0" stroke-width="0.552088" stroke-miterlimit="10"/>
<path d="M186.044 73.747C168.256 158.505 218.48 230.767 293.526 354.749C299.19 364.106 304.507 373.647 310.252 382.907C329.553 413.787 351.236 443.988 379.936 464.568C463.668 525.006 567.112 503.931 661.775 491.528C737.713 481.577 816.997 464.508 904.05 448.716C932.581 443.538 961.145 438.17 989.887 433.401C1052.21 423.056 1121.41 416.201 1174.4 444.229C1228.04 472.617 1250.07 524.258 1274.76 570.036C1303.6 623.365 1340.41 676.817 1392.68 721.844C1410.91 737.523 1431.21 752.078 1453.07 764.76C1493.81 788.493 1540.1 806.033 1588.3 812.374C1646.14 819.977 1703.1 811.612 1756.04 802.095C1863.59 783.072 1959.84 757.462 2050.16 715.558C2077.11 703.056 2103.5 689.151 2129.37 673.454" stroke="#2EA7E0" stroke-width="0.552088" stroke-miterlimit="10"/>
<path d="M181.421 78.9943C164.479 159.716 218.032 225.909 295.414 350.628C301.121 359.825 306.45 369.222 312.189 378.34C331.54 408.802 353.047 438.591 381.2 459.174C463.447 519.715 564.166 502.532 658.487 491.924C733.129 483.527 811.593 467.635 898.437 452.605C926.703 447.713 954.996 442.572 983.458 437.995C1045.17 428.069 1113.44 421.343 1166.26 447.816C1219.73 474.622 1243.09 523.551 1269 566.932C1299.26 617.481 1337.1 668.206 1389.67 711.12C1408.01 726.06 1428.31 739.957 1450.11 752.099C1490.71 774.824 1536.6 791.812 1584.26 798.316C1641.46 806.11 1697.74 798.961 1750.02 791.001C1856.28 775.16 1950.98 754.122 2040.62 716.783C2067.37 705.643 2093.63 693.102 2119.46 678.726" stroke="#2EA7E0" stroke-width="0.552088" stroke-miterlimit="10"/>
<path d="M176.799 84.2353C160.708 160.921 217.554 221.061 297.302 346.501C303.047 355.536 308.373 364.809 314.133 373.768C333.471 403.844 354.859 433.182 382.471 453.769C463.233 514.419 561.218 501.109 655.201 492.308C728.546 485.443 806.193 470.738 892.831 456.49C920.831 451.882 948.847 446.973 977.039 442.589C1038.15 433.077 1105.48 426.49 1158.13 451.405C1211.44 476.635 1236.13 522.842 1263.24 563.834C1294.92 611.598 1333.8 659.602 1386.67 700.398C1405.12 714.599 1425.43 727.841 1447.17 739.445C1487.63 761.158 1533.12 777.593 1580.24 784.259C1636.78 792.249 1692.39 786.31 1744.01 779.914C1848.98 767.26 1942.13 750.789 2031.09 718.009C2057.64 708.23 2083.77 697.055 2109.57 683.996" stroke="#2EA7E0" stroke-width="0.552088" stroke-miterlimit="10"/>
<path d="M172.17 89.4814C156.925 162.131 217.037 216.235 299.189 342.38C304.971 351.259 310.31 360.382 316.07 369.201C335.452 398.858 356.669 427.784 383.74 448.376C463.022 509.13 558.258 499.668 651.917 492.711C723.952 487.357 800.795 473.86 887.222 460.386C914.952 456.062 942.702 451.382 970.614 447.19C1031.12 438.096 1097.51 431.644 1150 455C1203.14 478.653 1229.17 522.138 1257.49 560.742C1290.58 605.72 1330.49 651.004 1383.67 689.687C1402.23 703.157 1422.55 715.734 1444.23 726.804C1484.54 747.509 1529.64 763.392 1576.23 770.222C1632.12 778.402 1687.04 773.678 1738.01 768.845C1841.69 759.374 1933.29 747.474 2021.57 719.26C2047.92 710.844 2073.92 701.033 2099.68 689.296" stroke="#2EA7E0" stroke-width="0.552088" stroke-miterlimit="10"/>
<path d="M167.547 94.7287C153.148 163.342 216.495 211.426 301.077 338.259C306.896 346.983 312.252 355.963 318.013 364.635C337.439 393.873 358.48 422.387 385.01 442.978C462.808 503.835 555.291 498.203 648.636 493.103C719.36 489.238 795.39 476.964 881.62 464.278C909.084 460.239 936.565 455.786 964.196 451.786C1024.09 443.106 1089.55 436.792 1141.88 458.59C1194.84 480.662 1222.21 521.429 1251.74 557.646C1286.24 599.839 1327.2 642.403 1380.68 678.967C1399.34 691.698 1419.68 703.62 1441.29 714.152C1481.46 733.849 1526.17 749.18 1572.22 756.168C1627.45 764.539 1681.7 761.031 1732.02 757.757C1834.4 751.474 1924.46 744.14 2012.06 720.485C2038.21 713.43 2064.08 704.984 2089.8 694.568" stroke="#2EA7E0" stroke-width="0.552088" stroke-miterlimit="10"/>
<path d="M162.92 99.9691C149.366 164.545 215.916 206.632 302.959 334.137C308.809 342.703 314.182 351.54 319.944 360.067C339.415 388.886 360.285 416.988 386.274 437.584C462.588 498.544 552.307 496.712 645.347 493.505C714.753 491.111 789.984 480.073 876.011 468.174C903.212 464.414 930.42 460.194 957.771 456.385C1017.06 448.125 1081.58 441.946 1133.74 462.184C1186.54 482.68 1215.25 520.731 1245.98 554.554C1281.9 593.961 1323.9 633.805 1377.67 668.255C1396.45 680.248 1416.79 691.512 1438.34 701.503C1478.38 720.193 1522.68 734.967 1568.19 742.116C1622.77 750.684 1676.34 748.385 1726 746.674C1827.1 743.574 1915.6 740.811 2002.52 721.722C2028.47 716.034 2054.21 708.953 2079.9 699.853" stroke="#2EA7E0" stroke-width="0.552088" stroke-miterlimit="10"/>
<path d="M158.296 105.216C145.594 165.756 215.309 201.865 304.852 330.017C310.732 338.431 316.129 347.121 321.892 355.501C341.414 383.897 362.145 411.538 387.549 432.186C462.504 493.1 549.334 495.189 642.07 493.897C710.158 492.946 784.586 483.166 870.409 472.065C897.34 468.584 924.282 464.598 951.353 460.981C1010.04 453.134 1073.62 447.094 1125.62 465.774C1178.25 484.694 1208.29 520.022 1240.23 551.456C1277.57 588.078 1320.59 625.201 1374.67 657.533C1393.55 668.793 1413.91 679.396 1435.39 688.85C1475.29 706.526 1519.2 720.754 1564.17 728.066C1618.11 736.825 1671 735.742 1719.99 735.593C1819.8 735.681 1906.76 737.485 1993.01 722.956C2018.75 718.629 2044.36 712.913 2070.02 705.13" stroke="#2EA7E0" stroke-width="0.552088" stroke-miterlimit="10"/>
<path d="M153.669 110.456C141.813 166.96 214.67 197.115 306.735 325.888C312.646 334.151 318.068 342.689 323.825 350.927C343.391 378.904 363.945 406.132 388.809 426.779C462.279 487.802 546.346 493.634 638.774 494.28C705.536 494.747 779.169 486.244 864.793 475.942C891.455 472.734 918.13 468.987 944.926 465.563C1003 458.135 1065.65 452.229 1117.48 469.346C1169.95 486.684 1201.32 519.293 1234.47 548.341C1273.23 582.177 1317.29 616.579 1371.67 646.799C1390.66 657.32 1411.03 667.267 1432.44 676.184C1472.2 692.853 1515.71 706.522 1560.16 713.999C1613.44 722.954 1665.64 723.075 1713.99 724.49C1812.51 727.76 1897.92 734.136 1983.48 724.171C2009.02 721.207 2034.5 716.854 2060.12 710.393" stroke="#2EA7E0" stroke-width="0.552088" stroke-miterlimit="10"/>
<path d="M149.045 115.702C138.034 168.175 213.997 192.392 308.628 321.768C314.563 329.878 320.009 338.268 325.773 346.361C345.389 373.915 365.766 400.736 390.089 421.387C462.079 482.514 543.373 492.055 635.5 494.684C700.937 496.547 773.776 489.338 859.193 479.845C885.587 476.91 911.993 473.408 938.51 470.17C995.98 463.156 1057.69 457.383 1109.36 472.947C1161.65 488.709 1194.36 518.596 1228.73 545.256C1268.89 576.312 1313.99 607.994 1368.68 636.096C1387.78 645.878 1408.15 655.168 1429.51 663.549C1469.13 679.211 1512.24 692.328 1556.15 699.967C1608.78 709.113 1660.3 710.449 1707.99 713.427C1805.22 719.885 1889.08 730.834 1973.96 725.423C1999.3 723.819 2024.65 720.832 2050.24 715.693" stroke="#2EA7E0" stroke-width="0.552088" stroke-miterlimit="10"/>
<path d="M144.417 120.949C134.251 169.385 213.29 187.702 310.508 317.651C316.467 325.614 321.945 333.847 327.703 341.799C347.364 368.933 367.564 395.342 391.347 415.992C461.852 477.228 540.379 490.444 632.206 495.079C696.321 498.316 768.36 492.411 853.58 483.735C879.705 481.072 905.844 477.81 932.079 474.769C988.942 468.174 1049.72 462.536 1101.22 476.541C1153.35 490.726 1187.39 517.896 1222.97 542.163C1264.55 570.434 1310.68 599.394 1365.67 625.378C1384.87 634.427 1405.26 643.055 1426.55 650.894C1466.03 665.548 1508.75 678.113 1552.11 685.909C1604.09 695.246 1654.94 697.797 1701.97 702.339C1797.91 711.979 1880.22 727.499 1964.43 726.654C1989.56 726.411 2014.78 724.789 2040.34 720.972" stroke="#2EA7E0" stroke-width="0.552088" stroke-miterlimit="10"/>
<path d="M139.795 126.19C130.48 170.591 212.551 183.034 312.397 313.524C318.38 321.341 323.887 329.422 329.647 337.227C349.359 363.938 369.381 389.94 392.617 410.593C461.641 471.939 537.399 488.79 628.924 495.476C691.716 500.065 762.954 495.487 847.976 487.632C873.834 485.242 899.7 482.218 925.66 479.37C981.916 473.189 1041.76 467.691 1093.09 480.135C1145.05 492.738 1180.43 517.192 1217.21 539.071C1260.21 564.557 1307.38 590.797 1362.67 614.667C1381.98 622.978 1402.38 630.949 1423.6 638.252C1462.94 651.892 1505.27 663.905 1548.09 671.87C1599.42 681.403 1649.59 685.164 1695.96 691.264C1790.61 704.092 1871.37 724.178 1954.9 727.898C1979.84 729.018 2004.92 728.76 2030.45 726.264" stroke="#2EA7E0" stroke-width="0.552088" stroke-miterlimit="10"/>
<path d="M135.171 131.437C126.703 171.801 211.782 178.399 314.29 309.405C320.29 317.078 325.828 325.002 331.589 332.661C351.352 358.949 371.149 384.585 393.892 405.196C461.309 466.783 534.432 487.1 625.647 495.869C687.122 501.782 757.551 498.551 842.375 491.518C867.965 489.396 893.563 486.616 919.242 483.96C974.892 478.199 1033.79 472.834 1084.96 483.72C1136.75 494.747 1173.47 516.478 1211.46 535.969C1255.87 558.668 1304.08 582.188 1359.67 603.94C1379.09 611.513 1399.5 618.828 1420.66 625.593C1459.86 638.227 1501.78 649.687 1544.08 657.81C1594.76 667.535 1644.25 672.511 1689.96 680.174C1783.32 696.184 1862.54 720.842 1945.38 729.122C1970.11 731.602 1995.08 732.715 2020.57 731.531" stroke="#2EA7E0" stroke-width="0.552088" stroke-miterlimit="10"/>
<path d="M130.544 136.677C122.921 173.005 210.974 173.79 316.173 305.276C322.197 312.802 327.767 320.57 333.527 328.088C353.341 353.952 372.96 379.181 395.156 399.796C461.088 461.492 531.461 485.369 622.355 496.258C682.518 503.469 752.134 501.601 836.762 495.407C862.085 493.553 887.414 491.018 912.818 488.554C967.861 483.206 1025.83 477.981 1076.83 487.309C1128.45 496.759 1166.51 515.768 1205.7 532.871C1251.53 552.785 1300.78 573.584 1356.67 593.224C1376.21 600.064 1396.62 606.721 1417.72 612.945C1456.77 624.57 1498.3 635.48 1540.06 643.759C1590.09 653.674 1638.89 659.865 1683.95 669.092C1776.02 688.29 1853.69 717.514 1935.86 730.36C1960.39 734.203 1985.22 736.68 2010.67 736.816" stroke="#2EA7E0" stroke-width="0.552088" stroke-miterlimit="10"/>
<path d="M125.921 141.924C119.144 174.215 210.141 169.226 318.059 301.16C324.1 308.543 329.707 316.155 335.464 323.526C355.328 348.967 374.764 373.787 396.426 394.402C460.873 456.201 528.51 483.602 619.071 496.661C677.932 505.148 746.725 504.664 831.159 499.304C856.214 497.717 881.274 495.432 906.399 493.155C960.835 488.226 1017.86 483.134 1068.7 490.904C1120.16 498.773 1159.54 515.069 1199.95 529.78C1247.2 546.909 1297.48 564.987 1353.67 582.507C1373.31 588.61 1393.74 594.61 1414.77 600.292C1453.69 610.91 1494.82 621.261 1536.04 629.709C1585.42 639.82 1633.54 647.221 1677.94 658.011C1768.73 680.392 1844.84 714.188 1926.33 731.593C1950.66 736.797 1975.36 740.639 2000.78 742.098" stroke="#2EA7E0" stroke-width="0.552088" stroke-miterlimit="10"/>
<path d="M121.293 147.17C115.361 175.424 209.262 164.693 319.947 297.039C326.004 304.284 331.663 311.721 337.407 318.96C357.368 343.941 376.58 368.391 397.696 389.003C460.664 450.907 525.568 481.787 615.79 497.052C673.352 506.795 741.322 507.7 825.552 503.195C850.335 501.868 875.13 499.835 899.975 497.749C953.805 493.234 1009.9 488.282 1060.57 494.493C1111.86 500.785 1152.58 514.359 1194.2 526.682C1242.86 541.03 1294.18 556.383 1350.68 571.791C1370.42 577.155 1390.86 582.499 1411.83 587.644C1450.61 597.249 1491.34 607.053 1532.03 615.659C1580.75 625.961 1628.19 634.578 1671.94 646.926C1761.43 672.494 1836 710.856 1916.81 732.826C1940.94 739.392 1965.51 744.599 1990.9 747.379" stroke="#2EA7E0" stroke-width="0.552088" stroke-miterlimit="10"/>
<path d="M116.669 152.412C111.589 176.63 208.358 160.195 321.834 292.913C327.909 300.015 333.6 307.289 339.343 314.392C359.349 338.95 378.385 362.987 398.958 383.609C460.442 445.616 522.644 479.931 612.5 497.454C668.78 508.427 735.911 510.746 819.942 507.091C844.459 506.027 868.985 504.243 893.548 502.355C946.77 498.259 1001.93 493.435 1052.44 498.093C1103.55 502.809 1145.61 513.66 1188.44 523.596C1238.52 535.159 1290.87 547.791 1347.67 561.086C1367.53 565.717 1387.98 570.398 1408.88 575.007C1447.52 583.604 1487.86 592.852 1528 601.626C1576.08 612.119 1622.84 621.951 1665.93 635.862C1754.13 664.613 1827.15 707.546 1907.29 734.077C1931.21 742.004 1955.66 748.576 1981 752.672" stroke="#2EA7E0" stroke-width="0.552088" stroke-miterlimit="10"/>
<path d="M112.041 157.658C107.807 177.84 207.419 155.74 323.717 288.791C329.807 295.756 335.537 302.868 341.28 309.825C361.337 333.965 380.195 357.589 400.228 378.211C460.228 440.321 519.748 478.03 609.218 497.846C664.233 510.03 730.51 513.772 814.334 510.982C838.586 510.174 862.842 508.646 887.13 506.951C939.746 503.269 993.969 498.585 1044.31 501.678C1095.26 504.817 1138.66 512.946 1182.69 520.493C1234.18 529.27 1287.57 539.182 1344.68 550.359C1364.64 554.252 1385.1 558.277 1405.93 562.349C1444.44 569.939 1484.38 578.633 1523.98 587.565C1571.4 598.254 1617.49 609.296 1659.92 624.77C1746.83 656.708 1818.3 704.214 1897.76 735.304C1921.48 744.592 1945.8 752.53 1971.11 757.948" stroke="#2EA7E0" stroke-width="0.552088" stroke-miterlimit="10"/>
<path d="M107.419 162.899C104.031 179.044 206.444 151.322 325.611 284.665C331.712 291.491 337.485 298.443 343.224 305.253C363.326 328.968 382.007 352.185 401.499 372.812C460.013 435.03 516.877 476.082 605.932 498.236C659.695 511.611 725.099 516.789 808.728 514.866C832.71 514.314 856.699 513.043 880.708 511.539C932.716 508.276 986.001 503.726 1036.18 505.261C1086.96 506.818 1131.69 512.236 1176.94 517.39C1229.84 523.382 1284.27 530.573 1341.68 539.637C1361.75 542.791 1382.22 546.159 1402.99 549.696C1441.35 556.278 1480.9 564.42 1519.97 573.515C1566.75 584.396 1612.15 596.652 1653.92 613.684C1739.54 648.806 1809.46 700.883 1888.24 736.538C1911.76 747.188 1935.95 756.49 1961.23 763.23" stroke="#2EA7E0" stroke-width="0.552088" stroke-miterlimit="10"/>
<path d="M102.791 168.144C100.248 180.253 205.436 146.954 327.492 280.548C333.609 287.242 339.416 294.021 345.16 300.691C365.312 323.988 383.816 346.793 402.762 367.417C459.797 429.74 514.032 474.095 602.643 498.637C655.169 513.184 719.689 519.807 803.119 518.767C826.835 518.472 850.547 517.461 874.282 516.144C925.684 513.295 978.034 508.884 1028.04 508.859C1078.65 508.841 1124.72 511.536 1171.17 514.302C1225.5 517.509 1280.96 521.979 1338.67 528.924C1358.85 531.345 1379.33 534.052 1400.04 537.046C1438.26 542.615 1477.41 550.206 1515.95 559.463C1562.07 570.54 1606.79 584.006 1647.91 602.603C1732.24 640.906 1800.61 697.555 1878.71 737.771C1902.03 749.782 1926.09 760.455 1951.34 768.51" stroke="#2EA7E0" stroke-width="0.552088" stroke-miterlimit="10"/>
<path d="M98.1673 173.392C96.4757 181.465 204.396 142.631 329.379 276.427C335.505 282.988 341.357 289.601 347.097 296.124C367.294 318.997 385.622 341.389 404.031 362.024C459.581 424.45 511.222 472.065 599.359 499.034C650.67 514.735 714.291 522.811 797.51 522.658C820.957 522.613 844.403 521.864 867.857 520.739C918.652 518.309 970.064 514.032 1019.91 512.448C1070.35 510.853 1117.76 510.827 1165.42 511.205C1221.16 511.625 1277.66 513.376 1335.67 518.208C1355.95 519.89 1376.44 521.94 1397.09 524.398C1435.17 528.96 1473.93 535.998 1511.92 545.413C1557.39 556.681 1601.44 571.362 1641.9 591.522C1724.94 633.013 1791.76 694.228 1869.18 739.009C1892.3 752.382 1916.23 764.419 1941.44 773.791" stroke="#2EA7E0" stroke-width="0.552088" stroke-miterlimit="10"/>
<path d="M93.5455 178.633C92.6997 182.67 203.32 138.352 331.273 272.301C337.414 278.73 343.301 285.17 349.046 291.554C369.287 314.007 387.444 335.988 405.308 356.621C459.374 419.15 508.463 469.982 596.083 499.427C646.203 516.269 708.9 525.703 791.914 526.551C815.096 526.729 838.271 526.269 861.444 525.336C911.633 523.319 962.11 519.182 1011.79 516.04C1062.06 512.863 1110.8 510.118 1159.68 508.11C1216.83 505.745 1274.37 504.774 1332.68 507.489C1353.07 508.433 1373.58 509.826 1394.16 511.748C1432.1 515.301 1470.45 521.787 1507.92 531.365C1552.73 542.824 1596.1 558.715 1635.9 580.438C1717.66 625.112 1782.93 690.899 1859.67 740.239C1882.58 754.973 1906.38 768.376 1931.56 779.068" stroke="#2EA7E0" stroke-width="0.552088" stroke-miterlimit="10"/>
<path d="M88.9164 183.879C88.9164 183.879 202.206 134.121 333.154 268.179C464.103 402.237 493.951 524.616 786.3 530.44C988.322 534.462 1189.44 485.517 1391.2 499.097C1474.21 504.685 1558.01 526.604 1629.88 569.355C1710.35 617.217 1774.08 687.57 1850.14 741.476C1872.85 757.573 1896.52 772.338 1921.66 784.354" stroke="#2EA7E0" stroke-width="0.552088" stroke-miterlimit="10"/>
<path d="M1520.3 517.079C1550.87 324.673 1892.03 339.119 2093.86 356.314C2255.32 370.071 2366.39 506.007 2341.94 659.939C2322.38 783.081 2201.8 873.982 2072.63 862.978C1969.3 854.17 1898.21 767.175 1913.87 668.661C1926.39 589.852 2003.56 531.673 2086.22 538.717C2152.36 544.349 2167.29 681.999 2100.45 688.176" stroke="#2E3192" stroke-width="0.695969" stroke-miterlimit="10"/>
<path d="M1526.75 519.14C1556.65 332.336 1887.41 341.569 2086.41 355.522C2244.27 367.163 2354.48 495.931 2335.07 643.27C2319.59 761.15 2208.04 845.151 2086.49 841.674C1994.33 839.042 1914.3 768.176 1917.36 676.675C1918.21 651.357 1926.88 627.976 1941.44 606.52C1969.14 565.691 2031.87 538.76 2083.15 543.131C2146.14 548.498 2161.87 679.205 2096.08 687.401" stroke="#2C3B97" stroke-width="0.695969" stroke-miterlimit="10"/>
<path d="M1533.2 521.19C1562.44 339.996 1882.87 343.307 2078.97 354.713C2233.29 363.688 2342.57 485.836 2328.21 626.581C2316.83 739.202 2213.89 815.618 2100.35 820.357C2018.72 823.761 1930.45 768.723 1920.87 684.676C1918.21 661.366 1923.33 639.52 1934.85 617.393C1957.58 573.717 2031.38 543.374 2080.09 547.531C2139.93 552.63 2156.46 676.408 2091.72 686.607" stroke="#2A459C" stroke-width="0.695969" stroke-miterlimit="10"/>
<path d="M1539.65 523.251C1568.23 347.667 1878.28 345.44 2071.52 353.915C2222.26 360.528 2330.67 475.748 2321.35 609.909C2314.06 717.272 2219.04 785.406 2114.22 799.048C2042.13 808.429 1946.4 768.777 1924.38 692.685C1918.17 671.225 1919.7 650.87 1928.26 628.267C1946.06 581.288 2030.88 548.001 2077.04 551.933C2133.72 556.766 2151.05 673.602 2087.36 685.82" stroke="#274EA2" stroke-width="0.695969" stroke-miterlimit="10"/>
<path d="M1546.1 525.308C1574.01 355.326 1873.67 347.581 2064.07 353.119C2211.23 357.401 2318.76 465.666 2314.49 593.233C2311.3 695.331 2224.88 775.15 2128.1 777.743C2068.49 806.172 1961.83 768.437 1927.89 700.699C1917.99 680.943 1915.92 662.043 1921.68 639.153C1934.41 588.487 2030.39 552.629 2073.98 556.346C2127.52 560.908 2145.64 670.808 2083.01 685.045" stroke="#2558A7" stroke-width="0.695969" stroke-miterlimit="10"/>
<path d="M1552.55 527.364C1579.8 362.988 1869.04 349.753 2056.62 352.316C2200.18 354.278 2306.85 455.579 2307.62 576.552C2308.52 673.391 2230.63 750.434 2141.95 756.427C2093.29 794.169 1976.47 767.967 1931.38 708.702C1917.59 690.584 1911.95 673.086 1915.08 650.017C1922.47 595.389 2029.89 557.242 2070.91 560.738C2121.3 565.032 2140.22 667.993 2078.64 684.246" stroke="#2362AC" stroke-width="0.695969" stroke-miterlimit="10"/>
<path d="M1559 529.421C1585.59 370.655 1864.41 351.948 2049.18 351.514C2189.12 351.183 2294.95 445.488 2300.76 559.877C2305.76 651.451 2236.41 725.726 2155.82 735.114C2118.1 782.166 1990.39 767.704 1934.89 716.707C1917.02 700.281 1907.82 684.078 1908.5 660.894C1910.2 602.167 2029.4 561.864 2067.86 565.146C2115.1 569.175 2134.81 665.2 2074.29 683.459" stroke="#216CB1" stroke-width="0.695969" stroke-miterlimit="10"/>
<path d="M1565.45 531.48C1591.38 378.316 1859.76 354.179 2041.74 350.72C2178.06 348.126 2282.81 435.443 2293.91 543.203C2302.8 629.545 2242.19 701.02 2169.7 713.812C2142.91 770.173 2003.79 767.885 1938.41 724.723C1916.28 710.118 1903.53 695.065 1901.91 671.775C1897.55 608.918 2028.91 566.494 2064.8 569.555C2108.9 573.312 2129.41 662.401 2069.93 682.68" stroke="#1F76B6" stroke-width="0.695969" stroke-miterlimit="10"/>
<path d="M1571.9 533.533C1597.16 385.979 1855.09 356.437 2034.28 349.914C2166.98 345.082 2270.86 425.37 2287.05 526.523C2300.01 607.617 2247.96 676.308 2183.56 692.497C2167.7 758.168 2016.98 768.524 1941.9 732.727C1915.45 720.11 1899.1 706.071 1895.32 682.651C1884.51 615.741 2028.41 571.112 2061.74 573.958C2102.68 577.443 2123.99 659.597 2065.57 681.894" stroke="#1C7FBC" stroke-width="0.695969" stroke-miterlimit="10"/>
<path d="M1578.35 535.591C1602.95 393.64 1850.42 358.733 2026.84 349.113C2155.91 342.077 2258.94 415.305 2280.18 509.845C2297.22 585.696 2253.72 651.594 2197.42 671.187C2192.5 746.167 2030.18 769.554 1945.41 740.736C1914.61 730.264 1894.58 717.133 1888.73 693.531C1871.17 622.709 2027.91 575.744 2058.68 578.366C2096.47 581.589 2118.58 656.804 2061.21 681.114" stroke="#1A89C1" stroke-width="0.695969" stroke-miterlimit="10"/>
<path d="M1584.8 537.651C1608.73 401.309 1845.75 361.07 2019.39 348.32C2144.82 339.109 2247.02 405.245 2273.32 493.172C2294.44 563.781 2259.49 626.889 2211.29 649.88C2217.3 734.169 2043.51 770.873 1948.91 748.747C1913.8 740.532 1890 728.246 1882.14 704.407C1857.56 629.853 2027.41 580.362 2055.62 582.762C2090.26 585.714 2113.16 653.994 2056.84 680.316" stroke="#1893C6" stroke-width="0.695969" stroke-miterlimit="10"/>
<path d="M1591.25 539.702C1614.52 408.97 1841.07 363.439 2011.95 347.513C2133.74 336.156 2235.1 395.177 2266.46 476.49C2291.67 541.861 2265.27 602.175 2225.16 628.57C2242.1 722.169 2057.03 772.366 1952.42 756.759C1913.04 750.881 1885.37 739.428 1875.54 715.29C1843.75 637.19 2026.92 584.995 2052.55 587.174C2084.05 589.854 2107.75 651.197 2052.48 679.536" stroke="#169DCB" stroke-width="0.695969" stroke-miterlimit="10"/>
<path d="M1597.7 541.759C1620.31 416.63 1836.39 365.868 2004.5 346.71C2122.65 333.251 2223.2 385.118 2259.61 459.807C2288.91 519.936 2271.05 577.46 2239.03 607.249C2266.91 710.154 2070.72 773.953 1955.93 764.757C1912.34 761.266 1880.73 750.645 1868.96 726.153C1829.8 644.688 2026.42 589.603 2049.49 591.567C2077.84 593.983 2102.33 648.384 2048.12 678.741" stroke="#14A7D0" stroke-width="0.695969" stroke-miterlimit="10"/>
<path d="M1604.15 543.821C1626.09 424.301 1831.71 368.338 1997.05 345.919C2111.56 330.387 2211.31 375.063 2252.74 443.14C2286.14 498.029 2276.8 552.757 2252.89 585.947C2291.7 698.161 2084.55 775.609 1959.42 772.773C1911.68 771.693 1876.08 761.93 1862.36 737.041C1815.73 652.377 2025.92 594.239 2046.42 595.982C2071.62 598.129 2096.92 645.598 2043.75 677.968" stroke="#12B1D5" stroke-width="0.695969" stroke-miterlimit="10"/>
<path d="M1610.6 545.87C1631.88 431.959 1827.02 370.862 1989.61 345.109C2100.47 327.544 2199.42 364.987 2245.88 426.456C2283.4 476.104 2282.58 528.041 2266.75 564.634C2316.51 686.159 2098.52 777.278 1962.93 780.779C1911.07 782.114 1871.42 773.254 1855.77 747.912C1801.62 660.203 2025.42 598.856 2043.37 600.382C2065.41 602.257 2091.5 642.793 2039.39 677.172" stroke="#0FBADB" stroke-width="0.695969" stroke-miterlimit="10"/>
<path d="M1617.05 547.931C1637.66 439.624 1822.36 373.451 1982.16 344.311C2089.39 324.758 2187.56 354.913 2239.02 409.778C2280.66 454.171 2288.35 503.33 2280.62 543.318C2341.3 674.152 2112.59 778.95 1966.44 788.782C1910.5 792.541 1866.77 784.614 1849.19 758.783C1787.48 668.154 2024.93 603.476 2040.31 604.78C2059.21 606.39 2086.09 639.984 2035.04 676.382" stroke="#0DC4E0" stroke-width="0.695969" stroke-miterlimit="10"/>
<path d="M1623.5 549.982C1643.45 447.284 1817.7 376.098 1974.71 343.509C2078.32 322.002 2175.69 344.828 2232.16 393.096C2277.93 432.231 2294.12 478.616 2294.49 522.008C2366.11 662.151 2126.75 780.622 1969.94 796.79C1909.95 802.978 1862.13 796.006 1842.6 769.663C1773.32 676.222 2024.44 608.098 2037.26 609.187C2053 610.529 2080.69 637.184 2030.69 675.602" stroke="#0BCEE5" stroke-width="0.695969" stroke-miterlimit="10"/>
<path d="M1629.95 552.04C1649.24 454.951 1813.08 378.819 1967.27 342.708C2067.28 319.286 2163.84 334.725 2225.3 376.424C2275.2 410.285 2292.49 456.07 2308.35 500.701C2365.53 661.552 2140.97 782.286 1973.45 804.802C1909.42 813.409 1857.51 807.435 1836.01 780.54C1759.14 684.379 2023.93 612.72 2034.19 613.592C2046.79 614.669 2075.27 634.387 2026.33 674.815" stroke="#09D8EA" stroke-width="0.695969" stroke-miterlimit="10"/>
<path d="M1636.4 554.101C1655.02 462.615 1808.48 381.615 1959.82 341.917C2056.24 316.619 2151.98 324.614 2218.43 359.752C2272.48 388.329 2300.43 431.292 2322.22 479.398C2398.2 647.045 2155.26 783.941 1976.96 812.817C1908.92 823.833 1852.89 818.887 1829.43 791.427C1744.99 692.618 2023.45 617.356 2031.13 618.01C2040.58 618.815 2069.86 631.598 2021.97 674.038" stroke="#07E2EF" stroke-width="0.695969" stroke-miterlimit="10"/>
<path d="M1642.85 556.152C1660.81 470.276 1803.93 384.481 1952.37 341.109C2045.23 313.983 2140.18 314.354 2211.58 343.064C2269.79 366.245 2308.12 406.104 2336.09 458.075C2429.75 632.139 2169.58 785.567 1980.46 820.812C1908.42 834.235 1848.28 830.339 1822.83 802.287C1730.85 700.893 2022.95 621.959 2028.07 622.398C2034.37 622.931 2064.44 628.778 2017.6 673.237" stroke="#04EBF5" stroke-width="0.695969" stroke-miterlimit="10"/>
<path d="M1649.3 558.213C1666.59 477.946 1799.42 387.43 1944.92 340.31C2034.25 311.385 2128.27 304.272 2204.71 326.391C2267.02 344.308 2315.63 380.676 2349.95 436.768C2460.33 617.137 2183.94 787.193 1983.96 828.824C1907.93 844.653 1843.68 841.826 1816.24 813.17C1716.72 709.241 2022.45 626.594 2025.01 626.808C2028.16 627.08 2059.03 625.988 2013.24 672.46" stroke="#02F5FA" stroke-width="0.695969" stroke-miterlimit="10"/>
<path d="M1655.75 560.27C1690.58 403.989 2189.62 157.929 2363.82 415.463C2538.03 672.998 1916.69 930.466 1809.66 824.049C1702.62 717.631 2021.95 631.215 2021.95 631.215C2021.95 631.215 2053.62 623.187 2008.88 671.678" stroke="#00FFFF" stroke-width="0.695969" stroke-miterlimit="10"/>
</svg>
