<svg viewBox="0 -200 1920 1753" fill="none" xmlns="http://www.w3.org/2000/svg">
<path d="M991.517 866.733C991.517 866.733 833.611 531.898 692.365 518.867C551.119 505.837 202.647 722.827 217.615 904.212C232.582 1085.6 -35.1146 978.301 -35.1146 978.301" stroke="#00FFFF" stroke-width="0.552088" stroke-miterlimit="10"/>
<path d="M985.899 869.584C986.047 869.036 841.67 533.287 699.609 517.775C557.548 502.264 218.809 723.08 228.143 900.548C237.476 1078.02 -30.6826 973.268 -30.6826 973.268" stroke="#09FCFF" stroke-width="0.552088" stroke-miterlimit="10"/>
<path d="M980.285 872.441C980.586 871.347 849.738 534.685 706.853 516.683C563.969 498.681 234.974 723.339 238.669 896.888C242.363 1070.44 -26.2504 968.236 -26.2504 968.236" stroke="#12F9FF" stroke-width="0.552088" stroke-miterlimit="10"/>
<path d="M974.667 875.293C975.115 873.651 857.802 536.073 714.091 515.59C570.38 495.108 251.133 723.598 249.188 893.227C247.244 1062.86 -21.8271 963.208 -21.8271 963.208" stroke="#1BF6FF" stroke-width="0.552088" stroke-miterlimit="10"/>
<path d="M969.052 878.151C969.646 875.966 865.87 537.471 721.338 514.505C576.807 491.539 267.303 723.859 259.719 889.569C252.136 1055.28 -17.3919 958.183 -17.3919 958.183" stroke="#24F3FF" stroke-width="0.552088" stroke-miterlimit="10"/>
<path d="M963.439 881.008C964.185 878.276 873.94 538.863 728.583 513.412C583.227 487.961 283.463 724.115 270.246 885.909C257.023 1047.7 -12.9592 953.149 -12.9592 953.149" stroke="#2DF0FF" stroke-width="0.552088" stroke-miterlimit="10"/>
<path d="M957.821 883.858C958.715 880.579 882.004 540.254 735.827 512.32C589.651 484.386 299.628 724.375 280.769 882.242C261.907 1040.11 -8.53235 948.115 -8.53235 948.115" stroke="#36EEFF" stroke-width="0.552088" stroke-miterlimit="10"/>
<path d="M952.207 886.716C953.254 882.891 890.071 541.652 743.072 511.228C596.07 480.809 315.795 724.63 291.295 878.582C266.794 1032.54 -4.10241 943.088 -4.10241 943.088" stroke="#3FEBFF" stroke-width="0.552088" stroke-miterlimit="10"/>
<path d="M946.593 889.574C947.787 885.2 898.14 543.045 750.319 510.143C602.498 477.24 331.958 724.894 301.826 874.924C271.693 1024.95 0.332757 938.062 0.332757 938.062" stroke="#48E8FF" stroke-width="0.552088" stroke-miterlimit="10"/>
<path d="M940.975 892.426C942.317 887.504 906.204 544.437 757.558 509.049C608.911 473.661 348.12 725.147 312.346 871.264C276.572 1017.38 4.7644 933.031 4.7644 933.031" stroke="#51E5FF" stroke-width="0.552088" stroke-miterlimit="10"/>
<path d="M935.361 895.283C936.853 889.821 914.273 545.831 764.807 507.959C615.341 470.088 364.29 725.409 322.879 867.601C281.468 1009.79 9.20161 928.001 9.20161 928.001" stroke="#5AE2FF" stroke-width="0.552088" stroke-miterlimit="10"/>
<path d="M929.744 898.133C931.384 892.122 922.338 547.221 772.046 506.864C621.755 466.508 380.445 725.663 333.4 863.938C286.355 1002.21 13.6266 922.971 13.6266 922.971" stroke="#62DFFF" stroke-width="0.552088" stroke-miterlimit="10"/>
<path d="M924.13 900.991C925.917 894.432 930.407 548.614 779.289 505.777C628.17 462.94 396.61 725.923 343.924 860.284C291.238 994.644 18.0567 917.944 18.0567 917.944" stroke="#6BDCFF" stroke-width="0.552088" stroke-miterlimit="10"/>
<path d="M918.515 903.849C920.455 896.744 938.474 550.012 786.537 504.687C634.601 459.362 412.78 726.185 354.457 856.621C296.134 987.058 22.4934 912.913 22.4934 912.913" stroke="#74D9FF" stroke-width="0.552088" stroke-miterlimit="10"/>
<path d="M912.898 906.699C914.986 899.046 946.538 551.403 793.777 503.593C641.015 455.782 428.94 726.442 364.978 852.959C301.016 979.476 26.9186 907.884 26.9186 907.884" stroke="#7DD6FF" stroke-width="0.552088" stroke-miterlimit="10"/>
<path d="M907.284 909.557C909.524 901.358 954.608 552.797 801.024 502.508C647.44 452.22 445.105 726.702 375.509 849.302C305.913 971.902 31.3555 902.854 31.3555 902.854" stroke="#86D3FF" stroke-width="0.552088" stroke-miterlimit="10"/>
<path d="M901.669 912.415C904.055 903.673 962.675 554.195 808.268 501.416C653.86 448.642 461.27 726.961 386.035 845.642C310.799 964.323 35.7853 897.826 35.7853 897.826" stroke="#8FD1FF" stroke-width="0.552088" stroke-miterlimit="10"/>
<path d="M896.052 915.265C898.585 905.975 970.741 555.581 815.512 500.323C660.284 445.066 477.435 727.22 396.563 841.977C315.688 956.739 40.2172 892.794 40.2172 892.794" stroke="#98CEFF" stroke-width="0.552088" stroke-miterlimit="10"/>
<path d="M890.437 918.123C893.124 908.287 978.808 556.979 822.754 499.237C666.7 441.494 493.594 727.478 407.086 838.323C320.578 949.167 44.6469 887.767 44.6469 887.767" stroke="#A1CBFF" stroke-width="0.552088" stroke-miterlimit="10"/>
<path d="M884.825 920.976C887.66 910.592 986.877 558.373 830.001 498.14C673.124 437.907 509.762 727.732 417.617 834.653C325.471 941.573 49.0815 882.73 49.0815 882.73" stroke="#AAC8FF" stroke-width="0.552088" stroke-miterlimit="10"/>
<path d="M879.206 923.831C882.187 912.899 994.941 559.763 837.243 497.052C679.544 434.341 525.924 727.996 428.135 830.995C330.346 933.994 53.5039 877.705 53.5039 877.705" stroke="#B3C5FF" stroke-width="0.552088" stroke-miterlimit="10"/>
<path d="M873.592 926.689C876.726 915.211 1003 561.159 844.485 495.965C685.966 430.771 542.085 728.254 438.659 827.341C335.234 926.428 57.9342 872.678 57.9342 872.678" stroke="#BCC2FF" stroke-width="0.552088" stroke-miterlimit="10"/>
<path d="M882.458 919.371C885.44 908.438 992.119 571.065 838.555 506.244C684.989 441.427 547.374 715.858 443.162 810.133C338.95 904.409 56.6508 867.115 57.1423 866.932" stroke="#B3B9FF" stroke-width="0.552088" stroke-miterlimit="10"/>
<path d="M891.321 912.059C894.155 901.674 981.232 580.977 832.62 516.533C684.008 452.09 552.655 703.466 447.66 792.938C342.664 882.409 55.3576 861.562 56.3456 861.199" stroke="#AAB0FF" stroke-width="0.552088" stroke-miterlimit="10"/>
<path d="M900.186 904.745C902.872 894.909 970.346 590.888 826.686 526.822C683.021 462.754 557.938 691.073 452.158 775.74C346.379 860.407 54.063 856.012 55.552 855.458" stroke="#A1A6FF" stroke-width="0.552088" stroke-miterlimit="10"/>
<path d="M909.054 897.435C911.588 888.145 959.464 600.803 820.752 537.112C682.041 473.416 563.222 678.689 456.657 758.544C350.091 838.4 52.7754 850.461 54.7559 849.724" stroke="#989DFF" stroke-width="0.552088" stroke-miterlimit="10"/>
<path d="M917.918 890.121C920.305 881.379 948.576 610.718 814.817 547.4C681.059 484.082 568.504 666.295 461.153 741.351C353.801 816.408 51.4804 844.91 53.9575 843.994" stroke="#8F94FF" stroke-width="0.552088" stroke-miterlimit="10"/>
<path d="M926.785 882.803C929.025 874.604 937.692 620.624 808.888 557.678C680.083 494.733 573.791 653.892 465.656 724.144C357.521 794.396 50.1922 839.346 53.1629 838.241" stroke="#868BFF" stroke-width="0.552088" stroke-miterlimit="10"/>
<path d="M935.648 875.49C937.736 867.838 926.804 630.536 802.947 567.966C679.09 505.396 579.07 641.505 470.148 706.946C361.227 772.386 48.8936 833.79 52.3609 832.505" stroke="#7D81FF" stroke-width="0.552088" stroke-miterlimit="10"/>
<path d="M944.512 868.177C946.453 861.072 915.918 640.446 797.014 578.254C678.114 516.064 584.352 629.112 474.647 689.748C364.942 750.384 47.6067 828.237 51.5654 826.769" stroke="#7478FF" stroke-width="0.552088" stroke-miterlimit="10"/>
<path d="M953.376 860.864C955.164 854.306 905.026 650.356 791.079 588.544C677.132 526.731 589.634 616.72 479.145 672.552C368.657 728.383 46.3137 822.684 50.7691 821.035" stroke="#6B6FFF" stroke-width="0.552088" stroke-miterlimit="10"/>
<path d="M962.245 853.554C963.885 847.544 894.144 660.27 785.149 598.835C676.151 537.394 594.925 604.332 483.648 655.358C372.371 706.383 45.0254 817.132 49.9795 815.299" stroke="#6266FF" stroke-width="0.552088" stroke-miterlimit="10"/>
<path d="M971.111 846.235C972.604 840.772 883.258 670.18 779.214 609.111C675.171 548.042 600.205 591.931 488.144 638.152C376.083 684.373 43.728 811.574 49.1808 809.555" stroke="#5A5CFF" stroke-width="0.552088" stroke-miterlimit="10"/>
<path d="M979.975 838.923C981.317 834.001 872.372 680.093 773.28 619.401C674.188 558.709 605.487 579.54 492.642 620.956C379.798 662.373 42.4405 806.023 48.3796 803.819" stroke="#5153FF" stroke-width="0.552088" stroke-miterlimit="10"/>
<path d="M988.839 831.609C990.034 827.235 861.486 690.003 767.346 629.689C673.207 569.375 610.774 567.148 497.141 603.758C383.508 640.369 41.1482 800.468 47.5861 798.078" stroke="#484AFF" stroke-width="0.552088" stroke-miterlimit="10"/>
<path d="M997.703 824.297C998.749 820.472 850.599 699.915 761.411 639.979C672.224 580.043 616.054 554.761 501.639 586.563C387.224 618.364 39.8549 794.915 46.7894 792.345" stroke="#3F41FF" stroke-width="0.552088" stroke-miterlimit="10"/>
<path d="M1006.57 816.981C1007.47 813.702 839.719 709.824 755.479 650.263C671.241 590.697 621.337 542.364 506.134 569.358C390.931 596.353 38.5641 789.355 45.99 786.603" stroke="#3637FF" stroke-width="0.552088" stroke-miterlimit="10"/>
<path d="M1015.44 809.668C1016.18 806.937 828.832 719.735 749.546 660.547C670.261 601.358 626.626 529.968 510.632 552.161C394.638 574.355 37.2711 783.801 45.1958 780.863" stroke="#2D2EFF" stroke-width="0.552088" stroke-miterlimit="10"/>
<path d="M1024.3 802.354C1024.9 800.169 817.944 729.65 743.613 670.835C669.279 612.024 631.907 517.58 515.131 534.964C398.356 552.348 35.9791 778.246 44.4005 775.128" stroke="#2425FF" stroke-width="0.552088" stroke-miterlimit="10"/>
<path d="M1033.17 795.041C1033.61 793.399 807.052 739.559 737.673 681.122C668.294 622.684 637.183 505.185 519.624 517.765C402.065 530.344 34.681 772.689 43.5938 769.388" stroke="#1B1CFF" stroke-width="0.552088" stroke-miterlimit="10"/>
<path d="M1042.03 787.729C1042.33 786.635 796.166 749.472 731.739 691.412C667.312 633.352 642.465 492.794 524.122 500.569C405.78 508.344 33.3932 767.139 42.7975 763.655" stroke="#1212FF" stroke-width="0.552088" stroke-miterlimit="10"/>
<path d="M1050.9 780.411C1051.04 779.863 785.281 759.378 725.809 701.69C666.336 644.003 647.754 480.398 528.625 483.362C409.496 486.326 32.1027 761.579 42.0078 757.905" stroke="#0909FF" stroke-width="0.552088" stroke-miterlimit="10"/>
<path d="M1059.76 773.1C1059.76 773.1 774.4 769.291 719.879 711.981C665.354 654.669 653.041 468.007 533.129 466.167C413.216 464.326 30.8151 756.027 41.2169 752.172" stroke="#0000FF" stroke-width="0.552088" stroke-miterlimit="10"/>
<path opacity="0.54" d="M2312.93 667.176C2315.68 621.671 2268.43 592.569 2221.05 596.444C2173.66 600.303 2127.98 628.194 2087.03 657.862C2046.07 687.514 2005.99 720.533 1959.69 738.432C1863.88 775.461 1768.34 739.303 1686.41 700.928C1604.49 662.553 1514.13 620.92 1416.4 648.076C1339.77 669.378 1275.85 728.803 1204.57 768.52C1080.15 837.86 928.547 843.036 822.49 781.515" stroke="url(#paint0_linear_85_7)" stroke-width="1.56225" stroke-miterlimit="10"/>
<path opacity="0.54" d="M2315.1 678.824C2317.89 633.365 2271.04 604.092 2223.81 607.475C2219.59 607.767 2215.37 608.283 2211.17 608.935C2168.4 615.768 2127.11 640.792 2089.7 667.361C2082.47 672.489 2075.27 677.722 2068.07 682.955C2034.27 707.538 2000.2 732.235 1962.04 746.783C1949.68 751.506 1937.3 755.013 1924.97 757.456C1841.77 773.982 1760.4 742.042 1689.51 708.081C1684.36 705.605 1679.18 703.128 1673.97 700.651C1596.84 663.979 1513.1 629.012 1422.41 650.961C1396.47 657.242 1371.56 667.238 1347.14 680.607C1318.3 696.378 1290.72 716.41 1263.48 735.819C1244.87 749.069 1226.32 762.079 1207.11 773.664C1198.07 779.11 1188.86 784.221 1179.48 788.968C1119.75 819.218 1053.36 834.366 990.108 833.984C926.707 833.598 866.388 817.935 816.055 788.04" stroke="url(#paint1_linear_85_7)" stroke-width="1.56225" stroke-miterlimit="10"/>
<path opacity="0.54" d="M2317.28 690.474C2320.11 645.031 2273.68 615.603 2226.58 618.494C2222.37 618.756 2218.16 619.213 2213.97 619.835C2171.3 626.235 2129.94 650.747 2092.35 676.877C2085.09 681.929 2077.88 687.072 2070.65 692.229C2036.72 716.434 2002.53 740.828 1964.38 755.166C1952.02 759.814 1939.65 763.291 1927.31 765.689C1844.08 781.915 1762.99 749.771 1692.57 715.281C1687.46 712.776 1682.31 710.255 1677.15 707.734C1600.64 670.445 1518.18 635.359 1428.38 653.937C1402.14 659.356 1376.6 667.927 1351.33 681.141C1321.47 696.753 1293.18 717.924 1265.88 738.487C1247.24 752.516 1228.82 766.4 1209.63 778.841C1200.59 784.691 1191.4 790.193 1181.93 795.329C1121.75 828.028 1052.91 844.35 987.848 843.64C922.644 842.942 861.047 825.793 809.626 794.538" stroke="url(#paint2_linear_85_7)" stroke-width="1.56225" stroke-miterlimit="10"/>
<path opacity="0.54" d="M2319.47 702.108C2322.34 656.712 2276.33 627.098 2229.37 629.527C2225.18 629.744 2220.99 630.141 2216.8 630.734C2174.2 636.701 2132.78 660.685 2095.03 686.391C2087.76 691.353 2080.49 696.42 2073.24 701.487C2039.19 725.314 2004.89 749.39 1966.74 763.534C1954.39 768.121 1942.03 771.539 1929.7 773.906C1846.47 789.832 1765.65 757.5 1695.69 722.465C1690.6 719.916 1685.5 717.351 1680.39 714.801C1604.48 676.881 1523.24 641.643 1434.4 656.868C1407.83 661.424 1381.7 668.585 1355.57 681.659C1324.67 697.097 1295.7 719.422 1268.34 741.155C1249.65 755.978 1231.39 770.736 1212.22 784.017C1203.21 790.273 1193.97 796.18 1184.45 801.689C1123.8 836.838 1052.54 854.349 985.663 853.312C918.642 852.286 855.78 833.667 803.252 801.065" stroke="url(#paint3_linear_85_7)" stroke-width="1.56225" stroke-miterlimit="10"/>
<path opacity="0.54" d="M2321.66 713.772C2324.55 668.406 2278.95 638.637 2232.16 640.56C2227.96 640.732 2223.81 641.1 2219.63 641.633C2177.12 647.152 2135.63 670.639 2097.72 695.922C2090.41 700.792 2083.13 705.784 2075.84 710.79C2041.67 734.239 2007.23 757.997 1969.09 771.96C1956.74 776.473 1944.39 779.861 1932.07 782.169C1848.82 797.809 1768.28 765.243 1698.77 729.709C1693.71 727.13 1688.64 724.521 1683.56 721.912C1608.27 683.376 1528.18 647.865 1440.38 659.858C1413.48 663.521 1386.72 669.303 1359.77 682.237C1327.82 697.516 1298.17 720.98 1270.75 743.867C1252.04 759.484 1233.9 775.1 1214.73 789.252C1205.73 795.899 1196.46 802.209 1186.88 808.122C1125.78 845.737 1052.07 864.406 983.384 863.056C914.56 861.718 850.42 841.614 796.785 807.666" stroke="url(#paint4_linear_85_7)" stroke-width="1.56225" stroke-miterlimit="10"/>
<path opacity="0.54" d="M2323.83 725.422C2326.78 680.088 2281.57 650.133 2234.94 651.579C2230.77 651.707 2226.6 652.029 2222.43 652.532C2180.01 657.603 2138.45 680.594 2100.37 705.437C2093.03 710.232 2085.72 715.148 2078.42 720.064C2044.12 743.135 2009.56 766.59 1971.43 780.343C1959.09 784.797 1946.75 788.124 1934.41 790.402C1851.13 805.741 1770.89 772.987 1701.83 736.909C1696.81 734.286 1691.8 731.648 1686.75 728.994C1612.06 689.843 1533.1 653.968 1446.35 662.804C1419.08 665.588 1391.77 669.977 1363.97 682.741C1330.99 697.861 1300.64 722.464 1273.14 746.519C1254.38 762.931 1236.37 779.42 1217.25 794.413C1208.24 801.465 1198.99 808.166 1189.32 814.467C1127.77 854.531 1051.63 874.389 981.127 872.712C910.504 871.032 845.081 849.473 790.339 814.178" stroke="url(#paint5_linear_85_7)" stroke-width="1.56225" stroke-miterlimit="10"/>
<path opacity="0.54" d="M2326.01 737.072C2328.98 691.768 2284.2 661.643 2237.7 662.612C2233.55 662.695 2229.38 662.973 2225.23 663.431C2182.9 668.084 2141.26 690.533 2103.05 714.953C2095.68 719.672 2088.35 724.482 2081.01 729.322C2046.6 752.031 2011.93 775.153 1973.79 788.711C1961.45 793.089 1949.1 796.372 1936.78 798.605C1853.49 813.659 1773.52 780.686 1704.94 744.078C1699.95 741.426 1694.96 738.744 1689.97 736.046C1615.9 696.279 1537.98 659.964 1452.37 665.736C1424.73 667.611 1396.86 670.621 1368.21 683.261C1334.2 698.206 1303.15 723.963 1275.6 749.188C1256.81 766.379 1238.92 783.741 1219.83 799.59C1210.85 807.048 1201.56 814.153 1191.82 820.842C1129.8 863.357 1051.23 884.388 978.921 882.399C906.495 880.406 839.793 857.362 783.945 820.721" stroke="url(#paint6_linear_85_7)" stroke-width="1.56225" stroke-miterlimit="10"/>
<path opacity="0.54" d="M2328.2 748.706C2331.23 703.433 2286.83 673.152 2240.5 673.63C2236.36 673.683 2232.21 673.917 2228.06 674.33C2185.82 678.534 2144.11 700.487 2105.73 724.468C2098.34 729.097 2090.97 733.846 2083.62 738.596C2049.07 760.94 2014.28 783.73 1976.16 797.094C1963.84 801.412 1951.48 804.649 1939.17 806.823C1855.86 821.591 1776.18 788.415 1708.06 751.263C1703.11 748.552 1698.16 745.84 1693.2 743.114C1619.74 702.731 1542.87 665.854 1458.39 668.667C1430.36 669.602 1401.96 671.28 1372.44 683.764C1337.39 698.535 1305.66 725.447 1278.04 751.825C1259.19 769.81 1241.46 788.031 1222.38 804.751C1213.39 812.613 1204.12 820.109 1194.3 827.187C1131.83 872.166 1050.81 894.371 976.693 892.054C902.45 889.734 834.484 865.219 777.546 827.218" stroke="url(#paint7_linear_85_7)" stroke-width="1.56225" stroke-miterlimit="10"/>
<path opacity="0.54" d="M2330.39 760.371C2333.45 715.144 2289.48 684.677 2243.27 684.678C2239.14 684.672 2235 684.875 2230.87 685.244C2188.7 689.015 2146.95 710.426 2108.39 733.998C2100.96 738.536 2093.57 743.195 2086.19 747.869C2051.52 769.835 2016.61 792.322 1978.5 805.476C1966.17 809.749 1953.85 812.912 1941.53 815.07C1858.2 829.523 1778.79 796.158 1711.14 758.477C1706.22 755.737 1701.3 752.981 1696.38 750.195C1623.56 709.182 1547.7 671.699 1464.37 671.628C1435.94 671.608 1406.99 671.968 1376.66 684.298C1340.59 698.91 1308.15 726.961 1280.47 754.492C1261.59 773.257 1244 792.367 1224.94 809.942C1215.97 818.195 1206.68 826.11 1196.8 833.562C1133.87 880.992 1050.43 904.355 974.487 901.74C898.441 899.108 829.184 873.093 771.152 833.761" stroke="url(#paint8_linear_85_7)" stroke-width="1.56225" stroke-miterlimit="10"/>
<path opacity="0.54" d="M2332.57 772.022C2335.67 726.811 2292.09 696.204 2246.05 695.698C2241.93 695.662 2237.8 695.805 2233.69 696.13C2191.62 699.468 2149.79 720.367 2111.07 743.515C2103.61 747.977 2096.19 752.56 2088.78 757.158C2053.99 778.747 2018.97 800.916 1980.86 813.875C1968.53 818.073 1956.21 821.206 1943.9 823.305C1860.55 837.472 1781.43 803.904 1714.22 765.693C1709.34 762.923 1704.46 760.108 1699.58 757.293C1627.37 715.664 1552.51 677.454 1470.37 674.605C1441.54 673.601 1412.06 672.658 1380.87 684.848C1343.76 699.285 1310.62 728.475 1282.87 757.191C1263.95 776.765 1246.5 796.718 1227.45 815.164C1218.51 823.823 1209.17 832.142 1199.21 839.982C1135.83 889.877 1049.96 914.413 972.201 911.471C894.351 908.527 823.798 881.041 764.678 840.348" stroke="url(#paint9_linear_85_7)" stroke-width="1.56225" stroke-miterlimit="10"/>
<path opacity="0.54" d="M2334.74 783.669C2337.88 738.504 2294.71 707.696 2248.84 706.73C2244.74 706.649 2240.63 706.748 2236.5 707.042C2194.51 709.947 2152.61 730.319 2113.73 753.043C2106.26 757.415 2098.81 761.922 2091.37 766.445C2056.46 787.671 2021.3 809.507 1983.21 822.271C1970.89 826.409 1958.59 829.483 1946.27 831.536C1862.9 845.418 1784.06 811.646 1717.32 772.891C1712.47 770.077 1707.62 767.233 1702.79 764.374C1631.19 722.129 1557.33 683.102 1476.37 677.55C1447.13 675.546 1417.14 673.33 1385.09 685.38C1346.94 699.643 1313.11 729.987 1285.31 759.872C1266.34 780.24 1249.04 801.052 1230.02 820.354C1221.07 829.418 1211.75 838.128 1201.71 846.356C1137.87 898.7 1049.56 924.411 969.983 921.141C890.317 917.869 818.498 888.913 758.271 846.874" stroke="url(#paint10_linear_85_7)" stroke-width="1.56225" stroke-miterlimit="10"/>
<path opacity="0.54" d="M2336.93 795.304C2340.12 750.155 2297.36 719.192 2251.61 717.748C2247.53 717.607 2243.43 717.677 2239.32 717.926C2197.41 720.383 2155.45 740.259 2116.43 762.544C2108.93 766.84 2101.43 771.256 2093.98 775.689C2058.95 796.537 2023.67 818.069 1985.57 830.638C1973.25 834.702 1960.95 837.745 1948.63 839.753C1865.23 853.334 1786.69 819.345 1720.4 780.075C1715.59 777.231 1710.79 774.328 1705.98 771.425C1635 728.564 1562.15 688.646 1482.37 680.48C1452.71 677.447 1422.2 673.973 1389.3 685.868C1350.14 699.973 1315.6 731.456 1287.74 762.494C1268.73 783.642 1251.56 805.327 1232.57 825.485C1223.64 834.954 1214.29 844.068 1204.17 852.685C1139.87 907.479 1049.12 934.363 967.742 930.781C886.272 927.197 813.176 896.756 751.842 853.37" stroke="url(#paint11_linear_85_7)" stroke-width="1.56225" stroke-miterlimit="10"/>
<path opacity="0.54" d="M2339.12 806.969C2342.34 761.866 2299.99 730.732 2254.4 728.782C2250.32 728.612 2246.23 728.621 2242.12 728.825C2200.3 730.834 2158.26 750.198 2119.08 772.06C2111.54 776.265 2104.04 780.606 2096.56 784.962C2061.41 805.433 2026.01 826.647 1987.91 839.021C1975.6 843.025 1963.29 846.008 1950.99 847.972C1867.57 861.267 1789.32 827.074 1723.49 787.26C1718.7 784.372 1713.93 781.44 1709.19 778.493C1638.8 735.001 1566.99 694.101 1488.36 683.412C1458.28 679.333 1427.25 674.647 1393.51 686.387C1353.31 700.317 1318.09 732.955 1290.14 765.162C1271.08 787.103 1254.05 809.677 1235.07 830.675C1226.15 840.55 1216.79 850.069 1206.61 859.059C1141.86 916.319 1048.67 944.376 965.478 940.467C882.192 936.555 807.83 904.644 745.407 859.897" stroke="url(#paint12_linear_85_7)" stroke-width="1.56225" stroke-miterlimit="10"/>
<path opacity="0.54" d="M2341.3 818.619C2344.56 773.532 2302.62 742.243 2257.16 739.816C2253.1 739.601 2249.02 739.58 2244.92 739.725C2203.19 741.315 2161.08 760.153 2121.74 781.59C2114.17 785.72 2106.65 789.955 2099.15 794.251C2063.87 814.344 2028.34 835.24 1990.27 847.42C1977.97 851.364 1965.66 854.287 1953.36 856.205C1869.94 869.201 1791.95 834.804 1726.59 794.46C1721.85 791.529 1717.11 788.552 1712.4 785.576C1642.63 741.468 1571.87 699.528 1494.35 686.389C1463.89 681.22 1432.31 675.336 1397.72 686.937C1356.48 700.693 1320.57 734.484 1292.57 767.86C1273.49 790.596 1256.58 814.029 1237.63 835.883C1228.71 846.147 1219.33 856.056 1209.09 865.45C1143.88 925.16 1048.25 954.39 963.255 950.169C878.165 945.945 802.526 912.549 738.997 866.456" stroke="url(#paint13_linear_85_7)" stroke-width="1.56225" stroke-miterlimit="10"/>
<path opacity="0.54" d="M2343.49 830.252C2346.79 785.21 2305.27 753.736 2259.97 750.832C2255.93 750.573 2251.85 750.507 2247.77 750.607C2206.13 751.75 2163.94 770.075 2124.44 791.089C2116.85 795.128 2109.28 799.302 2101.74 803.508C2066.34 823.252 2030.69 843.815 1992.63 855.785C1980.33 859.654 1968.03 862.547 1955.73 864.436C1872.29 877.146 1794.58 842.546 1729.67 801.672C1724.96 798.696 1720.25 795.69 1715.6 792.671C1646.44 747.947 1576.73 704.891 1500.34 689.347C1469.47 683.074 1437.38 676.022 1401.94 687.468C1359.68 701.065 1323.08 735.981 1295 770.526C1275.87 794.056 1259.11 818.347 1240.16 841.071C1231.27 851.742 1221.86 862.055 1211.54 871.837C1145.87 933.997 1047.82 964.416 961.001 959.867C874.095 955.316 797.19 920.449 732.554 873.01" stroke="url(#paint14_linear_85_7)" stroke-width="1.56225" stroke-miterlimit="10"/>
<path opacity="0.54" d="M2345.66 841.902C2349.01 796.876 2307.88 765.261 2262.74 761.851C2258.7 761.547 2254.64 761.437 2250.57 761.507C2209 762.216 2166.76 780.03 2127.11 800.59C2119.49 804.553 2111.91 808.637 2104.33 812.767C2068.81 832.133 2033.06 852.379 1994.99 864.153C1982.7 867.962 1970.41 870.796 1958.11 872.639C1874.64 885.049 1797.21 850.245 1732.77 808.842C1728.1 805.837 1723.45 802.788 1718.8 799.708C1650.26 754.369 1581.65 710.108 1506.35 692.264C1475.11 684.857 1442.45 676.652 1406.16 687.957C1362.86 701.38 1325.57 737.45 1297.43 773.149C1278.26 797.458 1261.63 822.622 1242.71 846.203C1233.82 857.278 1224.42 867.982 1214.02 878.152C1147.9 942.778 1047.4 974.355 958.779 969.493C870.069 964.63 791.886 928.278 726.144 879.493" stroke="url(#paint15_linear_85_7)" stroke-width="1.56225" stroke-miterlimit="10"/>
<path opacity="0.54" d="M2347.85 853.567C2351.24 808.587 2310.51 776.771 2265.51 772.899C2261.5 772.55 2257.46 772.396 2253.39 772.421C2211.9 772.682 2169.6 789.999 2129.78 810.135C2122.12 814.008 2114.51 818.016 2106.92 822.055C2071.27 841.043 2035.39 860.971 1997.34 872.551C1985.05 876.285 1972.77 879.089 1960.48 880.872C1876.99 892.996 1799.85 857.989 1735.87 816.042C1731.22 812.992 1726.61 809.914 1722.02 806.791C1654.09 760.835 1586.59 715.355 1512.35 695.21C1480.75 686.639 1447.52 677.34 1410.38 688.491C1366.04 701.74 1328.07 738.964 1299.84 775.831C1280.62 800.935 1264.15 826.973 1245.25 851.394C1236.38 862.875 1226.95 873.983 1216.49 884.527C1149.91 951.602 1046.98 984.368 956.545 979.179C866.019 973.988 786.571 936.166 719.721 886.035" stroke="url(#paint16_linear_85_7)" stroke-width="1.56225" stroke-miterlimit="10"/>
<path opacity="0.54" d="M2350.03 865.216C2353.44 820.267 2313.15 788.282 2268.3 783.933C2264.29 783.554 2260.27 783.34 2256.2 783.335C2214.82 783.164 2172.42 799.953 2132.45 819.666C2124.75 823.462 2117.13 827.38 2109.51 831.344C2073.74 849.954 2037.73 869.579 1999.69 880.949C1987.42 884.623 1975.13 887.382 1962.84 889.12C1879.33 900.959 1802.47 865.748 1738.96 823.257C1734.34 820.178 1729.77 817.04 1725.22 813.888C1657.9 767.317 1591.58 720.544 1518.35 698.186C1486.39 688.422 1452.58 678.029 1414.62 689.041C1369.26 702.13 1330.58 740.494 1302.3 778.53C1283.05 804.413 1266.71 831.324 1247.82 856.616C1238.94 868.502 1229.5 880.015 1218.97 890.947C1151.94 960.488 1046.56 994.412 954.318 988.911C861.988 983.408 781.262 944.1 713.324 892.608" stroke="url(#paint17_linear_85_7)" stroke-width="1.56225" stroke-miterlimit="10"/>
<path opacity="0.54" d="M2352.22 876.85C2355.68 831.932 2315.78 799.79 2271.08 794.95C2267.08 794.511 2263.06 794.267 2259.02 794.218C2217.71 793.613 2175.26 809.891 2135.13 829.18C2127.42 832.886 2119.73 836.728 2112.11 840.616C2076.22 858.848 2040.11 878.155 2002.05 889.345C1989.78 892.96 1977.5 895.643 1965.2 897.352C1881.68 908.875 1805.1 873.475 1742.05 830.455C1737.46 827.332 1732.93 824.165 1728.43 820.969C1661.72 773.781 1596.58 725.67 1524.35 701.131C1492.05 690.158 1457.66 678.702 1418.82 689.558C1372.43 702.473 1333.05 741.975 1304.72 781.181C1285.43 807.873 1269.2 835.643 1250.37 861.791C1241.51 874.067 1232.07 885.985 1221.46 897.306C1153.95 969.311 1046.15 1004.41 952.087 998.565C857.953 992.75 775.949 951.957 706.904 899.119" stroke="url(#paint18_linear_85_7)" stroke-width="1.56225" stroke-miterlimit="10"/>
<path opacity="0.54" d="M2354.4 888.499C2357.88 843.612 2318.41 811.3 2273.85 805.968C2269.88 805.485 2265.87 805.211 2261.83 805.102C2220.62 804.049 2178.08 819.816 2137.79 838.68C2130.06 842.311 2122.36 846.062 2114.68 849.874C2078.67 867.743 2042.41 886.717 2004.36 897.697C1992.1 901.236 1979.82 903.89 1967.55 905.554C1884.01 916.792 1807.73 881.174 1745.11 837.639C1740.57 834.472 1736.05 831.275 1731.57 828.034C1665.48 780.231 1601.57 730.754 1530.29 704.076C1497.69 691.866 1462.67 679.359 1422.99 690.091C1375.56 702.832 1335.48 743.488 1307.09 783.847C1287.75 811.333 1271.67 839.962 1252.87 866.966C1244.01 879.663 1234.55 891.97 1223.86 903.679C1155.89 978.134 1045.66 1014.41 949.792 1008.25C853.842 1002.11 770.555 959.859 700.421 905.659" stroke="url(#paint19_linear_85_7)" stroke-width="1.56225" stroke-miterlimit="10"/>
<path opacity="0.54" d="M2356.59 900.166C2360.13 855.31 2321.05 822.828 2276.64 817.004C2272.68 816.491 2268.67 816.157 2264.65 816.018C2223.51 814.547 2180.92 829.787 2140.47 848.198C2132.7 851.737 2124.98 855.428 2117.29 859.15C2081.16 876.641 2044.78 895.312 2006.74 906.082C1994.49 909.562 1982.22 912.156 1969.94 913.775C1886.38 924.726 1810.37 888.89 1748.23 844.826C1743.72 841.614 1739.24 838.374 1734.8 835.104C1669.34 786.67 1606.69 735.812 1536.32 707.025C1503.42 693.577 1467.76 680.05 1427.25 690.597C1378.79 703.179 1338.01 744.974 1309.56 786.517C1290.18 814.783 1274.23 844.285 1255.44 872.159C1246.6 885.247 1237.11 897.974 1226.36 910.057C1157.94 986.977 1045.28 1024.42 947.588 1017.94C849.835 1011.48 765.257 967.734 694.029 912.204" stroke="url(#paint20_linear_85_7)" stroke-width="1.56225" stroke-miterlimit="10"/>
<path opacity="0.54" d="M2358.76 911.814C2362.33 866.989 2323.65 834.336 2279.41 828.051C2275.47 827.493 2271.46 827.115 2267.46 826.931C2226.41 825.012 2183.74 839.74 2143.15 857.742C2135.34 861.206 2127.6 864.791 2119.87 868.437C2083.6 885.565 2047.14 903.904 2009.09 914.478C1996.84 917.883 1984.58 920.447 1972.3 922.021C1888.7 932.672 1812.99 896.648 1751.31 852.039C1746.83 848.798 1742.38 845.513 1738 842.2C1673.14 793.135 1611.8 740.852 1542.31 709.984C1509.13 695.255 1472.82 680.722 1431.45 691.144C1381.96 703.552 1340.49 746.502 1311.97 789.199C1292.54 818.258 1276.76 848.634 1257.97 877.349C1249.15 890.827 1239.66 903.959 1228.83 916.43C1159.95 995.8 1044.86 1034.4 945.354 1027.62C845.784 1020.84 759.941 975.622 687.606 918.745" stroke="url(#paint21_linear_85_7)" stroke-width="1.56225" stroke-miterlimit="10"/>
<path opacity="0.54" d="M2360.95 923.449C2364.57 878.655 2326.3 845.832 2282.21 839.055C2278.26 838.452 2274.29 838.044 2270.3 837.801C2229.34 835.434 2186.6 849.665 2145.83 867.228C2138.01 870.601 2130.22 874.126 2122.49 877.681C2086.09 894.431 2049.5 912.467 2011.47 922.832C1999.23 926.177 1986.96 928.696 1974.69 930.21C1891.08 940.575 1815.64 904.332 1754.43 859.194C1749.98 855.909 1745.59 852.581 1741.24 849.238C1676.99 799.558 1617.02 745.806 1548.35 712.902C1514.92 696.891 1477.93 681.368 1435.7 691.635C1385.15 703.883 1343.01 747.972 1314.43 791.822C1294.97 821.677 1279.31 852.911 1260.54 882.496C1251.72 896.394 1242.21 909.916 1231.31 922.776C1161.97 1004.6 1044.45 1044.39 943.125 1037.28C841.751 1030.18 754.63 983.481 681.207 925.243" stroke="url(#paint22_linear_85_7)" stroke-width="1.56225" stroke-miterlimit="10"/>
<path opacity="0.54" d="M2363.13 935.1C2366.77 890.336 2328.93 857.343 2284.97 850.089C2281.04 849.442 2277.08 848.974 2273.08 848.715C2232.19 845.915 2189.39 859.619 2148.48 876.774C2140.63 880.071 2132.81 883.49 2125.06 886.985C2088.55 903.372 2051.81 921.075 2013.8 931.245C2001.56 934.515 1989.32 936.99 1977.04 938.458C1893.43 948.524 1818.26 912.092 1757.51 866.409C1753.1 863.095 1748.73 859.722 1744.42 856.321C1680.79 806.024 1622.19 750.819 1554.32 715.848C1520.67 698.512 1482.97 682.027 1439.91 692.154C1388.34 704.243 1345.49 749.471 1316.83 794.49C1297.32 825.139 1281.81 857.231 1263.06 887.672C1254.26 901.961 1244.73 915.873 1233.76 929.136C1163.97 1013.42 1044.01 1054.37 940.878 1046.95C837.706 1039.51 749.301 991.354 674.771 931.771" stroke="url(#paint23_linear_85_7)" stroke-width="1.56225" stroke-miterlimit="10"/>
<path opacity="0.54" d="M2365.32 946.763C2369.02 902.031 2331.56 868.881 2287.77 861.136C2283.87 860.445 2279.9 859.932 2275.92 859.629C2235.14 856.395 2192.25 869.588 2151.19 886.288C2143.3 889.51 2135.46 892.853 2127.66 896.257C2091.03 912.266 2054.19 929.651 2016.17 939.626C2003.95 942.837 1991.7 945.266 1979.41 946.69C1895.77 956.454 1820.9 919.834 1760.61 873.607C1756.22 870.249 1751.9 866.832 1747.64 863.401C1684.61 812.489 1627.45 755.787 1560.32 718.823C1526.45 700.176 1488.02 682.728 1444.11 692.701C1391.51 704.616 1347.97 750.998 1319.26 797.186C1299.72 828.614 1284.33 861.58 1265.61 892.877C1256.82 907.586 1247.28 921.888 1236.23 935.539C1165.98 1022.27 1043.58 1064.41 938.637 1056.66C833.661 1048.92 743.979 999.271 668.342 938.341" stroke="url(#paint24_linear_85_7)" stroke-width="1.56225" stroke-miterlimit="10"/>
<path opacity="0.54" d="M2367.49 958.411C2371.22 913.709 2334.19 880.389 2290.52 872.167C2286.62 871.431 2282.69 870.889 2278.69 870.525C2237.98 866.858 2195.03 879.524 2153.81 895.801C2145.9 898.917 2138.03 902.2 2130.21 905.528C2093.46 921.159 2056.49 938.241 2018.47 948.021C2006.25 951.171 1994 953.526 1981.74 954.935C1898.07 964.414 1823.48 927.575 1763.64 880.834C1759.29 877.446 1755.01 874 1750.78 870.51C1688.37 818.982 1632.68 760.784 1566.25 721.796C1532.2 701.794 1493.03 683.429 1448.27 693.261C1394.63 705.002 1350.4 752.539 1321.62 799.881C1302.03 832.103 1286.79 865.957 1268.08 898.095C1259.3 913.194 1249.74 927.916 1238.63 941.94C1167.93 1031.14 1043.08 1074.44 936.305 1066.38C829.525 1058.32 738.565 1007.19 661.822 944.909" stroke="url(#paint25_linear_85_7)" stroke-width="1.56225" stroke-miterlimit="10"/>
<path opacity="0.54" d="M2369.69 970.046C2373.46 925.376 2336.81 891.885 2293.32 883.171C2289.44 882.39 2285.5 881.803 2281.53 881.395C2240.91 877.28 2197.89 889.449 2156.51 905.302C2148.57 908.343 2140.66 911.534 2132.83 914.787C2095.96 930.041 2058.86 946.804 2020.86 956.39C2008.64 959.465 1996.4 961.79 1984.15 963.139C1900.46 972.333 1826.15 935.291 1766.78 888.005C1762.47 884.558 1758.22 881.083 1754.02 877.549C1692.23 825.405 1638.02 765.711 1572.29 724.713C1538.07 703.372 1498.14 684.059 1452.53 693.737C1397.87 705.318 1352.94 753.994 1324.1 802.49C1304.47 835.491 1289.36 870.219 1270.68 903.213C1261.91 918.703 1252.35 933.829 1241.16 948.242C1170 1039.89 1042.72 1084.36 934.132 1075.99C825.536 1067.6 733.31 1015 655.46 951.378" stroke="url(#paint26_linear_85_7)" stroke-width="1.56225" stroke-miterlimit="10"/>
<path opacity="0.54" d="M2371.86 981.696C2375.66 937.056 2339.44 903.395 2296.1 894.19C2292.22 893.379 2288.3 892.733 2284.35 892.28C2243.81 887.747 2200.73 899.389 2159.17 914.803C2151.21 917.768 2143.28 920.869 2135.41 924.031C2098.42 938.907 2061.21 955.353 2023.21 964.743C2011 967.759 1998.75 970.038 1986.49 971.342C1902.79 980.25 1828.77 942.975 1769.85 895.175C1765.58 891.699 1761.36 888.179 1757.21 884.601C1696.03 831.841 1643.37 770.638 1578.27 727.629C1543.91 704.92 1503.18 684.718 1456.73 694.241C1401.03 705.648 1355.4 755.462 1326.5 805.157C1306.83 838.968 1291.86 874.539 1273.19 908.404C1264.43 924.314 1254.84 939.829 1243.58 954.631C1171.96 1048.73 1042.25 1094.39 931.849 1085.69C821.449 1076.99 727.946 1022.9 648.988 957.935" stroke="url(#paint27_linear_85_7)" stroke-width="1.56225" stroke-miterlimit="10"/>
<path opacity="0.54" d="M2374.05 993.361C2377.91 948.753 2342.09 914.921 2298.88 905.254C2295.03 904.399 2291.11 903.722 2287.15 903.224C2246.71 898.243 2203.55 909.374 2161.84 924.379C2153.84 927.268 2145.88 930.278 2138.01 933.365C2100.88 947.892 2063.56 964.006 2025.57 973.186C2013.36 976.127 2001.13 978.362 1988.87 979.621C1905.16 988.213 1831.42 950.765 1772.96 902.42C1768.71 898.899 1764.54 895.336 1760.43 891.729C1699.87 838.353 1648.78 775.641 1584.29 730.636C1549.79 706.558 1508.27 685.437 1460.96 694.82C1404.22 706.053 1357.9 757.022 1328.94 807.871C1309.22 842.476 1294.4 878.905 1275.76 913.626C1267.01 929.926 1257.4 945.862 1246.08 961.037C1174 1057.6 1041.84 1104.42 929.639 1095.41C817.424 1086.38 722.655 1030.82 642.609 964.493" stroke="url(#paint28_linear_85_7)" stroke-width="1.56225" stroke-miterlimit="10"/>
<path opacity="0.54" d="M2376.24 1005C2380.13 960.418 2344.72 926.431 2301.67 916.257C2297.83 915.342 2293.92 914.636 2289.99 914.094C2249.63 908.664 2206.41 919.298 2164.55 933.85C2156.52 936.633 2148.54 939.583 2140.61 942.593C2103.36 956.743 2065.9 972.538 2027.93 981.523C2015.74 984.405 2003.51 986.594 1991.26 987.794C1907.52 996.1 1834.05 958.433 1776.07 909.559C1771.86 906.01 1767.72 902.402 1763.66 898.751C1703.7 844.759 1654.22 780.539 1590.31 733.522C1555.72 708.062 1513.36 686.051 1465.21 695.279C1407.45 706.353 1360.43 758.461 1331.4 810.464C1311.65 845.848 1296.96 883.151 1278.35 918.742C1269.6 935.448 1260.01 951.774 1248.6 967.337C1176.07 1066.35 1041.48 1114.36 927.465 1105.02C813.446 1095.68 717.399 1038.64 636.246 970.961" stroke="url(#paint29_linear_85_7)" stroke-width="1.56225" stroke-miterlimit="10"/>
<path opacity="0.54" d="M2378.42 1016.65C2382.34 972.114 2347.35 937.942 2304.43 927.291C2300.6 926.346 2296.71 925.565 2292.77 925.008C2252.49 919.145 2209.2 929.252 2167.19 943.395C2159.13 946.103 2151.12 948.977 2143.18 951.897C2105.81 965.668 2068.24 981.146 2030.27 989.936C2018.07 992.772 2005.86 994.888 1993.6 996.072C1909.85 1004.09 1836.67 966.223 1779.13 916.819C1774.94 913.225 1770.85 909.573 1766.82 905.878C1707.46 851.255 1659.6 785.558 1596.27 736.529C1561.58 709.685 1518.39 686.77 1469.38 695.858C1410.58 706.758 1362.87 760.019 1333.78 813.176C1313.97 849.354 1299.44 887.532 1280.84 923.978C1272.11 941.089 1262.48 957.819 1251 973.771C1178 1075.24 1040.98 1124.42 925.156 1114.76C809.32 1105.1 711.99 1046.6 629.749 977.562" stroke="url(#paint30_linear_85_7)" stroke-width="1.56225" stroke-miterlimit="10"/>
<path opacity="0.54" d="M2380.59 1028.3C2384.91 979.811 2343.5 943.403 2295.59 935.892C2247.69 928.396 2195.3 943.452 2145.77 961.155C2096.24 978.859 2046.36 999.63 1995.96 1004.29C1906.11 1012.57 1828.75 968.168 1770.04 912.93C1711.3 857.692 1665.1 790.487 1602.29 739.46C1567.53 711.22 1523.47 687.443 1473.62 696.377C1413.79 707.103 1365.38 761.519 1336.22 815.859C1307.07 870.199 1289.63 929 1253.5 980.146C1180.05 1084.08 1040.59 1134.43 922.952 1124.45C805.312 1114.47 706.704 1054.49 623.356 984.105" stroke="url(#paint31_linear_85_7)" stroke-width="1.56225" stroke-miterlimit="10"/>
<defs>
<linearGradient id="paint0_linear_85_7" x1="828.153" y1="737.554" x2="2275.82" y2="939.641" gradientUnits="userSpaceOnUse">
<stop stop-color="#7ED4EF"/>
<stop offset="0.2294" stop-color="#66BFE6"/>
<stop offset="0.711" stop-color="#298BD0"/>
<stop offset="1" stop-color="#0169C2"/>
</linearGradient>
<linearGradient id="paint1_linear_85_7" x1="821.146" y1="748.214" x2="2277.96" y2="951.578" gradientUnits="userSpaceOnUse">
<stop stop-color="#7ED4EF"/>
<stop offset="0.2294" stop-color="#66BFE6"/>
<stop offset="0.711" stop-color="#298BD0"/>
<stop offset="1" stop-color="#0169C2"/>
</linearGradient>
<linearGradient id="paint2_linear_85_7" x1="814.139" y1="758.872" x2="2280.11" y2="963.514" gradientUnits="userSpaceOnUse">
<stop stop-color="#7ED4EF"/>
<stop offset="0.2294" stop-color="#66BFE6"/>
<stop offset="0.711" stop-color="#298BD0"/>
<stop offset="1" stop-color="#0169C2"/>
</linearGradient>
<linearGradient id="paint3_linear_85_7" x1="807.315" y1="768.229" x2="2282.43" y2="974.148" gradientUnits="userSpaceOnUse">
<stop stop-color="#7ED4EF"/>
<stop offset="0.2294" stop-color="#66BFE6"/>
<stop offset="0.711" stop-color="#298BD0"/>
<stop offset="1" stop-color="#0169C2"/>
</linearGradient>
<linearGradient id="paint4_linear_85_7" x1="800.8" y1="775.363" x2="2285.07" y2="982.559" gradientUnits="userSpaceOnUse">
<stop stop-color="#7ED4EF"/>
<stop offset="0.2294" stop-color="#66BFE6"/>
<stop offset="0.711" stop-color="#298BD0"/>
<stop offset="1" stop-color="#0169C2"/>
</linearGradient>
<linearGradient id="paint5_linear_85_7" x1="794.306" y1="782.367" x2="2287.72" y2="990.84" gradientUnits="userSpaceOnUse">
<stop stop-color="#7ED4EF"/>
<stop offset="0.2294" stop-color="#66BFE6"/>
<stop offset="0.711" stop-color="#298BD0"/>
<stop offset="1" stop-color="#0169C2"/>
</linearGradient>
<linearGradient id="paint6_linear_85_7" x1="787.83" y1="789.228" x2="2290.39" y2="998.978" gradientUnits="userSpaceOnUse">
<stop stop-color="#7ED4EF"/>
<stop offset="0.2294" stop-color="#66BFE6"/>
<stop offset="0.711" stop-color="#298BD0"/>
<stop offset="1" stop-color="#0169C2"/>
</linearGradient>
<linearGradient id="paint7_linear_85_7" x1="781.377" y1="795.938" x2="2293.09" y2="1006.96" gradientUnits="userSpaceOnUse">
<stop stop-color="#7ED4EF"/>
<stop offset="0.2294" stop-color="#66BFE6"/>
<stop offset="0.711" stop-color="#298BD0"/>
<stop offset="1" stop-color="#0169C2"/>
</linearGradient>
<linearGradient id="paint8_linear_85_7" x1="774.967" y1="802.32" x2="2295.83" y2="1014.62" gradientUnits="userSpaceOnUse">
<stop stop-color="#7ED4EF"/>
<stop offset="0.2294" stop-color="#66BFE6"/>
<stop offset="0.711" stop-color="#298BD0"/>
<stop offset="1" stop-color="#0169C2"/>
</linearGradient>
<linearGradient id="paint9_linear_85_7" x1="768.6" y1="808.438" x2="2298.61" y2="1022.02" gradientUnits="userSpaceOnUse">
<stop stop-color="#7ED4EF"/>
<stop offset="0.2294" stop-color="#66BFE6"/>
<stop offset="0.711" stop-color="#298BD0"/>
<stop offset="1" stop-color="#0169C2"/>
</linearGradient>
<linearGradient id="paint10_linear_85_7" x1="762.251" y1="814.391" x2="2301.4" y2="1029.25" gradientUnits="userSpaceOnUse">
<stop stop-color="#7ED4EF"/>
<stop offset="0.2294" stop-color="#66BFE6"/>
<stop offset="0.711" stop-color="#298BD0"/>
<stop offset="1" stop-color="#0169C2"/>
</linearGradient>
<linearGradient id="paint11_linear_85_7" x1="755.92" y1="820.232" x2="2304.22" y2="1036.37" gradientUnits="userSpaceOnUse">
<stop stop-color="#7ED4EF"/>
<stop offset="0.2294" stop-color="#66BFE6"/>
<stop offset="0.711" stop-color="#298BD0"/>
<stop offset="1" stop-color="#0169C2"/>
</linearGradient>
<linearGradient id="paint12_linear_85_7" x1="749.6" y1="825.993" x2="2307.05" y2="1043.4" gradientUnits="userSpaceOnUse">
<stop stop-color="#7ED4EF"/>
<stop offset="0.2294" stop-color="#66BFE6"/>
<stop offset="0.711" stop-color="#298BD0"/>
<stop offset="1" stop-color="#0169C2"/>
</linearGradient>
<linearGradient id="paint13_linear_85_7" x1="743.289" y1="831.694" x2="2309.88" y2="1050.38" gradientUnits="userSpaceOnUse">
<stop stop-color="#7ED4EF"/>
<stop offset="0.2294" stop-color="#66BFE6"/>
<stop offset="0.711" stop-color="#298BD0"/>
<stop offset="1" stop-color="#0169C2"/>
</linearGradient>
<linearGradient id="paint14_linear_85_7" x1="736.984" y1="837.344" x2="2312.73" y2="1057.31" gradientUnits="userSpaceOnUse">
<stop stop-color="#7ED4EF"/>
<stop offset="0.2294" stop-color="#66BFE6"/>
<stop offset="0.711" stop-color="#298BD0"/>
<stop offset="1" stop-color="#0169C2"/>
</linearGradient>
<linearGradient id="paint15_linear_85_7" x1="730.685" y1="842.959" x2="2315.57" y2="1064.2" gradientUnits="userSpaceOnUse">
<stop stop-color="#7ED4EF"/>
<stop offset="0.2294" stop-color="#66BFE6"/>
<stop offset="0.711" stop-color="#298BD0"/>
<stop offset="1" stop-color="#0169C2"/>
</linearGradient>
<linearGradient id="paint16_linear_85_7" x1="724.391" y1="848.546" x2="2318.42" y2="1071.06" gradientUnits="userSpaceOnUse">
<stop stop-color="#7ED4EF"/>
<stop offset="0.2294" stop-color="#66BFE6"/>
<stop offset="0.711" stop-color="#298BD0"/>
<stop offset="1" stop-color="#0169C2"/>
</linearGradient>
<linearGradient id="paint17_linear_85_7" x1="718.101" y1="854.108" x2="2321.28" y2="1077.9" gradientUnits="userSpaceOnUse">
<stop stop-color="#7ED4EF"/>
<stop offset="0.2294" stop-color="#66BFE6"/>
<stop offset="0.711" stop-color="#298BD0"/>
<stop offset="1" stop-color="#0169C2"/>
</linearGradient>
<linearGradient id="paint18_linear_85_7" x1="711.81" y1="859.648" x2="2324.14" y2="1084.72" gradientUnits="userSpaceOnUse">
<stop stop-color="#7ED4EF"/>
<stop offset="0.2294" stop-color="#66BFE6"/>
<stop offset="0.711" stop-color="#298BD0"/>
<stop offset="1" stop-color="#0169C2"/>
</linearGradient>
<linearGradient id="paint19_linear_85_7" x1="705.525" y1="865.174" x2="2327" y2="1091.52" gradientUnits="userSpaceOnUse">
<stop stop-color="#7ED4EF"/>
<stop offset="0.2294" stop-color="#66BFE6"/>
<stop offset="0.711" stop-color="#298BD0"/>
<stop offset="1" stop-color="#0169C2"/>
</linearGradient>
<linearGradient id="paint20_linear_85_7" x1="699.241" y1="870.687" x2="2329.86" y2="1098.31" gradientUnits="userSpaceOnUse">
<stop stop-color="#7ED4EF"/>
<stop offset="0.2294" stop-color="#66BFE6"/>
<stop offset="0.711" stop-color="#298BD0"/>
<stop offset="1" stop-color="#0169C2"/>
</linearGradient>
<linearGradient id="paint21_linear_85_7" x1="692.959" y1="876.186" x2="2332.72" y2="1105.09" gradientUnits="userSpaceOnUse">
<stop stop-color="#7ED4EF"/>
<stop offset="0.2294" stop-color="#66BFE6"/>
<stop offset="0.711" stop-color="#298BD0"/>
<stop offset="1" stop-color="#0169C2"/>
</linearGradient>
<linearGradient id="paint22_linear_85_7" x1="686.678" y1="881.677" x2="2335.59" y2="1111.86" gradientUnits="userSpaceOnUse">
<stop stop-color="#7ED4EF"/>
<stop offset="0.2294" stop-color="#66BFE6"/>
<stop offset="0.711" stop-color="#298BD0"/>
<stop offset="1" stop-color="#0169C2"/>
</linearGradient>
<linearGradient id="paint23_linear_85_7" x1="680.398" y1="887.159" x2="2338.45" y2="1118.61" gradientUnits="userSpaceOnUse">
<stop stop-color="#7ED4EF"/>
<stop offset="0.2294" stop-color="#66BFE6"/>
<stop offset="0.711" stop-color="#298BD0"/>
<stop offset="1" stop-color="#0169C2"/>
</linearGradient>
<linearGradient id="paint24_linear_85_7" x1="674.12" y1="892.631" x2="2341.32" y2="1125.36" gradientUnits="userSpaceOnUse">
<stop stop-color="#7ED4EF"/>
<stop offset="0.2294" stop-color="#66BFE6"/>
<stop offset="0.711" stop-color="#298BD0"/>
<stop offset="1" stop-color="#0169C2"/>
</linearGradient>
<linearGradient id="paint25_linear_85_7" x1="667.843" y1="898.096" x2="2344.19" y2="1132.11" gradientUnits="userSpaceOnUse">
<stop stop-color="#7ED4EF"/>
<stop offset="0.2294" stop-color="#66BFE6"/>
<stop offset="0.711" stop-color="#298BD0"/>
<stop offset="1" stop-color="#0169C2"/>
</linearGradient>
<linearGradient id="paint26_linear_85_7" x1="661.567" y1="903.557" x2="2347.06" y2="1138.84" gradientUnits="userSpaceOnUse">
<stop stop-color="#7ED4EF"/>
<stop offset="0.2294" stop-color="#66BFE6"/>
<stop offset="0.711" stop-color="#298BD0"/>
<stop offset="1" stop-color="#0169C2"/>
</linearGradient>
<linearGradient id="paint27_linear_85_7" x1="655.292" y1="909.014" x2="2349.93" y2="1145.58" gradientUnits="userSpaceOnUse">
<stop stop-color="#7ED4EF"/>
<stop offset="0.2294" stop-color="#66BFE6"/>
<stop offset="0.711" stop-color="#298BD0"/>
<stop offset="1" stop-color="#0169C2"/>
</linearGradient>
<linearGradient id="paint28_linear_85_7" x1="649.018" y1="914.465" x2="2352.8" y2="1152.3" gradientUnits="userSpaceOnUse">
<stop stop-color="#7ED4EF"/>
<stop offset="0.2294" stop-color="#66BFE6"/>
<stop offset="0.711" stop-color="#298BD0"/>
<stop offset="1" stop-color="#0169C2"/>
</linearGradient>
<linearGradient id="paint29_linear_85_7" x1="642.743" y1="919.912" x2="2355.67" y2="1159.03" gradientUnits="userSpaceOnUse">
<stop stop-color="#7ED4EF"/>
<stop offset="0.2294" stop-color="#66BFE6"/>
<stop offset="0.711" stop-color="#298BD0"/>
<stop offset="1" stop-color="#0169C2"/>
</linearGradient>
<linearGradient id="paint30_linear_85_7" x1="636.468" y1="925.356" x2="2358.54" y2="1165.75" gradientUnits="userSpaceOnUse">
<stop stop-color="#7ED4EF"/>
<stop offset="0.2294" stop-color="#66BFE6"/>
<stop offset="0.711" stop-color="#298BD0"/>
<stop offset="1" stop-color="#0169C2"/>
</linearGradient>
<linearGradient id="paint31_linear_85_7" x1="630.196" y1="930.796" x2="2361.41" y2="1172.46" gradientUnits="userSpaceOnUse">
<stop stop-color="#7ED4EF"/>
<stop offset="0.2294" stop-color="#66BFE6"/>
<stop offset="0.711" stop-color="#298BD0"/>
<stop offset="1" stop-color="#0169C2"/>
</linearGradient>
</defs>
</svg>
