<svg id="visual" viewBox="0 0 1920 1080" width="1920" height="1080" xmlns="http://www.w3.org/2000/svg" xmlns:xlink="http://www.w3.org/1999/xlink" version="1.1"><path d="M0 375L24.7 360.3C49.3 345.7 98.7 316.3 147.8 313.5C197 310.7 246 334.3 295.2 333C344.3 331.7 393.7 305.3 443 301.3C492.3 297.3 541.7 315.7 590.8 313.8C640 312 689 290 738.2 288.3C787.3 286.7 836.7 305.3 886 324C935.3 342.7 984.7 361.3 1034 360C1083.3 358.7 1132.7 337.3 1181.8 320C1231 302.7 1280 289.3 1329.2 279.5C1378.3 269.7 1427.7 263.3 1477 262.2C1526.3 261 1575.7 265 1624.8 278.5C1674 292 1723 315 1772.2 319C1821.3 323 1870.7 308 1895.3 300.5L1920 293L1920 0L1895.3 0C1870.7 0 1821.3 0 1772.2 0C1723 0 1674 0 1624.8 0C1575.7 0 1526.3 0 1477 0C1427.7 0 1378.3 0 1329.2 0C1280 0 1231 0 1181.8 0C1132.7 0 1083.3 0 1034 0C984.7 0 935.3 0 886 0C836.7 0 787.3 0 738.2 0C689 0 640 0 590.8 0C541.7 0 492.3 0 443 0C393.7 0 344.3 0 295.2 0C246 0 197 0 147.8 0C98.7 0 49.3 0 24.7 0L0 0Z" fill="#eaeaea"></path><path d="M0 250L24.7 242.7C49.3 235.3 98.7 220.7 147.8 227C197 233.3 246 260.7 295.2 268.3C344.3 276 393.7 264 443 266.2C492.3 268.3 541.7 284.7 590.8 282.8C640 281 689 261 738.2 247.7C787.3 234.3 836.7 227.7 886 234.7C935.3 241.7 984.7 262.3 1034 265.8C1083.3 269.3 1132.7 255.7 1181.8 252.2C1231 248.7 1280 255.3 1329.2 262.3C1378.3 269.3 1427.7 276.7 1477 288.5C1526.3 300.3 1575.7 316.7 1624.8 320.2C1674 323.7 1723 314.3 1772.2 305.2C1821.3 296 1870.7 287 1895.3 282.5L1920 278L1920 0L1895.3 0C1870.7 0 1821.3 0 1772.2 0C1723 0 1674 0 1624.8 0C1575.7 0 1526.3 0 1477 0C1427.7 0 1378.3 0 1329.2 0C1280 0 1231 0 1181.8 0C1132.7 0 1083.3 0 1034 0C984.7 0 935.3 0 886 0C836.7 0 787.3 0 738.2 0C689 0 640 0 590.8 0C541.7 0 492.3 0 443 0C393.7 0 344.3 0 295.2 0C246 0 197 0 147.8 0C98.7 0 49.3 0 24.7 0L0 0Z" fill="#bfbfbf"></path><path d="M0 188L24.7 197.8C49.3 207.7 98.7 227.3 147.8 232.5C197 237.7 246 228.3 295.2 233.7C344.3 239 393.7 259 443 254.8C492.3 250.7 541.7 222.3 590.8 221.2C640 220 689 246 738.2 247.3C787.3 248.7 836.7 225.3 886 223.3C935.3 221.3 984.7 240.7 1034 254C1083.3 267.3 1132.7 274.7 1181.8 262C1231 249.3 1280 216.7 1329.2 212.7C1378.3 208.7 1427.7 233.3 1477 237C1526.3 240.7 1575.7 223.3 1624.8 221.5C1674 219.7 1723 233.3 1772.2 230.3C1821.3 227.3 1870.7 207.7 1895.3 197.8L1920 188L1920 0L1895.3 0C1870.7 0 1821.3 0 1772.2 0C1723 0 1674 0 1624.8 0C1575.7 0 1526.3 0 1477 0C1427.7 0 1378.3 0 1329.2 0C1280 0 1231 0 1181.8 0C1132.7 0 1083.3 0 1034 0C984.7 0 935.3 0 886 0C836.7 0 787.3 0 738.2 0C689 0 640 0 590.8 0C541.7 0 492.3 0 443 0C393.7 0 344.3 0 295.2 0C246 0 197 0 147.8 0C98.7 0 49.3 0 24.7 0L0 0Z" fill="#969596"></path><path d="M0 177L24.7 170.3C49.3 163.7 98.7 150.3 147.8 155.3C197 160.3 246 183.7 295.2 187.2C344.3 190.7 393.7 174.3 443 177.8C492.3 181.3 541.7 204.7 590.8 205.5C640 206.3 689 184.7 738.2 176.8C787.3 169 836.7 175 886 170.5C935.3 166 984.7 151 1034 157C1083.3 163 1132.7 190 1181.8 191.3C1231 192.7 1280 168.3 1329.2 164.7C1378.3 161 1427.7 178 1477 186.2C1526.3 194.3 1575.7 193.7 1624.8 187.8C1674 182 1723 171 1772.2 163.8C1821.3 156.7 1870.7 153.3 1895.3 151.7L1920 150L1920 0L1895.3 0C1870.7 0 1821.3 0 1772.2 0C1723 0 1674 0 1624.8 0C1575.7 0 1526.3 0 1477 0C1427.7 0 1378.3 0 1329.2 0C1280 0 1231 0 1181.8 0C1132.7 0 1083.3 0 1034 0C984.7 0 935.3 0 886 0C836.7 0 787.3 0 738.2 0C689 0 640 0 590.8 0C541.7 0 492.3 0 443 0C393.7 0 344.3 0 295.2 0C246 0 197 0 147.8 0C98.7 0 49.3 0 24.7 0L0 0Z" fill="#6f6e6f"></path><path d="M0 177L24.7 173.5C49.3 170 98.7 163 147.8 158.7C197 154.3 246 152.7 295.2 155.2C344.3 157.7 393.7 164.3 443 157.5C492.3 150.7 541.7 130.3 590.8 128.8C640 127.3 689 144.7 738.2 145.3C787.3 146 836.7 130 886 123.3C935.3 116.7 984.7 119.3 1034 119.7C1083.3 120 1132.7 118 1181.8 119.8C1231 121.7 1280 127.3 1329.2 132.5C1378.3 137.7 1427.7 142.3 1477 138.7C1526.3 135 1575.7 123 1624.8 124.2C1674 125.3 1723 139.7 1772.2 148.3C1821.3 157 1870.7 160 1895.3 161.5L1920 163L1920 0L1895.3 0C1870.7 0 1821.3 0 1772.2 0C1723 0 1674 0 1624.8 0C1575.7 0 1526.3 0 1477 0C1427.7 0 1378.3 0 1329.2 0C1280 0 1231 0 1181.8 0C1132.7 0 1083.3 0 1034 0C984.7 0 935.3 0 886 0C836.7 0 787.3 0 738.2 0C689 0 640 0 590.8 0C541.7 0 492.3 0 443 0C393.7 0 344.3 0 295.2 0C246 0 197 0 147.8 0C98.7 0 49.3 0 24.7 0L0 0Z" fill="#4b494b"></path><path d="M0 96L24.7 98.7C49.3 101.3 98.7 106.7 147.8 102.3C197 98 246 84 295.2 86.8C344.3 89.7 393.7 109.3 443 119.5C492.3 129.7 541.7 130.3 590.8 125.3C640 120.3 689 109.7 738.2 104C787.3 98.3 836.7 97.7 886 95.7C935.3 93.7 984.7 90.3 1034 92.3C1083.3 94.3 1132.7 101.7 1181.8 102.3C1231 103 1280 97 1329.2 90.5C1378.3 84 1427.7 77 1477 71.7C1526.3 66.3 1575.7 62.7 1624.8 66.5C1674 70.3 1723 81.7 1772.2 82.3C1821.3 83 1870.7 73 1895.3 68L1920 63L1920 0L1895.3 0C1870.7 0 1821.3 0 1772.2 0C1723 0 1674 0 1624.8 0C1575.7 0 1526.3 0 1477 0C1427.7 0 1378.3 0 1329.2 0C1280 0 1231 0 1181.8 0C1132.7 0 1083.3 0 1034 0C984.7 0 935.3 0 886 0C836.7 0 787.3 0 738.2 0C689 0 640 0 590.8 0C541.7 0 492.3 0 443 0C393.7 0 344.3 0 295.2 0C246 0 197 0 147.8 0C98.7 0 49.3 0 24.7 0L0 0Z" fill="#292729"></path><path d="M0 36L24.7 35.2C49.3 34.3 98.7 32.7 147.8 36.3C197 40 246 49 295.2 56.2C344.3 63.3 393.7 68.7 443 65.3C492.3 62 541.7 50 590.8 49.7C640 49.3 689 60.7 738.2 67C787.3 73.3 836.7 74.7 886 74.3C935.3 74 984.7 72 1034 65.5C1083.3 59 1132.7 48 1181.8 40.3C1231 32.7 1280 28.3 1329.2 33.3C1378.3 38.3 1427.7 52.7 1477 62.7C1526.3 72.7 1575.7 78.3 1624.8 77.8C1674 77.3 1723 70.7 1772.2 69.8C1821.3 69 1870.7 74 1895.3 76.5L1920 79L1920 0L1895.3 0C1870.7 0 1821.3 0 1772.2 0C1723 0 1674 0 1624.8 0C1575.7 0 1526.3 0 1477 0C1427.7 0 1378.3 0 1329.2 0C1280 0 1231 0 1181.8 0C1132.7 0 1083.3 0 1034 0C984.7 0 935.3 0 886 0C836.7 0 787.3 0 738.2 0C689 0 640 0 590.8 0C541.7 0 492.3 0 443 0C393.7 0 344.3 0 295.2 0C246 0 197 0 147.8 0C98.7 0 49.3 0 24.7 0L0 0Z" fill="#050005"></path></svg>