<svg width="48" height="54" viewBox="0 0 48 54" fill="none" xmlns="http://www.w3.org/2000/svg">
<path d="M18.0709 27.0007V43.2685L31.6901 35.1346L18.0709 27.0007Z" fill="#FF00FF"/>
<path d="M43.3638 53.4359H4.45175C3.42006 53.4349 2.43091 53.006 1.70139 52.2436C0.971873 51.4811 0.561577 50.4473 0.560547 49.369V20.9003C0.561577 19.822 0.971873 18.7882 1.70139 18.0257C2.43091 17.2633 3.42006 16.8344 4.45175 16.8334H43.3638C44.3955 16.8344 45.3847 17.2633 46.1142 18.0257C46.8437 18.7882 47.254 19.822 47.255 20.9003V49.369C47.254 50.4473 46.8437 51.4811 46.1142 52.2436C45.3847 53.006 44.3955 53.4349 43.3638 53.4359ZM4.45175 20.9003V49.369H43.3638V20.9003H4.45175ZM4.45175 8.69946H43.3638V12.7664H4.45175V8.69946ZM8.34296 0.565552H39.4726V4.6325H8.34296V0.565552Z" fill="#FF00FF"/>
</svg>
