<svg width="63" height="58" viewBox="0 0 63 58" fill="none" xmlns="http://www.w3.org/2000/svg">
<path d="M50.8706 18.988C50.214 18.7592 49.5573 18.5432 48.9007 18.3398C49.0101 17.8696 49.1074 17.3993 49.2047 16.9291C50.7004 9.35438 49.7154 3.26666 46.3957 1.2586C43.1976 -0.66049 37.981 1.33486 32.7035 6.13895C32.1807 6.60919 31.6699 7.10485 31.1835 7.60051C30.8552 7.27007 30.5147 6.93963 30.1743 6.6219C24.6414 1.48737 19.0965 -0.673199 15.7768 1.34757C12.5909 3.27937 11.6424 9.01123 12.98 16.1792C13.1137 16.891 13.2597 17.59 13.4299 18.3017C12.6517 18.5304 11.8856 18.7846 11.1681 19.0515C4.67468 21.4027 0.017395 25.1138 0.017395 28.952C0.017395 32.9173 4.97869 36.8953 11.7275 39.31C12.2747 39.5007 12.8219 39.6913 13.3813 39.8565C13.1989 40.6191 13.0408 41.3689 12.8949 42.1442C11.6181 49.1978 12.6152 54.7899 15.8011 56.709C19.0843 58.6916 24.605 56.6581 29.9797 51.7397C30.4053 51.3457 30.8309 50.939 31.2565 50.5069C31.7915 51.0534 32.3509 51.5744 32.9103 52.0828C38.1148 56.7598 43.2584 58.6535 46.4322 56.7344C49.7154 54.7517 50.7855 48.7403 49.3993 41.4198C49.2898 40.8606 49.1682 40.2886 49.0345 39.704C49.4236 39.5896 49.8005 39.4625 50.1775 39.3354C57.1938 36.908 62.2767 32.9808 62.2767 28.952C62.2767 25.1011 57.4857 21.3646 50.8706 18.988ZM34.4181 8.19784C38.9416 4.08005 43.1612 2.46598 45.0824 3.62252C47.1375 4.85531 47.9279 9.83733 46.6389 16.3826C46.5538 16.8147 46.4687 17.2341 46.3592 17.6535C43.6597 17.018 40.9237 16.5605 38.1756 16.3063C36.5947 13.9424 34.868 11.6802 32.9954 9.55773C33.4696 9.08749 33.9317 8.64266 34.4181 8.19784ZM20.349 35.5481C20.9691 36.6538 21.6014 37.7595 22.2702 38.8398C20.3733 38.6237 18.4885 38.306 16.628 37.8866C17.163 36.0565 17.8318 34.1628 18.6101 32.231C19.1694 33.3494 19.741 34.4551 20.349 35.5481ZM16.6645 20.2589C18.4155 19.8522 20.276 19.5218 22.2094 19.2676C21.565 20.3224 20.9326 21.4027 20.3368 22.4957C19.741 23.576 19.1573 24.6817 18.6101 25.8001C17.844 23.9064 17.1995 22.0509 16.6645 20.2589ZM19.9963 29.0156C20.7989 27.2617 21.6744 25.5459 22.5986 23.8556C23.5227 22.1653 24.5198 20.5258 25.5656 18.9117C27.3896 18.7719 29.2501 18.6957 31.1471 18.6957C33.044 18.6957 34.9167 18.7719 36.7285 18.9117C37.7621 20.5131 38.7471 22.1526 39.6834 23.8302C40.6197 25.5078 41.4952 27.2236 42.3221 28.9647C41.5074 30.7186 40.6319 32.447 39.6956 34.1501C38.7714 35.8404 37.7864 37.4799 36.7528 39.1067C34.941 39.2465 33.0562 39.31 31.1471 39.31C29.2379 39.31 27.3896 39.2465 25.6021 39.1321C24.5442 37.518 23.547 35.8658 22.6107 34.1755C21.6744 32.4852 20.811 30.7694 19.9963 29.0156ZM41.9573 35.5227C42.5775 34.4043 43.1612 33.2731 43.7327 32.1293C44.5109 33.9722 45.1919 35.8404 45.7877 37.7595C43.9029 38.2043 41.9938 38.5475 40.0725 38.7762C40.7292 37.7087 41.3493 36.6157 41.9573 35.5227ZM43.7084 25.8001C43.1368 24.6817 42.5532 23.5633 41.9452 22.4703C41.3493 21.39 40.7292 20.3224 40.0847 19.2676C42.0424 19.5218 43.9151 19.8649 45.6661 20.2843C45.1068 22.1653 44.4501 23.9954 43.7084 25.8001ZM31.1714 11.5022C32.4482 12.9511 33.652 14.4762 34.7707 16.0521C32.3631 15.9378 29.9432 15.9378 27.5355 16.0521C28.7272 14.4127 29.9554 12.8875 31.1714 11.5022ZM17.0658 3.71148C19.1086 2.46598 23.6443 4.24527 28.4232 8.66808C28.7272 8.94769 29.0312 9.25271 29.3474 9.55773C27.4626 11.6802 25.7237 13.9424 24.1307 16.3063C21.3826 16.5605 18.6587 17.0053 15.9592 17.6281C15.8011 16.9799 15.6673 16.319 15.5336 15.6582C14.3905 9.50689 15.1445 4.86802 17.0658 3.71148ZM14.0865 37.213C13.5758 37.0605 13.0773 36.8953 12.5787 36.7173C9.98862 35.8658 7.04589 34.5187 4.91788 32.7521C3.68972 31.8624 2.86284 30.4898 2.6318 28.952C2.6318 26.6262 6.47437 23.6523 12.0193 21.6315C12.7125 21.3773 13.4177 21.1485 14.123 20.9325C14.9499 23.6904 15.947 26.3975 17.1022 29.0156C15.9349 31.6718 14.9256 34.417 14.0865 37.213ZM28.2651 49.668C26.2587 51.5871 23.9362 53.1122 21.4069 54.1544C20.0571 54.828 18.5006 54.8915 17.1144 54.3196C15.1809 53.1504 14.3784 48.664 15.4728 42.6271C15.6065 41.9154 15.7525 41.2037 15.9227 40.5047C18.6466 41.1147 21.3947 41.5341 24.1794 41.7502C25.7845 44.1268 27.5477 46.4018 29.4325 48.5369C29.0434 48.9309 28.6543 49.3122 28.2651 49.668ZM31.2443 46.5797C30.004 45.1817 28.7637 43.6312 27.5599 41.9663C28.7272 42.0171 29.9311 42.0425 31.1471 42.0425C32.3995 42.0425 33.6277 42.0171 34.8437 41.9535C33.725 43.5676 32.5211 45.1054 31.2443 46.5797ZM47.1375 50.3925C47.028 51.943 46.2985 53.3919 45.1311 54.3705C43.1976 55.5397 39.0754 54.0146 34.6248 50.0239C34.1141 49.5664 33.6034 49.0707 33.0805 48.5623C34.941 46.4145 36.6556 44.1395 38.212 41.7502C40.9967 41.5087 43.7692 41.0639 46.5052 40.4157C46.6268 40.9368 46.7362 41.4579 46.8335 41.9663C47.4293 44.7114 47.5266 47.571 47.1375 50.3925ZM49.3506 36.7301C49.0101 36.8444 48.6697 36.9588 48.317 37.0605C47.4658 34.2899 46.4201 31.5828 45.2162 28.952C46.3836 26.3593 47.3685 23.6904 48.1954 20.9579C48.8277 21.1485 49.4357 21.3519 50.0194 21.5552C55.686 23.5887 59.6623 26.6135 59.6623 28.9266C59.6623 31.4176 55.4185 34.633 49.3506 36.7301ZM31.1471 34.8237C34.2235 34.8237 36.7163 32.2183 36.7163 29.0028C36.7163 25.7874 34.2235 23.182 31.1471 23.182C28.0706 23.182 25.5778 25.7874 25.5778 29.0028C25.5778 32.2183 28.0706 34.8237 31.1471 34.8237Z" fill="#FF00FF"/>
</svg>
