<svg width="51" height="56" viewBox="0 0 51 56" fill="none" xmlns="http://www.w3.org/2000/svg">
<path d="M46.8737 12.554L28.7212 3.68673C27.7351 3.20502 26.6599 2.95525 25.5715 2.95502C24.483 2.95478 23.4077 3.20409 22.4214 3.68537L4.44011 12.4564C3.92684 12.7067 3.49255 13.1049 3.18823 13.6042C2.8839 14.1034 2.72218 14.6831 2.72205 15.2751C2.72191 15.8671 2.88337 16.4468 3.18746 16.9462C3.49155 17.4456 3.92566 17.844 4.43881 18.0946L22.5913 26.9619C23.5773 27.4438 24.6524 27.6938 25.7409 27.6943C26.8294 27.6948 27.9048 27.4457 28.8912 26.9646L46.8724 18.1922C47.3857 17.9419 47.82 17.5437 48.1243 17.0444C48.4286 16.5452 48.5904 15.9655 48.5905 15.3735C48.5906 14.7816 48.4292 14.2018 48.1251 13.7024C47.821 13.203 47.3869 12.8046 46.8737 12.554Z" stroke="#FF00FF" stroke-width="4" stroke-linecap="round" stroke-linejoin="round"/>
<path d="M11.683 21.6328L4.44015 25.1656C3.92652 25.4158 3.49188 25.814 3.1873 26.3134C2.88271 26.8128 2.72084 27.3927 2.7207 27.985C2.72057 28.5772 2.88217 29.1572 3.18653 29.6568C3.49088 30.1563 3.92534 30.5547 4.43886 30.8051L22.5913 39.6711C23.5774 40.153 24.6525 40.403 25.741 40.4035C26.8295 40.404 27.9048 40.1549 28.8912 39.6738L46.8725 30.9028C47.3858 30.6524 47.82 30.2543 48.1244 29.755C48.4287 29.2557 48.5904 28.6761 48.5906 28.0841C48.5907 27.4921 48.4292 26.9124 48.1251 26.413C47.821 25.9136 47.3869 25.5152 46.8738 25.2646L39.6296 21.7264" stroke="#FF00FF" stroke-width="4" stroke-linecap="round" stroke-linejoin="round"/>
<path d="M11.683 34.3434L4.44015 37.8763C3.92652 38.1264 3.49188 38.5246 3.1873 39.024C2.88271 39.5234 2.72084 40.1033 2.7207 40.6956C2.72057 41.2878 2.88217 41.8678 3.18653 42.3674C3.49088 42.867 3.92534 43.2654 4.43886 43.5158L22.5913 52.3817C23.5774 52.8634 24.6526 53.1132 25.7411 53.1134C26.8296 53.1137 27.9049 52.8644 28.8912 52.3831L46.8725 43.612C47.3858 43.3617 47.82 42.9636 48.1244 42.4643C48.4287 41.965 48.5904 41.3854 48.5906 40.7934C48.5907 40.2014 48.4292 39.6217 48.1251 39.1223C47.821 38.6228 47.3869 38.2245 46.8738 37.9739L39.6296 34.4356" stroke="#FF00FF" stroke-width="4" stroke-linecap="round" stroke-linejoin="round"/>
</svg>
