<svg width="811" height="764" viewBox="0 0 811 764" fill="none" xmlns="http://www.w3.org/2000/svg">
<path d="M370.959 464.111L424.632 479.388C445.6 485.355 465.167 466.39 459.855 445.244L446.252 391.123C440.939 369.977 414.724 362.52 399.069 377.693L359.004 416.537C343.343 431.715 349.99 458.143 370.959 464.111Z" stroke="#293DFF" stroke-width="0.552088" stroke-miterlimit="10"/>
<path d="M364.375 471.096L433.661 486.362C455.109 491.748 474.344 471.892 468.285 450.625L446.863 382.991C440.799 361.723 413.988 354.995 398.599 370.877L350.735 423.251C335.347 439.127 342.922 465.71 364.375 471.096Z" stroke="#4051FF" stroke-width="0.552088" stroke-miterlimit="10"/>
<path d="M357.793 478.076L442.697 493.325C464.632 498.124 483.529 477.385 476.725 455.99L447.484 374.836C440.674 353.441 413.263 347.441 398.138 364.038L342.482 429.937C327.345 446.539 335.859 473.278 357.793 478.076Z" stroke="#5764FF" stroke-width="0.552088" stroke-miterlimit="10"/>
<path d="M351.203 485.061L451.72 500.299C474.133 504.516 492.705 482.888 485.143 461.37L448.083 366.703C440.527 345.186 412.509 339.915 397.656 357.222L334.2 436.65C319.348 453.951 328.796 480.845 351.203 485.061Z" stroke="#6E78FF" stroke-width="0.552088" stroke-miterlimit="10"/>
<path d="M344.62 492.042L460.754 507.27C483.648 510.899 501.887 488.387 493.581 466.741L448.702 358.555C440.4 336.917 411.781 332.374 397.193 350.39L325.944 443.349C311.345 461.364 321.726 488.413 344.62 492.042Z" stroke="#848CFF" stroke-width="0.552088" stroke-miterlimit="10"/>
<path d="M338.038 499.028L469.785 514.238C493.158 517.286 511.066 493.884 502.014 472.117L449.316 350.411C440.264 328.645 411.048 324.837 396.72 343.562L317.672 450.051C303.35 468.777 314.664 495.981 338.038 499.028Z" stroke="#9B9FFF" stroke-width="0.552088" stroke-miterlimit="10"/>
<path d="M331.538 505.276L478.903 520.476C502.757 522.935 520.333 498.65 510.534 476.762L450.017 341.543C440.219 319.655 410.402 316.576 396.341 336.004L309.493 456.022C295.437 475.451 307.679 502.816 331.538 505.276Z" stroke="#B2B3FF" stroke-width="0.552088" stroke-miterlimit="10"/>
<path d="M332.022 508.146L481.913 518.865C506.176 520.599 523.223 495.42 512.591 473.536L446.931 338.365C436.298 316.481 405.971 314.314 392.334 334.463L308.102 458.915C294.472 479.059 307.758 506.412 332.022 508.146Z" stroke="#94A0FD" stroke-width="0.552088" stroke-miterlimit="10"/>
<path d="M332.513 511.018L484.937 517.256C509.61 518.265 526.129 492.186 514.662 470.313L443.852 335.189C432.391 313.316 401.547 312.054 388.336 332.918L306.722 461.798C293.51 482.662 307.835 510.009 332.513 511.018Z" stroke="#778CFC" stroke-width="0.552088" stroke-miterlimit="10"/>
<path d="M332.996 513.889L487.947 515.646C513.029 515.929 529.019 488.957 516.724 467.088L440.771 332.018C428.475 310.149 397.121 309.799 384.329 331.378L305.331 464.691C292.545 486.27 307.914 513.606 332.996 513.889Z" stroke="#5979FA" stroke-width="0.552088" stroke-miterlimit="10"/>
<path d="M333.481 516.759L490.964 514.036C516.455 513.593 531.911 485.721 518.787 463.863L437.691 328.841C424.561 306.983 392.697 307.531 380.33 329.831L303.949 467.578C291.581 489.878 307.99 517.195 333.481 516.759Z" stroke="#3B66F8" stroke-width="0.552088" stroke-miterlimit="10"/>
<path d="M333.97 519.629L493.979 512.425C519.88 511.256 534.808 482.491 520.85 460.638L434.61 325.663C420.652 303.816 388.272 305.27 376.329 328.285L302.56 470.458C290.617 493.479 308.064 520.791 333.97 519.629Z" stroke="#1E52F7" stroke-width="0.552088" stroke-miterlimit="10"/>
<path d="M334.454 522.5L496.996 510.815C523.307 508.921 537.706 479.256 522.913 457.413L431.524 322.492C416.731 300.649 383.84 303.014 372.323 326.745L301.17 473.351C289.653 497.088 308.144 524.388 334.454 522.5Z" stroke="#003FF5" stroke-width="0.552088" stroke-miterlimit="10"/>
<path d="M335.96 524.961L500.385 507.944C527.002 505.19 540.655 474.65 524.959 452.977L428.006 319.092C412.311 297.419 379.039 300.859 368.116 325.293L300.644 476.2C289.729 500.622 309.343 527.716 335.96 524.961Z" stroke="#0843F7" stroke-width="0.552088" stroke-miterlimit="10"/>
<path d="M337.472 527.424L503.779 505.069C530.705 501.448 543.609 470.045 527.018 448.536L424.501 315.689C407.905 294.179 374.25 298.706 363.922 323.83L300.125 479.038C289.804 504.157 310.547 531.039 337.472 527.424Z" stroke="#0F47F8" stroke-width="0.552088" stroke-miterlimit="10"/>
<path d="M338.979 529.886L507.174 502.193C534.401 497.71 546.564 465.433 529.071 444.094L420.985 312.277C403.486 290.937 369.457 296.545 359.722 322.367L299.608 481.87C289.88 507.692 311.752 534.368 338.979 529.886Z" stroke="#174CFA" stroke-width="0.552088" stroke-miterlimit="10"/>
<path d="M340.485 532.346L510.563 499.315C538.098 493.966 549.513 460.82 531.118 439.65L417.474 308.872C399.079 287.702 364.662 294.384 355.522 320.903L299.089 484.706C289.955 511.226 312.95 537.689 340.485 532.346Z" stroke="#1E50FC" stroke-width="0.552088" stroke-miterlimit="10"/>
<path d="M341.99 534.809L513.95 496.445C541.786 490.235 552.461 456.214 533.163 435.214L413.963 305.468C394.665 284.468 359.867 292.231 351.328 319.441L298.576 487.545C290.029 514.767 314.154 541.019 341.99 534.809Z" stroke="#2554FD" stroke-width="0.552088" stroke-miterlimit="10"/>
<path d="M343.497 537.271L517.345 493.57C545.489 486.493 555.416 451.61 535.223 430.774L410.451 302.071C390.252 281.234 355.072 290.077 347.127 317.991L298.05 490.395C290.105 518.303 315.358 544.349 343.497 537.271Z" stroke="#2D58FF" stroke-width="0.552088" stroke-miterlimit="10"/>
<path d="M346.171 539.87L521.042 490.029C549.348 481.958 558.309 446.274 537.168 425.794L406.567 299.277C385.426 278.797 350.037 288.882 342.872 317.434L298.602 493.797C291.431 522.336 317.859 547.935 346.171 539.87Z" stroke="#4167FF" stroke-width="0.552088" stroke-miterlimit="10"/>
<path d="M348.842 542.469L524.729 486.481C553.204 477.416 561.188 440.93 539.105 420.8L402.68 296.471C380.592 276.341 345.001 287.669 338.615 316.865L299.152 497.181C292.76 526.37 320.368 551.528 348.842 542.469Z" stroke="#5576FF" stroke-width="0.552088" stroke-miterlimit="10"/>
<path d="M351.518 545.068L528.428 482.942C557.07 472.883 564.083 435.595 541.053 415.821L398.792 293.672C375.762 273.898 339.962 286.469 334.356 316.302L299.7 500.577C294.095 530.405 322.876 555.121 351.518 545.068Z" stroke="#6A85FF" stroke-width="0.552088" stroke-miterlimit="10"/>
<path d="M354.193 547.67L532.125 479.403C560.93 468.35 566.971 430.26 542.999 410.843L394.908 290.881C370.936 271.463 334.928 285.276 330.095 315.747L300.247 503.975C295.421 534.446 325.389 558.723 354.193 547.67Z" stroke="#7E95FF" stroke-width="0.552088" stroke-miterlimit="10"/>
<path d="M356.863 550.269L535.817 475.863C564.79 463.816 569.853 424.931 544.939 405.864L391.019 288.088C366.1 269.02 329.889 284.076 325.836 315.191L300.795 507.378C296.749 538.481 327.896 562.317 356.863 550.269Z" stroke="#92A4FF" stroke-width="0.552088" stroke-miterlimit="10"/>
<path d="M360.515 552.981L540.492 472.429C569.627 459.387 573.724 419.701 547.863 400.99L388.113 285.401C362.252 266.69 325.832 282.988 322.559 314.74L302.325 510.88C299.053 542.627 331.374 566.021 360.515 552.981Z" stroke="#A6B3FF" stroke-width="0.552088" stroke-miterlimit="10"/>
<path d="M364.638 555.829L544.978 468.143C574.009 454.059 576.908 413.829 550.193 395.731L384.085 283.399C357.37 265.302 321.086 282.906 318.765 315.087L304.533 515.105C302.217 547.293 335.608 569.913 364.638 555.829Z" stroke="#9DAFFF" stroke-width="0.552088" stroke-miterlimit="10"/>
<path d="M368.767 558.687L549.464 463.866C578.391 448.739 580.091 407.972 552.529 390.482L380.063 281.401C352.5 263.918 316.341 282.827 314.983 315.438L306.752 519.34C305.388 551.957 339.841 573.815 368.767 558.687Z" stroke="#94AAFF" stroke-width="0.552088" stroke-miterlimit="10"/>
<path d="M372.896 561.539L553.957 459.577C582.779 443.407 583.281 402.096 554.865 385.226L376.034 279.402C347.617 262.532 311.594 282.747 311.188 315.793L308.959 523.573C308.552 556.62 344.074 577.709 372.896 561.539Z" stroke="#8BA6FF" stroke-width="0.552088" stroke-miterlimit="10"/>
<path d="M377.019 564.388L558.437 455.291C587.149 438.071 586.457 396.23 557.194 379.968L372.005 277.401C342.735 261.144 306.842 282.665 307.4 316.141L311.171 527.806C311.723 561.282 348.306 581.608 377.019 564.388Z" stroke="#81A2FF" stroke-width="0.552088" stroke-miterlimit="10"/>
<path d="M381.149 567.245L562.931 451.007C591.539 432.744 589.649 390.361 559.532 374.718L367.977 275.407C337.86 259.765 302.097 282.59 303.607 316.496L313.38 532.038C314.895 565.951 352.542 585.502 381.149 567.245Z" stroke="#789DFF" stroke-width="0.552088" stroke-miterlimit="10"/>
<path d="M385.278 570.096L567.417 446.723C595.92 427.417 592.832 384.496 561.861 369.461L363.949 273.407C332.977 258.378 297.351 282.51 299.818 316.845L315.586 536.271C318.059 570.613 356.774 589.402 385.278 570.096Z" stroke="#6F99FF" stroke-width="0.552088" stroke-miterlimit="10"/>
<path d="M390.353 573.765L572.946 441.089C600.815 421.007 596.5 378.281 565.17 364.187L358.969 272.394C327.64 258.294 292.805 283.398 296.259 317.579L319.867 542.049C323.322 576.224 362.477 593.846 390.353 573.765Z" stroke="#639CFA" stroke-width="0.552088" stroke-miterlimit="10"/>
<path d="M395.428 577.428L578.475 435.441C605.716 414.584 600.162 372.057 568.48 358.893L353.992 271.361C322.309 258.197 288.253 284.273 292.701 318.295L324.142 547.813C328.577 581.834 368.181 598.284 395.428 577.428Z" stroke="#589FF5" stroke-width="0.552088" stroke-miterlimit="10"/>
<path d="M400.496 581.094L583.999 429.797C610.611 408.165 603.818 365.838 571.783 353.609L349.007 270.339C316.965 258.109 283.702 285.152 289.131 319.013L328.404 553.58C333.84 587.442 373.89 602.727 400.496 581.094Z" stroke="#4CA2F1" stroke-width="0.552088" stroke-miterlimit="10"/>
<path d="M405.57 584.763L589.528 424.157C615.505 401.749 607.486 359.616 575.085 348.322L344.022 269.312C311.628 258.019 279.149 286.033 285.566 319.735L332.672 559.35C339.095 593.052 379.593 607.171 405.57 584.763Z" stroke="#40A5EC" stroke-width="0.552088" stroke-miterlimit="10"/>
<path d="M410.645 588.432L595.057 418.522C620.406 395.339 611.148 353.405 578.394 343.047L339.038 268.292C306.284 257.933 274.598 286.914 282.002 320.462L336.941 565.126C344.358 598.669 385.297 611.615 410.645 588.432Z" stroke="#35A8E7" stroke-width="0.552088" stroke-miterlimit="10"/>
<path d="M415.721 592.093L600.588 412.873C625.302 388.908 614.811 347.175 581.705 337.752L334.061 267.258C300.948 257.835 270.054 287.788 278.445 321.176L341.217 570.889C349.614 604.278 391.006 616.059 415.721 592.093Z" stroke="#29ABE2" stroke-width="0.552088" stroke-miterlimit="10"/>
<path d="M421.771 596.025L605.013 406.34C628.974 381.721 617.3 340.398 584.003 331.954L328.11 268.103C294.813 259.659 264.857 290.429 274.199 323.492L346.85 577.028C356.187 610.084 397.811 620.638 421.771 596.025Z" stroke="#22A1DC" stroke-width="0.552088" stroke-miterlimit="10"/>
<path d="M427.829 599.954L609.446 399.803C632.653 374.531 619.797 333.616 586.308 326.157L322.166 268.95C288.677 261.491 259.672 293.078 269.954 325.809L352.478 583.168C362.76 615.899 404.621 625.226 427.829 599.954Z" stroke="#1B98D5" stroke-width="0.552088" stroke-miterlimit="10"/>
<path d="M433.881 603.881L613.873 393.264C636.321 367.338 622.288 326.834 588.608 320.354L316.212 269.783C282.538 263.303 254.472 295.713 265.704 328.119L358.107 589.307C369.334 621.707 411.433 629.807 433.881 603.881Z" stroke="#158ECF" stroke-width="0.552088" stroke-miterlimit="10"/>
<path d="M439.932 607.808L618.299 386.726C639.994 360.146 624.778 320.052 590.907 314.55L310.263 270.622C276.397 265.127 249.282 298.349 261.452 330.429L363.73 595.439C375.906 627.52 418.237 634.387 439.932 607.808Z" stroke="#0E84C9" stroke-width="0.552088" stroke-miterlimit="10"/>
<path d="M445.983 611.74L622.725 380.193C643.66 352.959 627.263 313.268 593.212 308.759L304.32 271.468C270.263 266.952 244.092 300.996 257.214 332.746L369.364 601.579C382.48 633.334 425.048 638.974 445.983 611.74Z" stroke="#077BC2" stroke-width="0.552088" stroke-miterlimit="10"/>
<path d="M451.874 617.145L626.99 375.138C647.173 347.245 629.592 307.97 595.35 304.439L298.203 273.79C263.96 270.26 238.735 305.122 252.795 336.545L374.825 609.201C388.886 640.618 431.692 645.032 451.874 617.145Z" stroke="#0071BC" stroke-width="0.552088" stroke-miterlimit="10"/>
<path d="M458.805 621.696L629.774 368.432C649.094 340.027 630.426 301.358 596.163 298.825L291.341 277.397C257.084 274.866 232.928 310.367 247.865 341.304L381.718 616.002C396.661 646.932 439.485 650.1 458.805 621.696Z" stroke="#0071BC" stroke-width="0.552088" stroke-miterlimit="10"/>
<path d="M465.744 626.248L632.566 361.727C651.03 332.812 631.268 294.747 596.991 293.213L284.493 281C250.216 279.467 227.135 315.615 242.949 346.064L388.625 622.798C404.438 653.247 447.28 655.163 465.744 626.248Z" stroke="#0071BC" stroke-width="0.552088" stroke-miterlimit="10"/>
<path d="M472.681 630.8L635.355 355.021C652.964 325.589 632.108 288.135 597.816 287.606L277.642 284.615C243.351 284.08 221.346 320.869 238.029 350.836L395.523 629.605C412.212 659.567 455.073 660.232 472.681 630.8Z" stroke="#0071BC" stroke-width="0.552088" stroke-miterlimit="10"/>
<path d="M479.613 635.351L638.14 348.315C654.886 318.372 632.943 281.523 598.637 281.993L270.787 288.223C236.481 288.693 215.546 326.122 233.106 355.595L402.422 636.407C419.982 665.88 462.867 665.294 479.613 635.351Z" stroke="#0071BC" stroke-width="0.552088" stroke-miterlimit="10"/>
<path d="M486.552 639.903L640.937 341.61C656.828 311.151 633.784 274.919 599.464 276.381L263.939 291.826C229.619 293.295 209.754 331.363 228.19 360.355L409.329 643.203C427.759 672.194 470.662 670.357 486.552 639.903Z" stroke="#0071BC" stroke-width="0.552088" stroke-miterlimit="10"/>
<path d="M493.49 644.456L643.728 334.905C658.757 303.934 634.625 268.308 600.29 270.775L257.09 295.435C222.755 297.902 203.966 336.617 223.273 365.121L416.235 650.006C435.535 678.509 478.455 675.426 493.49 644.456Z" stroke="#0071BC" stroke-width="0.552088" stroke-miterlimit="10"/>
<path d="M501.234 649.198L644.407 328.085C658.507 296.755 633.403 261.92 599.222 265.375L249.542 301.941C215.361 305.396 197.744 344.558 217.826 372.428L424.331 656.98C444.413 684.849 487.14 680.528 501.234 649.198Z" stroke="#0866B5" stroke-width="0.552088" stroke-miterlimit="10"/>
<path d="M508.977 653.946L645.086 321.269C658.25 289.587 632.175 255.531 598.153 259.979L241.989 308.44C207.968 312.882 191.518 352.485 212.374 379.732L432.428 663.947C453.292 691.183 495.819 685.629 508.977 653.946Z" stroke="#0F5CAE" stroke-width="0.552088" stroke-miterlimit="10"/>
<path d="M516.726 658.695L645.776 314.456C658.006 282.415 630.963 249.151 597.102 254.581L234.454 314.942C200.592 320.371 185.308 360.422 206.94 387.034L440.537 670.917C462.17 697.523 504.497 690.736 516.726 658.695Z" stroke="#1751A7" stroke-width="0.552088" stroke-miterlimit="10"/>
<path d="M524.47 663.437L646.457 307.629C657.75 275.235 629.736 242.757 596.035 249.174L226.903 321.429C193.201 327.846 179.082 368.343 201.49 394.321L448.63 677.866C471.049 703.857 513.176 695.837 524.47 663.437Z" stroke="#1F46A0" stroke-width="0.552088" stroke-miterlimit="10"/>
<path d="M532.213 668.185L647.136 300.814C657.494 268.061 628.514 236.375 594.966 243.779L219.355 327.935C185.807 335.339 172.86 376.284 196.044 401.632L456.732 684.847C479.928 710.197 521.855 700.938 532.213 668.185Z" stroke="#263C99" stroke-width="0.552088" stroke-miterlimit="10"/>
<path d="M539.963 672.934L647.827 294.002C657.25 260.889 627.297 229.995 593.909 238.386L211.813 334.442C178.426 342.834 166.645 384.226 190.61 408.941L464.842 691.817C488.8 716.537 530.539 706.047 539.963 672.934Z" stroke="#2E3192" stroke-width="0.552088" stroke-miterlimit="10"/>
<path d="M548.435 676.204L645.996 286.009C654.44 252.711 623.67 222.755 590.607 232.098L203.913 342.7C170.857 352.037 160.303 393.661 184.916 417.621L474.05 697.208C498.668 721.175 539.991 709.501 548.435 676.204Z" stroke="#2B2C8A" stroke-width="0.552088" stroke-miterlimit="10"/>
<path d="M556.914 679.472L644.171 278.015C651.631 244.525 620.043 215.521 587.312 225.802L196.012 350.963C163.281 361.244 153.954 403.105 179.226 426.313L483.269 702.61C508.535 725.811 549.449 712.961 556.914 679.472Z" stroke="#282783" stroke-width="0.552088" stroke-miterlimit="10"/>
<path d="M565.387 682.735L642.348 270.015C648.827 236.341 616.417 208.274 584.011 219.506L188.106 359.219C155.7 370.445 147.606 412.545 173.532 434.993L492.477 708C518.403 730.448 558.907 716.415 565.387 682.735Z" stroke="#25237B" stroke-width="0.552088" stroke-miterlimit="10"/>
<path d="M573.868 686.004L640.525 262.022C646.019 228.156 612.798 201.041 580.717 213.211L180.213 367.477C148.139 379.648 141.265 421.985 167.845 443.673L501.693 713.39C528.272 735.091 568.367 719.869 573.868 686.004Z" stroke="#211E73" stroke-width="0.552088" stroke-miterlimit="10"/>
<path d="M582.34 689.273L638.693 254.028C643.209 219.971 609.164 193.8 577.415 206.922L172.305 375.74C140.556 388.856 134.91 431.424 162.149 452.366L510.899 718.792C538.139 739.728 577.824 723.33 582.34 689.273Z" stroke="#1E196C" stroke-width="0.552088" stroke-miterlimit="10"/>
<path d="M588.593 692.291L634.649 245.783C638.18 211.541 603.318 186.315 571.894 200.375L162.186 383.746C130.762 397.806 126.348 440.613 154.235 460.794L517.894 723.931C545.787 744.114 585.063 726.533 588.593 692.291Z" stroke="#1B1464" stroke-width="0.552088" stroke-miterlimit="10"/>
<path d="M596.757 693.437L629.054 236.69C631.586 202.433 596.084 178.277 565.148 193.214L153.449 393.619C122.513 408.556 119.351 451.381 147.748 470.706L527.151 727.048C555.555 746.368 594.226 727.694 596.757 693.437Z" stroke="#273276" stroke-width="0.552088" stroke-miterlimit="10"/>
<path d="M604.919 694.584L623.456 227.597C624.99 193.32 588.841 170.239 558.393 186.053L144.704 403.492C114.255 419.305 112.338 462.147 141.259 480.612L536.412 730.159C565.327 748.623 603.392 728.856 604.919 694.584Z" stroke="#345088" stroke-width="0.552088" stroke-miterlimit="10"/>
<path d="M613.083 695.73L617.859 218.509C618.394 184.218 581.605 162.213 551.638 178.896L135.965 413.37C106.004 430.054 105.339 472.92 134.771 490.522L545.674 733.27C575.1 750.878 612.554 730.022 613.083 695.73Z" stroke="#406E9A" stroke-width="0.552088" stroke-miterlimit="10"/>
<path d="M621.246 696.876L612.256 209.415C611.786 175.109 574.358 154.174 544.884 171.734L127.221 423.248C97.7475 440.808 98.3277 483.686 128.276 500.439L554.924 736.386C584.874 753.126 621.716 731.183 621.246 696.876Z" stroke="#4C8CAC" stroke-width="0.552088" stroke-miterlimit="10"/>
<path d="M629.41 698.023L606.66 200.322C605.191 166.001 567.123 146.137 538.131 164.573L118.483 433.122C89.492 451.551 91.3291 494.454 121.789 510.345L564.187 739.497C594.641 755.381 630.878 732.344 629.41 698.023Z" stroke="#59AABE" stroke-width="0.552088" stroke-miterlimit="10"/>
<path d="M637.573 699.168L601.063 191.228C598.596 156.893 559.881 138.103 531.377 157.41L109.739 442.999C81.2348 462.305 84.3235 505.226 115.294 520.261L573.442 742.612C604.414 757.635 640.04 733.503 637.573 699.168Z" stroke="#65C8D0" stroke-width="0.552088" stroke-miterlimit="10"/>
<path d="M645.416 697.648L591.602 181.314C588.148 147.132 548.985 129.515 521.116 149.597L100.863 454.369C72.9943 474.451 77.3091 517.177 108.639 531.271L582.705 742.833C614.029 756.932 648.87 731.829 645.416 697.648Z" stroke="#54D1D8" stroke-width="0.552088" stroke-miterlimit="10"/>
<path d="M653.25 696.134L582.127 171.406C577.685 137.385 538.081 120.934 510.835 141.791L91.9664 465.75C64.7259 486.608 70.2798 529.134 101.962 542.298L591.953 743.066C623.643 756.225 657.691 730.155 653.25 696.134Z" stroke="#43DAE0" stroke-width="0.552088" stroke-miterlimit="10"/>
<path d="M661.092 694.613L572.666 161.492C567.237 127.63 527.186 112.346 500.574 133.978L83.0911 477.12C56.4791 498.752 63.2721 541.08 95.3074 553.308L601.217 743.287C633.258 755.516 666.522 728.474 661.092 694.613Z" stroke="#33E3E8" stroke-width="0.552088" stroke-miterlimit="10"/>
<path d="M668.926 693.097L563.19 151.582C556.773 117.88 516.276 103.761 490.299 126.17L74.201 488.494C48.2237 510.902 56.2428 553.035 88.6433 564.329L610.477 743.514C642.871 754.813 675.349 726.799 668.926 693.097Z" stroke="#22EDEF" stroke-width="0.552088" stroke-miterlimit="10"/>
<path d="M676.767 691.577L553.728 141.669C546.324 108.121 505.379 95.1747 480.03 118.358L65.3175 499.871C39.9688 523.054 49.227 564.987 81.9804 575.346L619.732 743.741C652.485 754.106 684.171 725.125 676.767 691.577Z" stroke="#11F6F7" stroke-width="0.552088" stroke-miterlimit="10"/>
<path d="M684.609 690.061L544.259 131.765C535.868 98.3776 494.476 86.5967 469.761 110.562L56.4336 511.257C31.7188 535.222 42.2099 576.955 75.3163 586.378L628.993 743.979C662.106 753.402 693 723.449 684.609 690.061Z" stroke="#00FFFF" stroke-width="0.552088" stroke-miterlimit="10"/>
<path d="M693.621 685.45L532.495 121.51C523.158 88.454 481.535 77.9005 457.574 102.513L49.7513 524.024C25.79 548.642 37.4637 589.966 70.7611 598.41L639.71 740.839C673.007 749.282 702.958 718.506 693.621 685.45Z" stroke="#00D4FF" stroke-width="0.552088" stroke-miterlimit="10"/>
<path d="M702.634 680.84L520.731 111.263C510.45 78.5323 468.589 69.2054 445.381 94.4774L43.0633 536.798C19.8555 562.07 32.7118 602.984 66.201 610.443L650.422 737.699C683.91 745.164 712.922 713.571 702.634 680.84Z" stroke="#00AAFF" stroke-width="0.552088" stroke-miterlimit="10"/>
<path d="M711.652 676.229L508.972 101.016C497.746 68.6099 455.647 60.5158 433.199 86.4418L36.3862 549.572C13.9381 575.498 27.9708 616.002 61.6511 622.482L661.144 734.566C694.818 741.045 722.878 708.635 711.652 676.229Z" stroke="#0080FF" stroke-width="0.552088" stroke-miterlimit="10"/>
<path d="M720.666 671.617L497.209 90.7665C485.037 58.6923 442.701 51.8187 421.012 78.3988L29.7044 562.344C8.00969 588.924 23.225 629.018 57.0963 634.52L671.855 731.431C705.727 736.926 732.842 703.698 720.666 671.617Z" stroke="#0055FF" stroke-width="0.552088" stroke-miterlimit="10"/>
<path d="M729.685 667.006L485.452 80.5122C472.336 48.7633 429.768 43.117 408.826 70.356L23.0233 575.111C2.08816 602.345 18.4854 642.036 52.537 646.545L682.568 728.277C716.63 732.8 742.801 698.755 729.685 667.006Z" stroke="#002BFF" stroke-width="0.552088" stroke-miterlimit="10"/>
<path d="M739.06 659.194L474.049 67.0628C459.989 35.6393 417.182 31.2258 397.001 59.1127L16.7023 584.684C-3.47928 612.571 14.1006 651.852 48.3432 655.383L693.646 721.942C727.9 725.48 753.126 690.618 739.06 659.194Z" stroke="#0000FF" stroke-width="0.552088" stroke-miterlimit="10"/>
</svg>
