<svg id="visual" viewBox="0 0 1920 1080" width="1920" height="1080" xmlns="http://www.w3.org/2000/svg" xmlns:xlink="http://www.w3.org/1999/xlink" version="1.1"><path d="M0 879L20 882.3C40 885.7 80 892.3 120 887.8C160 883.3 200 867.7 240 856.3C280 845 320 838 360 829.3C400 820.7 440 810.3 480 802.7C520 795 560 790 600 794.7C640 799.3 680 813.7 720 816.3C760 819 800 810 840 813.5C880 817 920 833 960 833.3C1000 833.7 1040 818.3 1080 817.7C1120 817 1160 831 1200 843.5C1240 856 1280 867 1320 858.7C1360 850.3 1400 822.7 1440 812C1480 801.3 1520 807.7 1560 819.8C1600 832 1640 850 1680 845.7C1720 841.3 1760 814.7 1800 804C1840 793.3 1880 798.7 1900 801.3L1920 804L1920 1081L1900 1081C1880 1081 1840 1081 1800 1081C1760 1081 1720 1081 1680 1081C1640 1081 1600 1081 1560 1081C1520 1081 1480 1081 1440 1081C1400 1081 1360 1081 1320 1081C1280 1081 1240 1081 1200 1081C1160 1081 1120 1081 1080 1081C1040 1081 1000 1081 960 1081C920 1081 880 1081 840 1081C800 1081 760 1081 720 1081C680 1081 640 1081 600 1081C560 1081 520 1081 480 1081C440 1081 400 1081 360 1081C320 1081 280 1081 240 1081C200 1081 160 1081 120 1081C80 1081 40 1081 20 1081L0 1081Z" fill="#eaeaea"></path><path d="M0 895L20 884.2C40 873.3 80 851.7 120 844.8C160 838 200 846 240 852C280 858 320 862 360 859.2C400 856.3 440 846.7 480 840.3C520 834 560 831 600 841C640 851 680 874 720 879.8C760 885.7 800 874.3 840 869C880 863.7 920 864.3 960 861.7C1000 859 1040 853 1080 860.8C1120 868.7 1160 890.3 1200 903.7C1240 917 1280 922 1320 912.2C1360 902.3 1400 877.7 1440 874.5C1480 871.3 1520 889.7 1560 901.5C1600 913.3 1640 918.7 1680 921.5C1720 924.3 1760 924.7 1800 919C1840 913.3 1880 901.7 1900 895.8L1920 890L1920 1081L1900 1081C1880 1081 1840 1081 1800 1081C1760 1081 1720 1081 1680 1081C1640 1081 1600 1081 1560 1081C1520 1081 1480 1081 1440 1081C1400 1081 1360 1081 1320 1081C1280 1081 1240 1081 1200 1081C1160 1081 1120 1081 1080 1081C1040 1081 1000 1081 960 1081C920 1081 880 1081 840 1081C800 1081 760 1081 720 1081C680 1081 640 1081 600 1081C560 1081 520 1081 480 1081C440 1081 400 1081 360 1081C320 1081 280 1081 240 1081C200 1081 160 1081 120 1081C80 1081 40 1081 20 1081L0 1081Z" fill="#c6c6c6"></path><path d="M0 950L20 936.8C40 923.7 80 897.3 120 897C160 896.7 200 922.3 240 924.2C280 926 320 904 360 899.3C400 894.7 440 907.3 480 919.8C520 932.3 560 944.7 600 948.8C640 953 680 949 720 934.5C760 920 800 895 840 894C880 893 920 916 960 922.2C1000 928.3 1040 917.7 1080 907.3C1120 897 1160 887 1200 891.2C1240 895.3 1280 913.7 1320 914.7C1360 915.7 1400 899.3 1440 902.2C1480 905 1520 927 1560 928.7C1600 930.3 1640 911.7 1680 910.8C1720 910 1760 927 1800 925.7C1840 924.3 1880 904.7 1900 894.8L1920 885L1920 1081L1900 1081C1880 1081 1840 1081 1800 1081C1760 1081 1720 1081 1680 1081C1640 1081 1600 1081 1560 1081C1520 1081 1480 1081 1440 1081C1400 1081 1360 1081 1320 1081C1280 1081 1240 1081 1200 1081C1160 1081 1120 1081 1080 1081C1040 1081 1000 1081 960 1081C920 1081 880 1081 840 1081C800 1081 760 1081 720 1081C680 1081 640 1081 600 1081C560 1081 520 1081 480 1081C440 1081 400 1081 360 1081C320 1081 280 1081 240 1081C200 1081 160 1081 120 1081C80 1081 40 1081 20 1081L0 1081Z" fill="#a4a4a4"></path><path d="M0 973L20 964C40 955 80 937 120 939.3C160 941.7 200 964.3 240 970.5C280 976.7 320 966.3 360 963C400 959.7 440 963.3 480 965.3C520 967.3 560 967.7 600 963.3C640 959 680 950 720 952.2C760 954.3 800 967.7 840 970.2C880 972.7 920 964.3 960 952.5C1000 940.7 1040 925.3 1080 923.8C1120 922.3 1160 934.7 1200 938.5C1240 942.3 1280 937.7 1320 929.3C1360 921 1400 909 1440 915.2C1480 921.3 1520 945.7 1560 952.7C1600 959.7 1640 949.3 1680 949.8C1720 950.3 1760 961.7 1800 955.5C1840 949.3 1880 925.7 1900 913.8L1920 902L1920 1081L1900 1081C1880 1081 1840 1081 1800 1081C1760 1081 1720 1081 1680 1081C1640 1081 1600 1081 1560 1081C1520 1081 1480 1081 1440 1081C1400 1081 1360 1081 1320 1081C1280 1081 1240 1081 1200 1081C1160 1081 1120 1081 1080 1081C1040 1081 1000 1081 960 1081C920 1081 880 1081 840 1081C800 1081 760 1081 720 1081C680 1081 640 1081 600 1081C560 1081 520 1081 480 1081C440 1081 400 1081 360 1081C320 1081 280 1081 240 1081C200 1081 160 1081 120 1081C80 1081 40 1081 20 1081L0 1081Z" fill="#838383"></path><path d="M0 983L20 975.8C40 968.7 80 954.3 120 954.2C160 954 200 968 240 975.8C280 983.7 320 985.3 360 987.7C400 990 440 993 480 986C520 979 560 962 600 957.3C640 952.7 680 960.3 720 961.3C760 962.3 800 956.7 840 962.2C880 967.7 920 984.3 960 982.7C1000 981 1040 961 1080 951.2C1120 941.3 1160 941.7 1200 951.7C1240 961.7 1280 981.3 1320 983.3C1360 985.3 1400 969.7 1440 968.7C1480 967.7 1520 981.3 1560 984.7C1600 988 1640 981 1680 977.3C1720 973.7 1760 973.3 1800 978.8C1840 984.3 1880 995.7 1900 1001.3L1920 1007L1920 1081L1900 1081C1880 1081 1840 1081 1800 1081C1760 1081 1720 1081 1680 1081C1640 1081 1600 1081 1560 1081C1520 1081 1480 1081 1440 1081C1400 1081 1360 1081 1320 1081C1280 1081 1240 1081 1200 1081C1160 1081 1120 1081 1080 1081C1040 1081 1000 1081 960 1081C920 1081 880 1081 840 1081C800 1081 760 1081 720 1081C680 1081 640 1081 600 1081C560 1081 520 1081 480 1081C440 1081 400 1081 360 1081C320 1081 280 1081 240 1081C200 1081 160 1081 120 1081C80 1081 40 1081 20 1081L0 1081Z" fill="#636363"></path><path d="M0 982L20 986.3C40 990.7 80 999.3 120 1007.5C160 1015.7 200 1023.3 240 1020.7C280 1018 320 1005 360 998.3C400 991.7 440 991.3 480 993.8C520 996.3 560 1001.7 600 998.8C640 996 680 985 720 981.5C760 978 800 982 840 982.5C880 983 920 980 960 988.8C1000 997.7 1040 1018.3 1080 1021.2C1120 1024 1160 1009 1200 1008.5C1240 1008 1280 1022 1320 1023.5C1360 1025 1400 1014 1440 1007.7C1480 1001.3 1520 999.7 1560 1001.3C1600 1003 1640 1008 1680 1003.8C1720 999.7 1760 986.3 1800 987.3C1840 988.3 1880 1003.7 1900 1011.3L1920 1019L1920 1081L1900 1081C1880 1081 1840 1081 1800 1081C1760 1081 1720 1081 1680 1081C1640 1081 1600 1081 1560 1081C1520 1081 1480 1081 1440 1081C1400 1081 1360 1081 1320 1081C1280 1081 1240 1081 1200 1081C1160 1081 1120 1081 1080 1081C1040 1081 1000 1081 960 1081C920 1081 880 1081 840 1081C800 1081 760 1081 720 1081C680 1081 640 1081 600 1081C560 1081 520 1081 480 1081C440 1081 400 1081 360 1081C320 1081 280 1081 240 1081C200 1081 160 1081 120 1081C80 1081 40 1081 20 1081L0 1081Z" fill="#454545"></path><path d="M0 1058L20 1054.7C40 1051.3 80 1044.7 120 1039C160 1033.3 200 1028.7 240 1028.2C280 1027.7 320 1031.3 360 1031.3C400 1031.3 440 1027.7 480 1029.3C520 1031 560 1038 600 1039.8C640 1041.7 680 1038.3 720 1034C760 1029.7 800 1024.3 840 1027.3C880 1030.3 920 1041.7 960 1049C1000 1056.3 1040 1059.7 1080 1060.7C1120 1061.7 1160 1060.3 1200 1054.5C1240 1048.7 1280 1038.3 1320 1035.2C1360 1032 1400 1036 1440 1040C1480 1044 1520 1048 1560 1047.8C1600 1047.7 1640 1043.3 1680 1041.2C1720 1039 1760 1039 1800 1035.3C1840 1031.7 1880 1024.3 1900 1020.7L1920 1017L1920 1081L1900 1081C1880 1081 1840 1081 1800 1081C1760 1081 1720 1081 1680 1081C1640 1081 1600 1081 1560 1081C1520 1081 1480 1081 1440 1081C1400 1081 1360 1081 1320 1081C1280 1081 1240 1081 1200 1081C1160 1081 1120 1081 1080 1081C1040 1081 1000 1081 960 1081C920 1081 880 1081 840 1081C800 1081 760 1081 720 1081C680 1081 640 1081 600 1081C560 1081 520 1081 480 1081C440 1081 400 1081 360 1081C320 1081 280 1081 240 1081C200 1081 160 1081 120 1081C80 1081 40 1081 20 1081L0 1081Z" fill="#292929"></path></svg>