<svg  viewBox="0 0 1737 1080" fill="none" xmlns="http://www.w3.org/2000/svg">
<path opacity="0.54" d="M1246.99 1562.8C1212.69 1622.51 1125.43 1629.4 1065.53 1594.2C1005.59 1559.02 967.986 1494.32 938.18 1430.39C908.345 1366.47 882.478 1298.81 835.722 1246.45C738.931 1138.09 581.433 1123.12 440.232 1119.67C299.031 1116.22 143.871 1111.53 36.2832 1014.53C-48.0573 938.457 -83.6411 821.954 -145.489 725.846C-253.439 558.069 -451.153 454.652 -643.831 465.265" stroke="url(#paint0_linear_6_46)" stroke-width="1.56225" stroke-miterlimit="10"/>
<path opacity="0.54" d="M1259.61 1549.36C1225.39 1609.03 1138.53 1616.39 1078.41 1581.92C1073.03 1578.85 1067.83 1575.5 1062.78 1571.98C1011.48 1535.96 977.351 1477.73 949.662 1419.99C944.312 1408.85 939.083 1397.58 933.854 1386.32C909.32 1333.42 884.525 1280.21 845.818 1237.31C833.286 1223.4 819.718 1211.03 805.322 1200.04C708.243 1125.86 573.137 1114.56 450.322 1112.54C441.395 1112.4 432.426 1112.25 423.416 1112.08C290.031 1109.52 149.254 1100.57 46.7059 1014.69C17.38 990.128 -7.47385 961.488 -28.8658 928.863C-54.1353 890.359 -74.175 847.231 -94.2821 805.112C-108.014 776.358 -121.882 747.938 -137.822 720.912C-145.316 708.207 -153.325 695.814 -161.868 683.775C-216.219 607.105 -292.06 545.406 -376.667 505.497C-461.48 465.496 -554.937 446.919 -646.962 452.845" stroke="url(#paint1_linear_6_46)" stroke-width="1.56225" stroke-miterlimit="10"/>
<path opacity="0.54" d="M1272.24 1535.91C1238.09 1595.59 1151.65 1603.41 1091.3 1569.66C1085.91 1566.63 1080.68 1563.36 1075.61 1559.89C1024.09 1524.49 989.419 1466.85 961.134 1409.57C955.68 1398.5 950.36 1387.34 945.027 1376.15C920.013 1323.66 894.801 1270.75 855.935 1228.13C843.34 1214.32 829.755 1201.99 815.313 1191.05C717.941 1117.23 583.046 1106.38 460.421 1105.33C451.517 1105.25 442.543 1105.17 433.57 1105.09C300.488 1103.71 161.315 1095.73 57.1412 1014.71C26.6943 991.054 -0.191208 963.825 -22.8331 930.86C-49.5996 891.905 -69.6255 846.877 -88.854 803.249C-101.981 773.48 -114.945 744.031 -130.135 715.932C-137.297 702.708 -144.963 689.827 -153.285 677.244C-206.207 597.159 -284.318 532.408 -371.619 491.756C-459.097 451 -555.496 433.5 -650.107 440.463" stroke="url(#paint2_linear_6_46)" stroke-width="1.56225" stroke-miterlimit="10"/>
<path opacity="0.54" d="M1284.87 1522.49C1250.81 1582.14 1164.77 1590.47 1104.23 1557.39C1098.83 1554.43 1093.57 1551.25 1088.48 1547.82C1036.69 1513.01 1001.5 1456.01 972.647 1399.16C967.102 1388.2 961.636 1377.1 956.211 1366.02C930.718 1313.93 905.102 1261.36 866.064 1218.98C853.435 1205.25 839.816 1193.01 825.357 1182.11C727.732 1108.68 593.037 1098.23 470.571 1098.17C461.663 1098.17 452.726 1098.18 443.776 1098.15C310.969 1097.96 173.3 1090.96 67.6121 1014.83C36.0029 992.055 7.15615 966.244 -16.7477 932.909C-45.0403 893.514 -65.0233 846.575 -83.3442 801.425C-95.8781 770.612 -107.898 740.153 -122.367 710.993C-129.156 697.269 -136.532 683.85 -144.622 670.753C-196.112 587.253 -276.466 519.438 -366.46 478.044C-456.632 436.545 -555.944 420.108 -653.154 428.08" stroke="url(#paint3_linear_6_46)" stroke-width="1.56225" stroke-miterlimit="10"/>
<path opacity="0.54" d="M1297.52 1509.03C1263.51 1568.66 1177.9 1577.45 1117.15 1545.12C1111.7 1542.22 1106.47 1539.09 1101.35 1535.75C1049.3 1501.57 1013.61 1445.15 984.188 1388.74C978.509 1377.87 972.98 1366.87 967.439 1355.83C941.466 1304.14 915.404 1251.89 876.224 1209.75C863.532 1196.11 849.896 1183.91 835.403 1173.1C737.515 1100.01 603.013 1090.05 480.713 1090.91C471.829 1090.96 462.887 1091.05 453.945 1091.13C321.44 1092.11 185.085 1086.19 78.0734 1014.84C45.2851 992.993 14.4528 968.54 -10.6719 934.853C-40.5026 894.988 -60.4307 846.169 -77.873 799.509C-89.7727 767.669 -100.919 736.193 -114.649 705.93C-121.095 691.717 -128.18 677.761 -136.02 664.108C-186.052 577.182 -268.705 506.327 -361.364 464.178C-454.2 421.925 -556.455 406.564 -656.263 415.542" stroke="url(#paint4_linear_6_46)" stroke-width="1.56225" stroke-miterlimit="10"/>
<path opacity="0.54" d="M1310.14 1495.59C1276.23 1555.21 1190.98 1564.48 1130.05 1532.86C1124.59 1530.03 1119.31 1526.96 1114.17 1523.65C1061.88 1490.1 1025.67 1434.28 995.66 1378.32C989.877 1367.52 984.244 1356.59 978.611 1345.67C952.16 1294.38 925.681 1242.44 886.341 1200.57C873.615 1187.02 859.945 1174.9 845.394 1164.11C747.213 1091.39 612.951 1081.86 490.811 1083.7C481.923 1083.83 473.046 1083.99 464.099 1084.14C331.898 1086.3 196.723 1081.56 88.4923 1014.9C54.4716 993.936 21.7482 970.909 -4.65552 936.893C-35.9832 896.577 -55.8975 845.858 -72.4732 797.658C-83.78 764.773 -94.0233 732.269 -106.991 700.963C-113.105 686.232 -119.846 671.787 -127.467 657.59C-176.068 567.249 -260.963 493.33 -356.315 450.439C-451.833 407.473 -557.013 393.145 -659.42 403.131" stroke="url(#paint5_linear_6_46)" stroke-width="1.56225" stroke-miterlimit="10"/>
<path opacity="0.54" d="M1322.76 1482.14C1288.91 1541.74 1204.1 1551.5 1142.93 1520.57C1137.47 1517.81 1132.14 1514.79 1127 1511.56C1074.47 1478.6 1037.71 1423.41 1007.17 1367.91C1001.29 1357.19 995.531 1346.38 989.794 1335.53C962.892 1284.64 935.98 1233.05 896.468 1191.42C883.679 1177.96 869.963 1165.9 855.407 1155.18C756.962 1082.81 622.882 1073.73 500.932 1076.55C492.067 1076.74 483.186 1076.97 474.275 1077.22C342.377 1080.55 208.237 1077.04 98.9618 1015.01C63.6916 994.97 29.0651 973.338 1.42841 938.94C-31.4254 898.184 -51.2968 845.554 -66.9649 795.832C-77.6665 761.933 -87.0068 728.4 -99.224 696.022C-104.965 680.79 -111.416 665.808 -118.816 651.066C-165.988 557.31 -253.153 480.34 -351.17 436.694C-449.352 392.974 -557.475 379.721 -662.48 390.715" stroke="url(#paint6_linear_6_46)" stroke-width="1.56225" stroke-miterlimit="10"/>
<path opacity="0.54" d="M1335.39 1468.72C1301.64 1528.32 1217.21 1538.53 1155.86 1508.33C1150.39 1505.61 1145.06 1502.67 1139.87 1499.49C1087.08 1467.15 1049.82 1412.56 1018.68 1357.5C1012.71 1346.89 1006.84 1336.13 1001.01 1325.39C973.613 1274.87 946.267 1223.62 906.624 1182.26C893.802 1168.89 880.04 1156.87 865.45 1146.24C766.741 1074.22 632.872 1065.58 511.082 1069.39C502.225 1069.68 493.367 1069.98 484.481 1070.28C352.886 1074.79 219.671 1072.66 109.432 1015.12C72.8543 996.028 36.4117 975.756 7.48396 940.999C-26.8959 899.803 -46.7244 845.263 -61.5139 794.031C-71.6225 759.088 -80.0477 724.556 -91.5266 691.075C-96.9363 675.324 -103.043 659.853 -110.223 644.567C-155.936 547.385 -245.371 467.363 -346.082 422.974C-446.958 378.511 -557.993 366.322 -665.585 378.354" stroke="url(#paint7_linear_6_46)" stroke-width="1.56225" stroke-miterlimit="10"/>
<path opacity="0.54" d="M1348.04 1455.27C1314.38 1514.82 1230.35 1525.54 1168.77 1496.02C1163.27 1493.39 1157.92 1490.49 1152.72 1487.38C1099.67 1455.65 1061.9 1401.71 1030.18 1347.07C1024.07 1336.54 1018.11 1325.89 1012.18 1315.22C984.302 1265.1 956.541 1214.17 916.738 1173.08C903.869 1159.76 890.086 1147.86 875.467 1137.24C776.477 1065.61 642.807 1057.39 521.206 1062.17C512.373 1062.52 503.511 1062.89 494.632 1063.29C363.353 1069.01 230.976 1068.3 119.876 1015.17C81.962 997.036 43.6914 978.094 13.5549 943.016C-22.3219 901.368 -42.1367 844.928 -56.0475 792.186C-65.551 756.229 -73.0441 720.657 -83.7727 686.103C-88.8386 669.863 -94.6262 653.843 -101.574 638.043C-145.856 537.447 -237.55 454.403 -340.938 409.229C-444.478 364.011 -558.485 352.91 -668.646 365.938" stroke="url(#paint8_linear_6_46)" stroke-width="1.56225" stroke-miterlimit="10"/>
<path opacity="0.54" d="M1360.67 1441.82C1327.08 1501.38 1243.45 1512.53 1181.67 1483.76C1176.15 1481.18 1170.77 1478.36 1165.57 1475.32C1112.29 1444.2 1073.98 1390.87 1041.7 1336.66C1035.48 1326.21 1029.42 1315.64 1023.38 1305.05C995.028 1255.33 966.862 1204.73 926.888 1163.89C913.956 1150.66 900.155 1138.8 885.503 1128.27C786.249 1056.99 652.79 1049.21 531.337 1054.95C522.528 1055.36 513.673 1055.83 504.819 1056.3C373.843 1063.19 242.196 1064.05 130.357 1015.21C91.0888 998.075 51.0191 980.451 19.6206 945.003C-17.7822 902.915 -37.5832 844.576 -50.5986 790.282C-59.48 753.268 -66.087 716.709 -76.0772 681.052C-80.7703 664.313 -86.2675 647.755 -92.995 631.411C-135.818 527.388 -229.783 441.292 -335.864 395.376C-442.069 349.404 -559.03 339.348 -671.777 353.414" stroke="url(#paint9_linear_6_46)" stroke-width="1.56225" stroke-miterlimit="10"/>
<path opacity="0.54" d="M1373.28 1428.37C1339.78 1487.9 1256.53 1499.56 1194.6 1471.5C1189.06 1468.98 1183.68 1466.23 1178.42 1463.22C1124.87 1432.7 1086.05 1379.99 1053.2 1326.22C1046.89 1315.88 1040.72 1305.38 1034.58 1294.87C1005.78 1245.55 977.134 1195.28 937.029 1154.7C924.064 1141.56 910.229 1129.78 895.531 1119.3C796.013 1048.38 662.765 1041.03 541.472 1047.76C532.659 1048.25 523.828 1048.77 515.01 1049.33C384.337 1057.4 253.328 1059.93 140.812 1015.3C100.161 999.169 58.3507 982.839 25.6902 947.021C-13.2387 904.494 -32.9969 844.243 -45.1045 788.428C-53.393 750.369 -59.0848 712.812 -68.3246 676.082C-72.6861 658.824 -77.8396 641.778 -84.3469 624.889C-125.74 517.451 -221.975 428.303 -330.75 381.644C-439.648 334.929 -559.523 325.937 -674.869 341.011" stroke="url(#paint10_linear_6_46)" stroke-width="1.56225" stroke-miterlimit="10"/>
<path opacity="0.54" d="M1385.92 1414.96C1352.48 1474.49 1269.66 1486.61 1207.49 1459.24C1201.93 1456.8 1196.52 1454.1 1191.26 1451.16C1137.46 1421.26 1098.12 1369.15 1064.72 1315.85C1058.31 1305.58 1052.01 1295.17 1045.77 1284.77C1016.49 1235.84 987.434 1185.88 947.157 1145.55C934.128 1132.5 920.277 1120.77 905.532 1110.34C805.722 1039.78 672.697 1032.91 551.581 1040.58C542.792 1041.13 533.968 1041.76 525.145 1042.39C394.776 1051.64 264.382 1055.95 151.241 1015.39C109.191 1000.32 65.627 985.251 31.7166 949.092C-8.70932 906.114 -28.4537 843.964 -39.6827 786.638C-47.3661 747.565 -52.1548 708.979 -60.6442 671.177C-64.633 653.418 -69.496 635.835 -75.7831 618.402C-115.746 507.549 -214.252 415.35 -325.691 367.936C-437.254 320.467 -560.071 312.55 -678.016 328.631" stroke="url(#paint11_linear_6_46)" stroke-width="1.56225" stroke-miterlimit="10"/>
<path opacity="0.54" d="M1398.57 1401.5C1365.22 1461 1282.79 1473.59 1220.41 1446.96C1214.83 1444.57 1209.39 1441.95 1204.09 1439.07C1150.03 1409.8 1110.16 1358.29 1076.19 1305.42C1069.65 1295.25 1063.28 1284.93 1056.94 1274.6C1027.18 1226.08 997.722 1176.46 957.273 1136.37C944.211 1123.4 930.284 1111.74 915.535 1101.38C815.461 1031.17 682.646 1024.74 561.691 1033.4C552.896 1034.02 544.097 1034.71 535.311 1035.43C405.215 1045.87 275.387 1052.09 161.67 1015.48C118.192 1001.47 72.921 987.619 37.7607 951.12C-4.19126 907.702 -23.8927 843.641 -34.2552 784.775C-41.3456 744.658 -45.2024 705.031 -52.9704 666.168C-56.6275 647.89 -61.1589 629.788 -67.2136 611.841C-105.718 497.562 -206.494 402.311 -320.627 354.154C-434.883 305.942 -560.614 299.09 -681.144 316.209" stroke="url(#paint12_linear_6_46)" stroke-width="1.56225" stroke-miterlimit="10"/>
<path opacity="0.54" d="M1411.19 1388.05C1377.91 1447.56 1295.9 1460.62 1233.3 1434.67C1227.71 1432.36 1222.26 1429.78 1216.92 1426.97C1162.62 1398.29 1122.23 1347.41 1087.7 1294.98C1081.05 1284.89 1074.56 1274.69 1068.15 1264.43C1037.91 1216.31 1008 1167 967.42 1127.17C954.324 1114.3 940.363 1102.71 925.568 1092.41C825.242 1022.58 692.597 1016.58 571.831 1026.21C563.073 1026.92 554.27 1027.68 545.507 1028.47C415.715 1040.08 286.418 1048.3 172.148 1015.52C127.236 1002.65 80.2461 989.975 43.8237 953.106C0.345712 909.248 -19.3129 843.276 -28.7678 782.889C-35.224 741.745 -38.2067 701.102 -45.2244 661.165C-48.5377 642.399 -52.7666 623.789 -58.5721 605.286C-95.6459 487.593 -198.693 389.289 -315.491 340.378C-432.411 291.412 -561.084 285.635 -684.213 303.761" stroke="url(#paint13_linear_6_46)" stroke-width="1.56225" stroke-miterlimit="10"/>
<path opacity="0.54" d="M1423.82 1374.63C1390.63 1434.11 1309.03 1447.67 1246.23 1422.44C1240.64 1420.19 1235.14 1417.66 1229.79 1414.93C1175.25 1386.88 1134.32 1336.6 1099.22 1284.61C1092.48 1274.62 1085.87 1264.47 1079.33 1254.29C1048.62 1206.54 1018.28 1157.58 977.544 1118.03C964.385 1105.24 950.408 1093.7 935.595 1083.44C835.005 1013.97 702.571 1008.4 581.953 1019C573.191 1019.78 564.411 1020.6 555.685 1021.47C426.196 1034.26 297.367 1044.57 182.59 1015.58C136.216 1003.85 87.565 992.334 49.8928 955.125C4.91781 910.815 -14.7149 842.974 -23.3033 781.047C-29.1665 738.859 -31.2341 697.217 -37.5134 656.178C-40.454 636.911 -44.3924 617.764 -49.9778 598.717C-85.6215 477.608 -190.91 376.241 -310.401 326.588C-430.016 276.878 -561.602 272.165 -687.329 291.299" stroke="url(#paint14_linear_6_46)" stroke-width="1.56225" stroke-miterlimit="10"/>
<path opacity="0.54" d="M1436.44 1361.19C1403.32 1420.67 1322.13 1434.66 1259.13 1410.18C1253.49 1407.98 1247.98 1405.53 1242.62 1402.84C1187.81 1375.39 1146.39 1325.72 1110.7 1274.21C1103.86 1264.3 1097.16 1254.26 1090.51 1244.16C1059.33 1196.8 1028.58 1148.19 987.672 1108.88C974.479 1096.18 960.468 1084.72 945.61 1074.51C844.727 1005.4 712.504 1000.28 592.075 1011.85C583.337 1012.69 574.594 1013.6 565.834 1014.56C436.648 1028.52 308.278 1041.07 193.032 1015.7C145.22 1005.18 94.8544 994.775 55.9202 957.195C9.41912 912.446 -10.1708 842.694 -17.8805 779.257C-23.1386 736.054 -24.3032 693.383 -29.8321 651.271C-32.441 631.486 -36.0357 611.85 -41.4009 592.259C-75.5854 467.724 -183.174 363.317 -305.329 312.909C-427.608 262.445 -562.137 258.807 -690.463 278.949" stroke="url(#paint15_linear_6_46)" stroke-width="1.56225" stroke-miterlimit="10"/>
<path opacity="0.54" d="M1449.09 1347.73C1416.06 1407.17 1335.24 1421.68 1272.04 1397.88C1266.4 1395.76 1260.89 1393.37 1255.48 1390.74C1200.41 1363.91 1158.48 1314.84 1122.23 1263.76C1115.25 1253.94 1108.45 1243.97 1101.71 1233.98C1070.05 1187.03 1038.86 1138.73 997.818 1099.68C984.562 1087.08 970.534 1075.67 955.642 1065.54C854.495 996.78 722.483 992.098 602.215 1004.66C593.472 1005.57 584.753 1006.54 576.029 1007.59C447.146 1022.73 319.247 1037.55 203.492 1015.78C154.224 1006.51 102.178 997.132 61.9942 959.212C13.9671 914.024 -5.57989 842.36 -12.4232 777.383C-17.0882 733.136 -17.3087 689.455 -22.1163 646.282C-24.3524 625.996 -27.6567 605.823 -32.7895 585.717C-65.5439 457.768 -175.374 350.297 -300.223 299.146C-425.196 247.94 -562.637 245.366 -693.562 266.515" stroke="url(#paint16_linear_6_46)" stroke-width="1.56225" stroke-miterlimit="10"/>
<path opacity="0.54" d="M1461.71 1334.28C1428.74 1393.7 1348.35 1408.71 1284.97 1385.6C1279.31 1383.53 1273.76 1381.23 1268.34 1378.64C1213.05 1352.42 1170.55 1303.96 1133.74 1253.33C1126.65 1243.58 1119.76 1233.72 1112.91 1223.81C1080.77 1177.26 1049.17 1129.27 1007.96 1090.49C994.675 1077.97 980.601 1066.61 965.663 1056.54C864.252 988.131 732.451 983.89 612.343 997.438C603.624 998.411 594.912 999.487 586.213 1000.59C457.633 1016.91 330.224 1034.12 213.969 1015.82C163.229 1007.85 109.503 999.49 68.0978 961.218C18.5737 915.578 -0.959544 842.015 -6.89516 775.516C-10.9551 730.254 -10.2725 685.545 -14.3418 641.269C-16.2463 620.464 -19.219 599.772 -24.1316 579.122C-55.4269 447.747 -167.557 337.236 -295.07 285.33C-422.707 233.369 -563.091 231.871 -696.602 254.058" stroke="url(#paint17_linear_6_46)" stroke-width="1.56225" stroke-miterlimit="10"/>
<path opacity="0.54" d="M1474.34 1320.87C1441.47 1380.28 1361.46 1395.73 1297.86 1373.35C1292.17 1371.35 1286.6 1369.09 1281.17 1366.57C1225.62 1340.96 1182.63 1293.12 1145.25 1242.92C1138.07 1233.28 1131.03 1223.48 1124.12 1213.66C1091.5 1167.51 1059.49 1119.86 1018.11 1081.3C1004.78 1068.87 990.646 1057.6 975.69 1047.57C873.999 979.555 742.396 975.725 622.478 990.249C613.754 991.295 605.066 992.431 596.403 993.628C468.127 1011.12 341.162 1030.79 224.424 1015.91C172.224 1009.25 116.834 1001.88 74.1381 963.248C23.088 917.168 3.56856 841.706 -1.45938 773.685C-4.89729 727.367 -3.34071 681.64 -6.61839 636.31C-8.17918 615.017 -10.8202 593.806 -15.5127 572.612C-45.39 437.792 -159.749 324.247 -289.985 271.61C-420.287 218.895 -563.614 218.472 -699.723 241.667" stroke="url(#paint18_linear_6_46)" stroke-width="1.56225" stroke-miterlimit="10"/>
<path opacity="0.54" d="M1486.96 1307.42C1454.15 1366.81 1374.58 1382.75 1310.75 1361.09C1305.06 1359.16 1299.48 1356.95 1294.01 1354.51C1238.2 1329.53 1194.68 1282.28 1156.73 1232.53C1149.45 1222.96 1142.32 1213.27 1135.27 1203.51C1102.19 1157.75 1069.71 1110.43 1028.16 1072.15C1014.78 1059.81 1000.62 1048.58 985.663 1038.63C883.708 970.959 752.328 967.601 632.546 983.052C623.858 984.188 615.154 985.366 606.486 986.635C478.513 1005.3 352.058 1027.5 234.8 1015.95C181.164 1010.68 124.058 1004.24 80.1287 965.227C27.5525 918.707 8.07585 841.334 3.92652 771.804C1.08159 724.441 3.55331 677.716 1.02604 631.313C-0.17408 609.489 -2.51248 587.771 -6.98473 566.033C-35.432 427.798 -152.062 311.201 -284.963 257.81C-417.958 204.352 -564.21 204.963 -702.905 229.196" stroke="url(#paint19_linear_6_46)" stroke-width="1.56225" stroke-miterlimit="10"/>
<path opacity="0.54" d="M1499.62 1293.96C1466.9 1353.35 1387.72 1369.76 1323.68 1348.81C1317.96 1346.93 1312.35 1344.8 1306.87 1342.41C1250.82 1318.01 1206.78 1271.4 1168.24 1222.12C1160.83 1212.64 1153.63 1203.01 1146.48 1193.36C1112.93 1148.01 1080.03 1100.99 1038.32 1062.98C1024.9 1050.73 1010.71 1039.59 995.709 1029.68C893.49 962.368 762.292 959.463 642.698 975.89C634.006 977.098 625.338 978.367 616.695 979.697C489.037 999.57 363.103 1024.33 245.302 1016.05C190.231 1012.16 131.424 1006.61 86.2281 967.303C32.1549 920.332 12.6921 841.059 9.43833 769.977C7.19852 721.6 10.5733 673.846 8.78431 626.34C7.92793 604.028 5.90895 581.76 1.66901 559.508C-25.319 417.846 -144.22 298.198 -279.814 244.064C-415.474 189.851 -564.697 191.55 -705.962 216.779" stroke="url(#paint20_linear_6_46)" stroke-width="1.56225" stroke-miterlimit="10"/>
<path opacity="0.54" d="M1512.24 1280.51C1479.58 1339.88 1400.79 1356.77 1336.59 1336.51C1330.87 1334.71 1325.21 1332.63 1319.73 1330.31C1263.42 1306.53 1218.85 1260.52 1179.77 1211.67C1172.26 1202.27 1164.93 1192.76 1157.68 1183.18C1123.64 1138.21 1090.34 1091.56 1048.47 1053.79C1034.98 1041.63 1020.78 1030.53 1005.73 1020.69C903.215 953.732 772.258 951.256 652.824 968.672C644.156 969.941 635.484 971.281 626.876 972.701C499.493 993.763 374.117 1021.17 255.748 1016.1C199.236 1013.67 138.718 1008.98 92.2887 969.291C36.6895 921.88 17.2695 840.696 14.8944 768.104C13.2475 718.683 17.5664 669.919 16.4988 621.352C15.9861 598.551 14.2989 575.765 10.2791 552.968C-15.2789 407.892 -136.438 285.222 -274.709 230.303C-413.062 175.347 -565.199 178.109 -709.062 204.346" stroke="url(#paint21_linear_6_46)" stroke-width="1.56225" stroke-miterlimit="10"/>
<path opacity="0.54" d="M1524.87 1267.1C1492.31 1326.46 1413.92 1343.82 1349.5 1324.28C1343.73 1322.53 1338.1 1320.51 1332.58 1318.27C1276.02 1295.13 1230.94 1249.71 1191.27 1201.3C1183.66 1192.01 1176.22 1182.55 1168.88 1173.08C1134.35 1128.5 1100.64 1082.16 1058.61 1044.67C1045.09 1032.6 1030.84 1021.55 1015.75 1011.79C912.978 945.184 782.202 943.161 662.958 961.553C654.285 962.894 645.648 964.325 637.065 965.806C509.985 988.043 385.204 1018.2 266.231 1016.24C208.319 1015.28 146.077 1011.43 98.3566 971.379C41.2192 923.498 21.8543 840.434 20.3577 766.332C19.3451 715.884 24.538 666.103 24.2086 616.433C24.0566 593.101 22.6718 569.808 18.8722 546.467C-5.25565 397.976 -128.656 272.243 -269.621 216.581C-410.639 160.871 -565.717 164.708 -712.167 191.983" stroke="url(#paint22_linear_6_46)" stroke-width="1.56225" stroke-miterlimit="10"/>
<path opacity="0.54" d="M1537.49 1253.65C1504.99 1312.99 1427.03 1330.84 1362.38 1311.99C1356.61 1310.31 1350.94 1308.38 1345.39 1306.15C1288.57 1283.6 1242.96 1238.81 1202.76 1190.84C1195.05 1181.62 1187.48 1172.28 1180.07 1162.87C1145.09 1118.69 1110.91 1072.68 1068.74 1035.45C1055.16 1023.47 1040.9 1012.49 1025.77 1002.78C922.745 936.563 792.168 934.952 673.084 954.332C664.436 955.733 655.794 957.237 647.219 958.819C520.442 982.233 396.284 1015.12 276.648 1016.3C217.333 1016.89 153.342 1013.81 104.401 973.407C45.7664 925.074 26.4152 840.11 25.7851 764.468C25.3654 712.976 31.4735 662.196 31.8946 611.454C32.0863 587.633 31.0041 563.833 27.4538 539.936C4.78508 388.019 -120.915 259.245 -264.544 202.829C-408.244 146.406 -566.248 151.277 -715.296 179.559" stroke="url(#paint23_linear_6_46)" stroke-width="1.56225" stroke-miterlimit="10"/>
<path opacity="0.54" d="M1550.14 1240.19C1517.74 1299.52 1440.16 1317.82 1375.33 1299.71C1369.56 1298.1 1363.84 1296.22 1358.29 1294.07C1301.24 1272.14 1255.1 1227.95 1214.31 1180.45C1206.49 1171.31 1198.83 1162.04 1191.28 1152.73C1155.83 1108.95 1121.24 1063.27 1078.9 1026.29C1065.28 1014.39 1050.98 1003.47 1035.8 993.815C932.482 927.958 802.145 926.777 683.221 947.144C674.568 948.617 665.963 950.211 657.412 951.855C530.938 976.444 407.44 1012.15 287.122 1016.35C226.432 1018.47 160.651 1016.14 110.46 975.396C50.3 926.624 30.9917 839.748 31.2693 762.585C31.4548 710.078 38.4658 658.269 39.6373 606.454C40.1898 582.103 39.4101 557.796 36.08 533.355C14.8413 378.023 -113.101 246.185 -259.423 189.026C-405.787 131.849 -566.734 137.796 -718.38 167.086" stroke="url(#paint24_linear_6_46)" stroke-width="1.56225" stroke-miterlimit="10"/>
<path opacity="0.54" d="M1562.76 1226.75C1530.42 1286.06 1453.27 1304.84 1388.21 1287.43C1382.39 1285.87 1376.7 1284.05 1371.07 1281.96C1313.76 1260.63 1267.09 1217.07 1225.74 1170.01C1217.8 1160.99 1210.06 1151.78 1202.41 1142.55C1166.47 1099.17 1131.47 1053.8 1088.96 1017.06C1075.31 1005.25 1060.94 994.424 1045.78 984.798C942.194 919.292 812.039 918.564 693.293 939.877C684.663 941.41 676.083 943.065 667.539 944.81C541.368 970.576 418.571 1009.12 297.514 1016.35C235.443 1020.08 167.919 1018.45 116.466 977.335C54.7796 928.124 35.5141 839.337 36.6703 760.664C37.4488 707.112 45.3918 654.263 47.2847 601.387C48.1809 576.548 47.7208 551.691 44.623 526.736C24.8435 367.977 -105.398 233.1 -254.426 175.168C-403.455 117.236 -567.344 124.258 -721.589 154.556" stroke="url(#paint25_linear_6_46)" stroke-width="1.56225" stroke-miterlimit="10"/>
<path opacity="0.54" d="M1575.39 1213.33C1543.15 1272.63 1466.35 1291.88 1401.12 1275.2C1395.3 1273.71 1389.56 1271.94 1383.93 1269.93C1326.36 1249.22 1279.19 1206.25 1237.27 1159.63C1229.22 1150.69 1221.35 1141.57 1213.63 1132.43C1177.22 1089.45 1141.77 1044.41 1099.13 1007.93C1085.42 996.213 1071.03 985.43 1055.83 975.888C951.987 910.733 822.042 910.446 703.456 932.747C694.834 934.383 686.278 936.098 677.729 937.916C551.861 964.857 429.807 1006.26 307.997 1016.49C244.576 1021.81 175.25 1020.91 122.547 979.455C59.3636 929.791 40.1119 839.106 42.1467 758.922C43.5303 704.356 52.3764 650.479 55.0197 596.53C56.2596 571.201 56.131 545.826 53.2534 520.326C34.904 358.153 -97.608 220.224 -249.301 161.538C-401.023 102.863 -567.825 110.949 -724.669 142.254" stroke="url(#paint26_linear_6_46)" stroke-width="1.56225" stroke-miterlimit="10"/>
<path opacity="0.54" d="M1588.01 1199.88C1555.83 1259.16 1479.47 1278.9 1414.02 1262.94C1408.18 1261.49 1402.41 1259.81 1396.77 1257.86C1338.96 1237.75 1291.27 1195.41 1248.75 1149.23C1240.6 1140.37 1232.64 1131.36 1224.79 1122.31C1187.9 1079.73 1152.04 1035.03 1109.23 998.792C1095.48 987.157 1081.05 976.428 1065.81 966.939C961.696 902.136 831.946 902.333 713.537 925.579C704.939 927.276 696.378 929.063 687.865 930.971C562.301 959.088 441.042 1003.4 318.398 1016.6C253.65 1023.57 182.515 1023.29 128.562 981.494C63.8528 931.391 44.6149 838.806 47.5743 757.059C49.58 701.437 59.3122 646.572 62.6937 591.521C64.2943 565.662 64.4683 539.779 61.8109 513.735C44.8916 348.148 -89.8621 207.154 -244.249 147.725C-398.635 88.2963 -568.38 97.4578 -727.822 129.771" stroke="url(#paint27_linear_6_46)" stroke-width="1.56225" stroke-miterlimit="10"/>
<path opacity="0.54" d="M1600.67 1186.42C1568.58 1245.7 1492.61 1265.91 1426.96 1250.62C1421.11 1249.25 1415.33 1247.61 1409.64 1245.72C1351.58 1226.23 1303.35 1184.49 1260.3 1138.74C1252.05 1129.95 1243.95 1121.04 1236.03 1112.08C1198.68 1069.86 1162.39 1025.51 1119.42 989.547C1105.61 978.008 1091.18 967.351 1075.89 957.915C971.494 893.505 841.971 894.101 723.723 918.336C715.12 920.105 706.596 921.982 698.107 923.951C572.846 953.244 452.424 1000.48 328.933 1016.61C262.859 1025.24 189.898 1025.62 134.683 983.458C68.4475 932.915 49.2524 838.419 53.0905 755.161C55.6891 698.495 66.3364 642.632 70.4684 586.507C72.4127 560.16 72.9062 533.728 70.4811 507.17C55.021 338.156 -82.0324 194.123 -239.083 133.939C-396.164 73.7672 -568.822 83.9926 -730.85 117.343" stroke="url(#paint28_linear_6_46)" stroke-width="1.56225" stroke-miterlimit="10"/>
<path opacity="0.54" d="M1613.3 1173.01C1581.27 1232.26 1505.72 1252.93 1439.87 1238.4C1433.99 1237.11 1428.18 1235.51 1422.49 1233.69C1364.18 1214.83 1315.44 1173.68 1271.81 1128.41C1263.43 1119.74 1255.26 1110.88 1247.2 1101.98C1209.37 1060.17 1172.63 1016.14 1129.53 980.44C1115.69 968.984 1101.21 958.381 1085.88 949.029C981.227 884.97 851.886 886.02 733.827 911.231C725.248 913.06 716.719 915.01 708.267 917.069C583.309 947.538 463.765 997.719 339.357 1016.78C272.009 1027.11 197.198 1028.09 140.733 985.589C73.0008 934.595 53.8196 838.2 58.5363 753.433C61.74 695.752 73.2903 638.86 78.2018 581.651C80.4778 554.785 81.3151 527.864 79.1102 500.762C65.0802 328.333 -74.2149 181.236 -233.96 120.31C-393.704 59.3837 -569.305 70.6847 -733.931 105.043" stroke="url(#paint29_linear_6_46)" stroke-width="1.56225" stroke-miterlimit="10"/>
<path opacity="0.54" d="M1625.92 1159.56C1593.98 1218.78 1518.84 1239.95 1452.75 1226.1C1446.85 1224.86 1441.03 1223.37 1435.31 1221.57C1376.73 1203.3 1327.47 1162.78 1283.29 1117.94C1274.82 1109.35 1266.54 1100.57 1258.39 1091.78C1220.08 1050.37 1182.94 1006.67 1139.66 971.216C1125.77 959.814 1111.27 949.325 1095.92 939.985C990.998 876.277 861.868 877.768 743.957 903.937C735.374 905.838 726.881 907.878 718.424 910.009C593.74 941.666 475.132 994.769 349.808 1016.76C281.187 1028.79 204.496 1030.39 146.769 987.514C77.5109 936.08 58.3725 837.773 63.9678 751.496C67.7645 692.771 80.259 634.869 85.8797 576.569C88.5285 549.202 89.6561 521.744 87.6714 494.098C75.0715 318.254 -66.4941 168.105 -228.903 106.425C-391.341 44.7553 -569.867 57.0899 -737.08 92.4863" stroke="url(#paint30_linear_6_46)" stroke-width="1.56225" stroke-miterlimit="10"/>
<path opacity="0.54" d="M1638.54 1146.11C1603.83 1210.61 1518.26 1230.54 1448.15 1209.5C1378.06 1188.46 1320.8 1135.82 1269.57 1081.64C1218.34 1027.46 1169.2 969.149 1105.92 931.026C993.095 863.09 852.94 870.233 728.601 903.085C604.22 935.917 486.572 992.002 360.278 1016.87C290.395 1030.64 211.83 1032.78 152.854 989.561C82.0693 937.687 62.9738 837.47 69.4647 749.641C75.9555 661.812 101.797 575.793 96.3224 487.575C85.1816 308.305 -58.6547 155.104 -223.757 92.6805C-388.86 30.2568 -570.328 43.6669 -740.14 80.0709" stroke="url(#paint31_linear_6_46)" stroke-width="1.56225" stroke-miterlimit="10"/>
<defs>
<linearGradient id="paint0_linear_6_46" x1="-672.971" y1="524.869" x2="1296.44" y2="1462.09" gradientUnits="userSpaceOnUse">
<stop stop-color="#7ED4EF"/>
<stop offset="0.2294" stop-color="#66BFE6"/>
<stop offset="0.711" stop-color="#298BD0"/>
<stop offset="1" stop-color="#0169C2"/>
</linearGradient>
<linearGradient id="paint1_linear_6_46" x1="-673.414" y1="506.818" x2="1308.44" y2="1449.97" gradientUnits="userSpaceOnUse">
<stop stop-color="#7ED4EF"/>
<stop offset="0.2294" stop-color="#66BFE6"/>
<stop offset="0.711" stop-color="#298BD0"/>
<stop offset="1" stop-color="#0169C2"/>
</linearGradient>
<linearGradient id="paint2_linear_6_46" x1="-673.857" y1="488.768" x2="1320.45" y2="1437.84" gradientUnits="userSpaceOnUse">
<stop stop-color="#7ED4EF"/>
<stop offset="0.2294" stop-color="#66BFE6"/>
<stop offset="0.711" stop-color="#298BD0"/>
<stop offset="1" stop-color="#0169C2"/>
</linearGradient>
<linearGradient id="paint3_linear_6_46" x1="-675.142" y1="472.494" x2="1331.61" y2="1427.49" gradientUnits="userSpaceOnUse">
<stop stop-color="#7ED4EF"/>
<stop offset="0.2294" stop-color="#66BFE6"/>
<stop offset="0.711" stop-color="#298BD0"/>
<stop offset="1" stop-color="#0169C2"/>
</linearGradient>
<linearGradient id="paint4_linear_6_46" x1="-677.871" y1="459.246" x2="1341.33" y2="1420.17" gradientUnits="userSpaceOnUse">
<stop stop-color="#7ED4EF"/>
<stop offset="0.2294" stop-color="#66BFE6"/>
<stop offset="0.711" stop-color="#298BD0"/>
<stop offset="1" stop-color="#0169C2"/>
</linearGradient>
<linearGradient id="paint5_linear_6_46" x1="-680.68" y1="446.179" x2="1350.97" y2="1413.02" gradientUnits="userSpaceOnUse">
<stop stop-color="#7ED4EF"/>
<stop offset="0.2294" stop-color="#66BFE6"/>
<stop offset="0.711" stop-color="#298BD0"/>
<stop offset="1" stop-color="#0169C2"/>
</linearGradient>
<linearGradient id="paint6_linear_6_46" x1="-683.585" y1="433.305" x2="1360.51" y2="1406.07" gradientUnits="userSpaceOnUse">
<stop stop-color="#7ED4EF"/>
<stop offset="0.2294" stop-color="#66BFE6"/>
<stop offset="0.711" stop-color="#298BD0"/>
<stop offset="1" stop-color="#0169C2"/>
</linearGradient>
<linearGradient id="paint7_linear_6_46" x1="-686.585" y1="420.638" x2="1369.95" y2="1399.33" gradientUnits="userSpaceOnUse">
<stop stop-color="#7ED4EF"/>
<stop offset="0.2294" stop-color="#66BFE6"/>
<stop offset="0.711" stop-color="#298BD0"/>
<stop offset="1" stop-color="#0169C2"/>
</linearGradient>
<linearGradient id="paint8_linear_6_46" x1="-689.8" y1="408.416" x2="1379.18" y2="1393.03" gradientUnits="userSpaceOnUse">
<stop stop-color="#7ED4EF"/>
<stop offset="0.2294" stop-color="#66BFE6"/>
<stop offset="0.711" stop-color="#298BD0"/>
<stop offset="1" stop-color="#0169C2"/>
</linearGradient>
<linearGradient id="paint9_linear_6_46" x1="-693.18" y1="396.558" x2="1388.25" y2="1387.09" gradientUnits="userSpaceOnUse">
<stop stop-color="#7ED4EF"/>
<stop offset="0.2294" stop-color="#66BFE6"/>
<stop offset="0.711" stop-color="#298BD0"/>
<stop offset="1" stop-color="#0169C2"/>
</linearGradient>
<linearGradient id="paint10_linear_6_46" x1="-696.673" y1="384.922" x2="1397.2" y2="1381.38" gradientUnits="userSpaceOnUse">
<stop stop-color="#7ED4EF"/>
<stop offset="0.2294" stop-color="#66BFE6"/>
<stop offset="0.711" stop-color="#298BD0"/>
<stop offset="1" stop-color="#0169C2"/>
</linearGradient>
<linearGradient id="paint11_linear_6_46" x1="-700.236" y1="373.439" x2="1406.08" y2="1375.82" gradientUnits="userSpaceOnUse">
<stop stop-color="#7ED4EF"/>
<stop offset="0.2294" stop-color="#66BFE6"/>
<stop offset="0.711" stop-color="#298BD0"/>
<stop offset="1" stop-color="#0169C2"/>
</linearGradient>
<linearGradient id="paint12_linear_6_46" x1="-703.851" y1="362.066" x2="1414.91" y2="1370.37" gradientUnits="userSpaceOnUse">
<stop stop-color="#7ED4EF"/>
<stop offset="0.2294" stop-color="#66BFE6"/>
<stop offset="0.711" stop-color="#298BD0"/>
<stop offset="1" stop-color="#0169C2"/>
</linearGradient>
<linearGradient id="paint13_linear_6_46" x1="-707.503" y1="350.775" x2="1423.7" y2="1365" gradientUnits="userSpaceOnUse">
<stop stop-color="#7ED4EF"/>
<stop offset="0.2294" stop-color="#66BFE6"/>
<stop offset="0.711" stop-color="#298BD0"/>
<stop offset="1" stop-color="#0169C2"/>
</linearGradient>
<linearGradient id="paint14_linear_6_46" x1="-711.191" y1="339.552" x2="1432.45" y2="1359.69" gradientUnits="userSpaceOnUse">
<stop stop-color="#7ED4EF"/>
<stop offset="0.2294" stop-color="#66BFE6"/>
<stop offset="0.711" stop-color="#298BD0"/>
<stop offset="1" stop-color="#0169C2"/>
</linearGradient>
<linearGradient id="paint15_linear_6_46" x1="-714.899" y1="328.377" x2="1441.19" y2="1354.44" gradientUnits="userSpaceOnUse">
<stop stop-color="#7ED4EF"/>
<stop offset="0.2294" stop-color="#66BFE6"/>
<stop offset="0.711" stop-color="#298BD0"/>
<stop offset="1" stop-color="#0169C2"/>
</linearGradient>
<linearGradient id="paint16_linear_6_46" x1="-718.625" y1="317.243" x2="1449.9" y2="1349.23" gradientUnits="userSpaceOnUse">
<stop stop-color="#7ED4EF"/>
<stop offset="0.2294" stop-color="#66BFE6"/>
<stop offset="0.711" stop-color="#298BD0"/>
<stop offset="1" stop-color="#0169C2"/>
</linearGradient>
<linearGradient id="paint17_linear_6_46" x1="-722.366" y1="306.142" x2="1458.61" y2="1344.05" gradientUnits="userSpaceOnUse">
<stop stop-color="#7ED4EF"/>
<stop offset="0.2294" stop-color="#66BFE6"/>
<stop offset="0.711" stop-color="#298BD0"/>
<stop offset="1" stop-color="#0169C2"/>
</linearGradient>
<linearGradient id="paint18_linear_6_46" x1="-726.125" y1="295.068" x2="1467.29" y2="1338.9" gradientUnits="userSpaceOnUse">
<stop stop-color="#7ED4EF"/>
<stop offset="0.2294" stop-color="#66BFE6"/>
<stop offset="0.711" stop-color="#298BD0"/>
<stop offset="1" stop-color="#0169C2"/>
</linearGradient>
<linearGradient id="paint19_linear_6_46" x1="-729.891" y1="284.016" x2="1475.97" y2="1333.77" gradientUnits="userSpaceOnUse">
<stop stop-color="#7ED4EF"/>
<stop offset="0.2294" stop-color="#66BFE6"/>
<stop offset="0.711" stop-color="#298BD0"/>
<stop offset="1" stop-color="#0169C2"/>
</linearGradient>
<linearGradient id="paint20_linear_6_46" x1="-733.663" y1="272.981" x2="1484.64" y2="1328.65" gradientUnits="userSpaceOnUse">
<stop stop-color="#7ED4EF"/>
<stop offset="0.2294" stop-color="#66BFE6"/>
<stop offset="0.711" stop-color="#298BD0"/>
<stop offset="1" stop-color="#0169C2"/>
</linearGradient>
<linearGradient id="paint21_linear_6_46" x1="-737.445" y1="261.966" x2="1493.3" y2="1323.56" gradientUnits="userSpaceOnUse">
<stop stop-color="#7ED4EF"/>
<stop offset="0.2294" stop-color="#66BFE6"/>
<stop offset="0.711" stop-color="#298BD0"/>
<stop offset="1" stop-color="#0169C2"/>
</linearGradient>
<linearGradient id="paint22_linear_6_46" x1="-741.234" y1="250.961" x2="1501.95" y2="1318.47" gradientUnits="userSpaceOnUse">
<stop stop-color="#7ED4EF"/>
<stop offset="0.2294" stop-color="#66BFE6"/>
<stop offset="0.711" stop-color="#298BD0"/>
<stop offset="1" stop-color="#0169C2"/>
</linearGradient>
<linearGradient id="paint23_linear_6_46" x1="-745.028" y1="239.97" x2="1510.6" y2="1313.4" gradientUnits="userSpaceOnUse">
<stop stop-color="#7ED4EF"/>
<stop offset="0.2294" stop-color="#66BFE6"/>
<stop offset="0.711" stop-color="#298BD0"/>
<stop offset="1" stop-color="#0169C2"/>
</linearGradient>
<linearGradient id="paint24_linear_6_46" x1="-748.828" y1="228.991" x2="1519.24" y2="1308.34" gradientUnits="userSpaceOnUse">
<stop stop-color="#7ED4EF"/>
<stop offset="0.2294" stop-color="#66BFE6"/>
<stop offset="0.711" stop-color="#298BD0"/>
<stop offset="1" stop-color="#0169C2"/>
</linearGradient>
<linearGradient id="paint25_linear_6_46" x1="-752.632" y1="218.021" x2="1527.87" y2="1303.29" gradientUnits="userSpaceOnUse">
<stop stop-color="#7ED4EF"/>
<stop offset="0.2294" stop-color="#66BFE6"/>
<stop offset="0.711" stop-color="#298BD0"/>
<stop offset="1" stop-color="#0169C2"/>
</linearGradient>
<linearGradient id="paint26_linear_6_46" x1="-756.438" y1="207.058" x2="1536.51" y2="1298.25" gradientUnits="userSpaceOnUse">
<stop stop-color="#7ED4EF"/>
<stop offset="0.2294" stop-color="#66BFE6"/>
<stop offset="0.711" stop-color="#298BD0"/>
<stop offset="1" stop-color="#0169C2"/>
</linearGradient>
<linearGradient id="paint27_linear_6_46" x1="-760.248" y1="196.1" x2="1545.14" y2="1293.22" gradientUnits="userSpaceOnUse">
<stop stop-color="#7ED4EF"/>
<stop offset="0.2294" stop-color="#66BFE6"/>
<stop offset="0.711" stop-color="#298BD0"/>
<stop offset="1" stop-color="#0169C2"/>
</linearGradient>
<linearGradient id="paint28_linear_6_46" x1="-764.059" y1="185.15" x2="1553.77" y2="1288.19" gradientUnits="userSpaceOnUse">
<stop stop-color="#7ED4EF"/>
<stop offset="0.2294" stop-color="#66BFE6"/>
<stop offset="0.711" stop-color="#298BD0"/>
<stop offset="1" stop-color="#0169C2"/>
</linearGradient>
<linearGradient id="paint29_linear_6_46" x1="-767.876" y1="174.207" x2="1562.4" y2="1283.16" gradientUnits="userSpaceOnUse">
<stop stop-color="#7ED4EF"/>
<stop offset="0.2294" stop-color="#66BFE6"/>
<stop offset="0.711" stop-color="#298BD0"/>
<stop offset="1" stop-color="#0169C2"/>
</linearGradient>
<linearGradient id="paint30_linear_6_46" x1="-771.694" y1="163.266" x2="1571.02" y2="1278.14" gradientUnits="userSpaceOnUse">
<stop stop-color="#7ED4EF"/>
<stop offset="0.2294" stop-color="#66BFE6"/>
<stop offset="0.711" stop-color="#298BD0"/>
<stop offset="1" stop-color="#0169C2"/>
</linearGradient>
<linearGradient id="paint31_linear_6_46" x1="-775.514" y1="152.332" x2="1579.64" y2="1273.13" gradientUnits="userSpaceOnUse">
<stop stop-color="#7ED4EF"/>
<stop offset="0.2294" stop-color="#66BFE6"/>
<stop offset="0.711" stop-color="#298BD0"/>
<stop offset="1" stop-color="#0169C2"/>
</linearGradient>
</defs>
</svg>
