<svg xmlns="http://www.w3.org/2000/svg" version="1.1" xmlns:xlink="http://www.w3.org/1999/xlink" xmlns:svgjs="http://svgjs.com/svgjs" width="1920" height="4500" preserveAspectRatio="none" viewBox="0 0 1920 4500"><g mask="url(&quot;#SvgjsMask1396&quot;)" fill="none"><rect width="1920" height="4500" x="0" y="0" fill="rgba(41, 41, 41, 1)"></rect><path d="M85.79 94.89L150.75 132.39L150.75 207.39L85.79 244.89L20.84 207.39L20.84 132.39zM20.84 3132.39L85.79 3169.89L85.79 3244.89L20.84 3282.39L-44.11 3244.89L-44.11 3169.89zM20.84 4032.39L85.79 4069.89L85.79 4144.89L20.84 4182.39L-44.11 4144.89L-44.11 4069.89zM85.79 4369.89L150.75 4407.39L150.75 4482.39L85.79 4519.89L20.84 4482.39L20.84 4407.39zM20.84 4482.39L85.79 4519.89L85.79 4594.89L20.84 4632.39L-44.11 4594.89L-44.11 4519.89zM150.75 207.39L215.7 244.89L215.7 319.89L150.75 357.39L85.79 319.89L85.79 244.89zM150.75 882.39L215.7 919.89L215.7 994.89L150.75 1032.39L85.79 994.89L85.79 919.89zM150.75 2907.39L215.7 2944.89L215.7 3019.89L150.75 3057.39L85.79 3019.89L85.79 2944.89zM150.75 3807.39L215.7 3844.89L215.7 3919.89L150.75 3957.39L85.79 3919.89L85.79 3844.89zM280.65 432.39L345.61 469.89L345.61 544.89L280.65 582.39L215.7 544.89L215.7 469.89zM345.61 2344.89L410.56 2382.39L410.56 2457.39L345.61 2494.89L280.65 2457.39L280.65 2382.39zM345.61 2569.89L410.56 2607.39L410.56 2682.39L345.61 2719.89L280.65 2682.39L280.65 2607.39zM345.61 2794.89L410.56 2832.39L410.56 2907.39L345.61 2944.89L280.65 2907.39L280.65 2832.39zM345.61 3019.89L410.56 3057.39L410.56 3132.39L345.61 3169.89L280.65 3132.39L280.65 3057.39zM410.56 657.39L475.52 694.89L475.52 769.89L410.56 807.39L345.61 769.89L345.61 694.89zM475.52 994.89L540.47 1032.39L540.47 1107.39L475.52 1144.89L410.56 1107.39L410.56 1032.39zM475.52 1444.89L540.47 1482.39L540.47 1557.39L475.52 1594.89L410.56 1557.39L410.56 1482.39zM410.56 3132.39L475.52 3169.89L475.52 3244.89L410.56 3282.39L345.61 3244.89L345.61 3169.89zM475.52 3469.89L540.47 3507.39L540.47 3582.39L475.52 3619.89L410.56 3582.39L410.56 3507.39zM410.56 3807.39L475.52 3844.89L475.52 3919.89L410.56 3957.39L345.61 3919.89L345.61 3844.89zM475.52 3919.89L540.47 3957.39L540.47 4032.39L475.52 4069.89L410.56 4032.39L410.56 3957.39zM475.52 4369.89L540.47 4407.39L540.47 4482.39L475.52 4519.89L410.56 4482.39L410.56 4407.39zM605.42 2119.89L670.38 2157.39L670.38 2232.39L605.42 2269.89L540.47 2232.39L540.47 2157.39zM540.47 3807.39L605.42 3844.89L605.42 3919.89L540.47 3957.39L475.52 3919.89L475.52 3844.89zM670.38 2457.39L735.33 2494.89L735.33 2569.89L670.38 2607.39L605.42 2569.89L605.42 2494.89zM735.33 2794.89L800.29 2832.39L800.29 2907.39L735.33 2944.89L670.38 2907.39L670.38 2832.39zM670.38 3582.39L735.33 3619.89L735.33 3694.89L670.38 3732.39L605.42 3694.89L605.42 3619.89zM865.24 994.89L930.19 1032.39L930.19 1107.39L865.24 1144.89L800.28 1107.39L800.28 1032.39zM800.28 1332.39L865.24 1369.89L865.24 1444.89L800.28 1482.39L735.33 1444.89L735.33 1369.89zM865.24 1894.89L930.19 1932.39L930.19 2007.39L865.24 2044.89L800.28 2007.39L800.28 1932.39zM800.28 2007.39L865.24 2044.89L865.24 2119.89L800.28 2157.39L735.33 2119.89L735.33 2044.89zM800.28 4257.39L865.24 4294.89L865.24 4369.89L800.28 4407.39L735.33 4369.89L735.33 4294.89zM995.15 1444.89L1060.1 1482.39L1060.1 1557.39L995.15 1594.89L930.19 1557.39L930.19 1482.39zM930.19 1782.39L995.15 1819.89L995.15 1894.89L930.19 1932.39L865.24 1894.89L865.24 1819.89zM995.15 3244.89L1060.1 3282.39L1060.1 3357.39L995.15 3394.89L930.19 3357.39L930.19 3282.39zM995.15 3469.89L1060.1 3507.39L1060.1 3582.39L995.15 3619.89L930.19 3582.39L930.19 3507.39zM1125.05 94.89L1190.01 132.39L1190.01 207.39L1125.05 244.89L1060.1 207.39L1060.1 132.39zM1060.1 207.39L1125.05 244.89L1125.05 319.89L1060.1 357.39L995.15 319.89L995.15 244.89zM1060.1 2457.39L1125.05 2494.89L1125.05 2569.89L1060.1 2607.39L995.15 2569.89L995.15 2494.89zM1125.05 2569.89L1190.01 2607.39L1190.01 2682.39L1125.05 2719.89L1060.1 2682.39L1060.1 2607.39zM1125.05 2794.89L1190.01 2832.39L1190.01 2907.39L1125.05 2944.89L1060.1 2907.39L1060.1 2832.39zM1125.05 3694.89L1190.01 3732.39L1190.01 3807.39L1125.05 3844.89L1060.1 3807.39L1060.1 3732.39zM1125.05 4144.89L1190.01 4182.39L1190.01 4257.39L1125.05 4294.89L1060.1 4257.39L1060.1 4182.39zM1190.01 882.39L1254.96 919.89L1254.96 994.89L1190.01 1032.39L1125.05 994.89L1125.05 919.89zM1190.01 1557.39L1254.96 1594.89L1254.96 1669.89L1190.01 1707.39L1125.05 1669.89L1125.05 1594.89zM1190.01 2232.39L1254.96 2269.89L1254.96 2344.89L1190.01 2382.39L1125.05 2344.89L1125.05 2269.89zM1254.96 2794.89L1319.91 2832.39L1319.91 2907.39L1254.96 2944.89L1190.01 2907.39L1190.01 2832.39zM1190.01 3357.39L1254.96 3394.89L1254.96 3469.89L1190.01 3507.39L1125.05 3469.89L1125.05 3394.89zM1190.01 3807.39L1254.96 3844.89L1254.96 3919.89L1190.01 3957.39L1125.05 3919.89L1125.05 3844.89zM1384.87 319.89L1449.82 357.39L1449.82 432.39L1384.87 469.89L1319.91 432.39L1319.91 357.39zM1384.87 1894.89L1449.82 1932.39L1449.82 2007.39L1384.87 2044.89L1319.91 2007.39L1319.91 1932.39zM1384.87 4369.89L1449.82 4407.39L1449.82 4482.39L1384.87 4519.89L1319.91 4482.39L1319.91 4407.39zM1514.78 1894.89L1579.73 1932.39L1579.73 2007.39L1514.78 2044.89L1449.82 2007.39L1449.82 1932.39zM1449.82 2457.39L1514.78 2494.89L1514.78 2569.89L1449.82 2607.39L1384.87 2569.89L1384.87 2494.89zM1449.82 2907.39L1514.78 2944.89L1514.78 3019.89L1449.82 3057.39L1384.87 3019.89L1384.87 2944.89zM1514.78 4144.89L1579.73 4182.39L1579.73 4257.39L1514.78 4294.89L1449.82 4257.39L1449.82 4182.39zM1644.68 544.89L1709.64 582.39L1709.64 657.39L1644.68 694.89L1579.73 657.39L1579.73 582.39zM1579.73 2682.39L1644.68 2719.89L1644.68 2794.89L1579.73 2832.39L1514.78 2794.89L1514.78 2719.89zM1644.68 4369.89L1709.64 4407.39L1709.64 4482.39L1644.68 4519.89L1579.73 4482.39L1579.73 4407.39zM1774.59 1894.89L1839.54 1932.39L1839.54 2007.39L1774.59 2044.89L1709.64 2007.39L1709.64 1932.39zM1904.5 1444.89L1969.45 1482.39L1969.45 1557.39L1904.5 1594.89L1839.54 1557.39L1839.54 1482.39zM1904.5 2794.89L1969.45 2832.39L1969.45 2907.39L1904.5 2944.89L1839.54 2907.39L1839.54 2832.39zM1839.54 3807.39L1904.5 3844.89L1904.5 3919.89L1839.54 3957.39L1774.59 3919.89L1774.59 3844.89zM1839.54 4482.39L1904.5 4519.89L1904.5 4594.89L1839.54 4632.39L1774.59 4594.89L1774.59 4519.89z" stroke="url(#SvgjsLinearGradient1397)" stroke-width="2"></path><path d="M78.29 94.89 a7.5 7.5 0 1 0 15 0 a7.5 7.5 0 1 0 -15 0zM143.25 132.39 a7.5 7.5 0 1 0 15 0 a7.5 7.5 0 1 0 -15 0zM143.25 207.39 a7.5 7.5 0 1 0 15 0 a7.5 7.5 0 1 0 -15 0zM78.29 244.89 a7.5 7.5 0 1 0 15 0 a7.5 7.5 0 1 0 -15 0zM13.34 207.39 a7.5 7.5 0 1 0 15 0 a7.5 7.5 0 1 0 -15 0zM13.34 132.39 a7.5 7.5 0 1 0 15 0 a7.5 7.5 0 1 0 -15 0zM13.34 3132.39 a7.5 7.5 0 1 0 15 0 a7.5 7.5 0 1 0 -15 0zM78.29 3169.89 a7.5 7.5 0 1 0 15 0 a7.5 7.5 0 1 0 -15 0zM78.29 3244.89 a7.5 7.5 0 1 0 15 0 a7.5 7.5 0 1 0 -15 0zM13.34 3282.39 a7.5 7.5 0 1 0 15 0 a7.5 7.5 0 1 0 -15 0zM-51.61 3244.89 a7.5 7.5 0 1 0 15 0 a7.5 7.5 0 1 0 -15 0zM-51.61 3169.89 a7.5 7.5 0 1 0 15 0 a7.5 7.5 0 1 0 -15 0zM13.34 4032.39 a7.5 7.5 0 1 0 15 0 a7.5 7.5 0 1 0 -15 0zM78.29 4069.89 a7.5 7.5 0 1 0 15 0 a7.5 7.5 0 1 0 -15 0zM78.29 4144.89 a7.5 7.5 0 1 0 15 0 a7.5 7.5 0 1 0 -15 0zM13.34 4182.39 a7.5 7.5 0 1 0 15 0 a7.5 7.5 0 1 0 -15 0zM-51.61 4144.89 a7.5 7.5 0 1 0 15 0 a7.5 7.5 0 1 0 -15 0zM-51.61 4069.89 a7.5 7.5 0 1 0 15 0 a7.5 7.5 0 1 0 -15 0zM78.29 4369.89 a7.5 7.5 0 1 0 15 0 a7.5 7.5 0 1 0 -15 0zM143.25 4407.39 a7.5 7.5 0 1 0 15 0 a7.5 7.5 0 1 0 -15 0zM143.25 4482.39 a7.5 7.5 0 1 0 15 0 a7.5 7.5 0 1 0 -15 0zM78.29 4519.89 a7.5 7.5 0 1 0 15 0 a7.5 7.5 0 1 0 -15 0zM13.34 4482.39 a7.5 7.5 0 1 0 15 0 a7.5 7.5 0 1 0 -15 0zM13.34 4407.39 a7.5 7.5 0 1 0 15 0 a7.5 7.5 0 1 0 -15 0zM78.29 4594.89 a7.5 7.5 0 1 0 15 0 a7.5 7.5 0 1 0 -15 0zM13.34 4632.39 a7.5 7.5 0 1 0 15 0 a7.5 7.5 0 1 0 -15 0zM-51.61 4594.89 a7.5 7.5 0 1 0 15 0 a7.5 7.5 0 1 0 -15 0zM-51.61 4519.89 a7.5 7.5 0 1 0 15 0 a7.5 7.5 0 1 0 -15 0zM208.2 244.89 a7.5 7.5 0 1 0 15 0 a7.5 7.5 0 1 0 -15 0zM208.2 319.89 a7.5 7.5 0 1 0 15 0 a7.5 7.5 0 1 0 -15 0zM143.25 357.39 a7.5 7.5 0 1 0 15 0 a7.5 7.5 0 1 0 -15 0zM78.29 319.89 a7.5 7.5 0 1 0 15 0 a7.5 7.5 0 1 0 -15 0zM143.25 882.39 a7.5 7.5 0 1 0 15 0 a7.5 7.5 0 1 0 -15 0zM208.2 919.89 a7.5 7.5 0 1 0 15 0 a7.5 7.5 0 1 0 -15 0zM208.2 994.89 a7.5 7.5 0 1 0 15 0 a7.5 7.5 0 1 0 -15 0zM143.25 1032.39 a7.5 7.5 0 1 0 15 0 a7.5 7.5 0 1 0 -15 0zM78.29 994.89 a7.5 7.5 0 1 0 15 0 a7.5 7.5 0 1 0 -15 0zM78.29 919.89 a7.5 7.5 0 1 0 15 0 a7.5 7.5 0 1 0 -15 0zM143.25 2907.39 a7.5 7.5 0 1 0 15 0 a7.5 7.5 0 1 0 -15 0zM208.2 2944.89 a7.5 7.5 0 1 0 15 0 a7.5 7.5 0 1 0 -15 0zM208.2 3019.89 a7.5 7.5 0 1 0 15 0 a7.5 7.5 0 1 0 -15 0zM143.25 3057.39 a7.5 7.5 0 1 0 15 0 a7.5 7.5 0 1 0 -15 0zM78.29 3019.89 a7.5 7.5 0 1 0 15 0 a7.5 7.5 0 1 0 -15 0zM78.29 2944.89 a7.5 7.5 0 1 0 15 0 a7.5 7.5 0 1 0 -15 0zM143.25 3807.39 a7.5 7.5 0 1 0 15 0 a7.5 7.5 0 1 0 -15 0zM208.2 3844.89 a7.5 7.5 0 1 0 15 0 a7.5 7.5 0 1 0 -15 0zM208.2 3919.89 a7.5 7.5 0 1 0 15 0 a7.5 7.5 0 1 0 -15 0zM143.25 3957.39 a7.5 7.5 0 1 0 15 0 a7.5 7.5 0 1 0 -15 0zM78.29 3919.89 a7.5 7.5 0 1 0 15 0 a7.5 7.5 0 1 0 -15 0zM78.29 3844.89 a7.5 7.5 0 1 0 15 0 a7.5 7.5 0 1 0 -15 0zM273.15 432.39 a7.5 7.5 0 1 0 15 0 a7.5 7.5 0 1 0 -15 0zM338.11 469.89 a7.5 7.5 0 1 0 15 0 a7.5 7.5 0 1 0 -15 0zM338.11 544.89 a7.5 7.5 0 1 0 15 0 a7.5 7.5 0 1 0 -15 0zM273.15 582.39 a7.5 7.5 0 1 0 15 0 a7.5 7.5 0 1 0 -15 0zM208.2 544.89 a7.5 7.5 0 1 0 15 0 a7.5 7.5 0 1 0 -15 0zM208.2 469.89 a7.5 7.5 0 1 0 15 0 a7.5 7.5 0 1 0 -15 0zM338.11 2344.89 a7.5 7.5 0 1 0 15 0 a7.5 7.5 0 1 0 -15 0zM403.06 2382.39 a7.5 7.5 0 1 0 15 0 a7.5 7.5 0 1 0 -15 0zM403.06 2457.39 a7.5 7.5 0 1 0 15 0 a7.5 7.5 0 1 0 -15 0zM338.11 2494.89 a7.5 7.5 0 1 0 15 0 a7.5 7.5 0 1 0 -15 0zM273.15 2457.39 a7.5 7.5 0 1 0 15 0 a7.5 7.5 0 1 0 -15 0zM273.15 2382.39 a7.5 7.5 0 1 0 15 0 a7.5 7.5 0 1 0 -15 0zM338.11 2569.89 a7.5 7.5 0 1 0 15 0 a7.5 7.5 0 1 0 -15 0zM403.06 2607.39 a7.5 7.5 0 1 0 15 0 a7.5 7.5 0 1 0 -15 0zM403.06 2682.39 a7.5 7.5 0 1 0 15 0 a7.5 7.5 0 1 0 -15 0zM338.11 2719.89 a7.5 7.5 0 1 0 15 0 a7.5 7.5 0 1 0 -15 0zM273.15 2682.39 a7.5 7.5 0 1 0 15 0 a7.5 7.5 0 1 0 -15 0zM273.15 2607.39 a7.5 7.5 0 1 0 15 0 a7.5 7.5 0 1 0 -15 0zM338.11 2794.89 a7.5 7.5 0 1 0 15 0 a7.5 7.5 0 1 0 -15 0zM403.06 2832.39 a7.5 7.5 0 1 0 15 0 a7.5 7.5 0 1 0 -15 0zM403.06 2907.39 a7.5 7.5 0 1 0 15 0 a7.5 7.5 0 1 0 -15 0zM338.11 2944.89 a7.5 7.5 0 1 0 15 0 a7.5 7.5 0 1 0 -15 0zM273.15 2907.39 a7.5 7.5 0 1 0 15 0 a7.5 7.5 0 1 0 -15 0zM273.15 2832.39 a7.5 7.5 0 1 0 15 0 a7.5 7.5 0 1 0 -15 0zM338.11 3019.89 a7.5 7.5 0 1 0 15 0 a7.5 7.5 0 1 0 -15 0zM403.06 3057.39 a7.5 7.5 0 1 0 15 0 a7.5 7.5 0 1 0 -15 0zM403.06 3132.39 a7.5 7.5 0 1 0 15 0 a7.5 7.5 0 1 0 -15 0zM338.11 3169.89 a7.5 7.5 0 1 0 15 0 a7.5 7.5 0 1 0 -15 0zM273.15 3132.39 a7.5 7.5 0 1 0 15 0 a7.5 7.5 0 1 0 -15 0zM273.15 3057.39 a7.5 7.5 0 1 0 15 0 a7.5 7.5 0 1 0 -15 0zM403.06 657.39 a7.5 7.5 0 1 0 15 0 a7.5 7.5 0 1 0 -15 0zM468.02 694.89 a7.5 7.5 0 1 0 15 0 a7.5 7.5 0 1 0 -15 0zM468.02 769.89 a7.5 7.5 0 1 0 15 0 a7.5 7.5 0 1 0 -15 0zM403.06 807.39 a7.5 7.5 0 1 0 15 0 a7.5 7.5 0 1 0 -15 0zM338.11 769.89 a7.5 7.5 0 1 0 15 0 a7.5 7.5 0 1 0 -15 0zM338.11 694.89 a7.5 7.5 0 1 0 15 0 a7.5 7.5 0 1 0 -15 0zM468.02 994.89 a7.5 7.5 0 1 0 15 0 a7.5 7.5 0 1 0 -15 0zM532.97 1032.39 a7.5 7.5 0 1 0 15 0 a7.5 7.5 0 1 0 -15 0zM532.97 1107.39 a7.5 7.5 0 1 0 15 0 a7.5 7.5 0 1 0 -15 0zM468.02 1144.89 a7.5 7.5 0 1 0 15 0 a7.5 7.5 0 1 0 -15 0zM403.06 1107.39 a7.5 7.5 0 1 0 15 0 a7.5 7.5 0 1 0 -15 0zM403.06 1032.39 a7.5 7.5 0 1 0 15 0 a7.5 7.5 0 1 0 -15 0zM468.02 1444.89 a7.5 7.5 0 1 0 15 0 a7.5 7.5 0 1 0 -15 0zM532.97 1482.39 a7.5 7.5 0 1 0 15 0 a7.5 7.5 0 1 0 -15 0zM532.97 1557.39 a7.5 7.5 0 1 0 15 0 a7.5 7.5 0 1 0 -15 0zM468.02 1594.89 a7.5 7.5 0 1 0 15 0 a7.5 7.5 0 1 0 -15 0zM403.06 1557.39 a7.5 7.5 0 1 0 15 0 a7.5 7.5 0 1 0 -15 0zM403.06 1482.39 a7.5 7.5 0 1 0 15 0 a7.5 7.5 0 1 0 -15 0zM468.02 3169.89 a7.5 7.5 0 1 0 15 0 a7.5 7.5 0 1 0 -15 0zM468.02 3244.89 a7.5 7.5 0 1 0 15 0 a7.5 7.5 0 1 0 -15 0zM403.06 3282.39 a7.5 7.5 0 1 0 15 0 a7.5 7.5 0 1 0 -15 0zM338.11 3244.89 a7.5 7.5 0 1 0 15 0 a7.5 7.5 0 1 0 -15 0zM468.02 3469.89 a7.5 7.5 0 1 0 15 0 a7.5 7.5 0 1 0 -15 0zM532.97 3507.39 a7.5 7.5 0 1 0 15 0 a7.5 7.5 0 1 0 -15 0zM532.97 3582.39 a7.5 7.5 0 1 0 15 0 a7.5 7.5 0 1 0 -15 0zM468.02 3619.89 a7.5 7.5 0 1 0 15 0 a7.5 7.5 0 1 0 -15 0zM403.06 3582.39 a7.5 7.5 0 1 0 15 0 a7.5 7.5 0 1 0 -15 0zM403.06 3507.39 a7.5 7.5 0 1 0 15 0 a7.5 7.5 0 1 0 -15 0zM403.06 3807.39 a7.5 7.5 0 1 0 15 0 a7.5 7.5 0 1 0 -15 0zM468.02 3844.89 a7.5 7.5 0 1 0 15 0 a7.5 7.5 0 1 0 -15 0zM468.02 3919.89 a7.5 7.5 0 1 0 15 0 a7.5 7.5 0 1 0 -15 0zM403.06 3957.39 a7.5 7.5 0 1 0 15 0 a7.5 7.5 0 1 0 -15 0zM338.11 3919.89 a7.5 7.5 0 1 0 15 0 a7.5 7.5 0 1 0 -15 0zM338.11 3844.89 a7.5 7.5 0 1 0 15 0 a7.5 7.5 0 1 0 -15 0zM532.97 3957.39 a7.5 7.5 0 1 0 15 0 a7.5 7.5 0 1 0 -15 0zM532.97 4032.39 a7.5 7.5 0 1 0 15 0 a7.5 7.5 0 1 0 -15 0zM468.02 4069.89 a7.5 7.5 0 1 0 15 0 a7.5 7.5 0 1 0 -15 0zM403.06 4032.39 a7.5 7.5 0 1 0 15 0 a7.5 7.5 0 1 0 -15 0zM468.02 4369.89 a7.5 7.5 0 1 0 15 0 a7.5 7.5 0 1 0 -15 0zM532.97 4407.39 a7.5 7.5 0 1 0 15 0 a7.5 7.5 0 1 0 -15 0zM532.97 4482.39 a7.5 7.5 0 1 0 15 0 a7.5 7.5 0 1 0 -15 0zM468.02 4519.89 a7.5 7.5 0 1 0 15 0 a7.5 7.5 0 1 0 -15 0zM403.06 4482.39 a7.5 7.5 0 1 0 15 0 a7.5 7.5 0 1 0 -15 0zM403.06 4407.39 a7.5 7.5 0 1 0 15 0 a7.5 7.5 0 1 0 -15 0zM597.92 2119.89 a7.5 7.5 0 1 0 15 0 a7.5 7.5 0 1 0 -15 0zM662.88 2157.39 a7.5 7.5 0 1 0 15 0 a7.5 7.5 0 1 0 -15 0zM662.88 2232.39 a7.5 7.5 0 1 0 15 0 a7.5 7.5 0 1 0 -15 0zM597.92 2269.89 a7.5 7.5 0 1 0 15 0 a7.5 7.5 0 1 0 -15 0zM532.97 2232.39 a7.5 7.5 0 1 0 15 0 a7.5 7.5 0 1 0 -15 0zM532.97 2157.39 a7.5 7.5 0 1 0 15 0 a7.5 7.5 0 1 0 -15 0zM532.97 3807.39 a7.5 7.5 0 1 0 15 0 a7.5 7.5 0 1 0 -15 0zM597.92 3844.89 a7.5 7.5 0 1 0 15 0 a7.5 7.5 0 1 0 -15 0zM597.92 3919.89 a7.5 7.5 0 1 0 15 0 a7.5 7.5 0 1 0 -15 0zM662.88 2457.39 a7.5 7.5 0 1 0 15 0 a7.5 7.5 0 1 0 -15 0zM727.83 2494.89 a7.5 7.5 0 1 0 15 0 a7.5 7.5 0 1 0 -15 0zM727.83 2569.89 a7.5 7.5 0 1 0 15 0 a7.5 7.5 0 1 0 -15 0zM662.88 2607.39 a7.5 7.5 0 1 0 15 0 a7.5 7.5 0 1 0 -15 0zM597.92 2569.89 a7.5 7.5 0 1 0 15 0 a7.5 7.5 0 1 0 -15 0zM597.92 2494.89 a7.5 7.5 0 1 0 15 0 a7.5 7.5 0 1 0 -15 0zM727.83 2794.89 a7.5 7.5 0 1 0 15 0 a7.5 7.5 0 1 0 -15 0zM792.79 2832.39 a7.5 7.5 0 1 0 15 0 a7.5 7.5 0 1 0 -15 0zM792.79 2907.39 a7.5 7.5 0 1 0 15 0 a7.5 7.5 0 1 0 -15 0zM727.83 2944.89 a7.5 7.5 0 1 0 15 0 a7.5 7.5 0 1 0 -15 0zM662.88 2907.39 a7.5 7.5 0 1 0 15 0 a7.5 7.5 0 1 0 -15 0zM662.88 2832.39 a7.5 7.5 0 1 0 15 0 a7.5 7.5 0 1 0 -15 0zM662.88 3582.39 a7.5 7.5 0 1 0 15 0 a7.5 7.5 0 1 0 -15 0zM727.83 3619.89 a7.5 7.5 0 1 0 15 0 a7.5 7.5 0 1 0 -15 0zM727.83 3694.89 a7.5 7.5 0 1 0 15 0 a7.5 7.5 0 1 0 -15 0zM662.88 3732.39 a7.5 7.5 0 1 0 15 0 a7.5 7.5 0 1 0 -15 0zM597.92 3694.89 a7.5 7.5 0 1 0 15 0 a7.5 7.5 0 1 0 -15 0zM597.92 3619.89 a7.5 7.5 0 1 0 15 0 a7.5 7.5 0 1 0 -15 0zM857.74 994.89 a7.5 7.5 0 1 0 15 0 a7.5 7.5 0 1 0 -15 0zM922.69 1032.39 a7.5 7.5 0 1 0 15 0 a7.5 7.5 0 1 0 -15 0zM922.69 1107.39 a7.5 7.5 0 1 0 15 0 a7.5 7.5 0 1 0 -15 0zM857.74 1144.89 a7.5 7.5 0 1 0 15 0 a7.5 7.5 0 1 0 -15 0zM792.78 1107.39 a7.5 7.5 0 1 0 15 0 a7.5 7.5 0 1 0 -15 0zM792.78 1032.39 a7.5 7.5 0 1 0 15 0 a7.5 7.5 0 1 0 -15 0zM792.78 1332.39 a7.5 7.5 0 1 0 15 0 a7.5 7.5 0 1 0 -15 0zM857.74 1369.89 a7.5 7.5 0 1 0 15 0 a7.5 7.5 0 1 0 -15 0zM857.74 1444.89 a7.5 7.5 0 1 0 15 0 a7.5 7.5 0 1 0 -15 0zM792.78 1482.39 a7.5 7.5 0 1 0 15 0 a7.5 7.5 0 1 0 -15 0zM727.83 1444.89 a7.5 7.5 0 1 0 15 0 a7.5 7.5 0 1 0 -15 0zM727.83 1369.89 a7.5 7.5 0 1 0 15 0 a7.5 7.5 0 1 0 -15 0zM857.74 1894.89 a7.5 7.5 0 1 0 15 0 a7.5 7.5 0 1 0 -15 0zM922.69 1932.39 a7.5 7.5 0 1 0 15 0 a7.5 7.5 0 1 0 -15 0zM922.69 2007.39 a7.5 7.5 0 1 0 15 0 a7.5 7.5 0 1 0 -15 0zM857.74 2044.89 a7.5 7.5 0 1 0 15 0 a7.5 7.5 0 1 0 -15 0zM792.78 2007.39 a7.5 7.5 0 1 0 15 0 a7.5 7.5 0 1 0 -15 0zM792.78 1932.39 a7.5 7.5 0 1 0 15 0 a7.5 7.5 0 1 0 -15 0zM857.74 2119.89 a7.5 7.5 0 1 0 15 0 a7.5 7.5 0 1 0 -15 0zM792.78 2157.39 a7.5 7.5 0 1 0 15 0 a7.5 7.5 0 1 0 -15 0zM727.83 2119.89 a7.5 7.5 0 1 0 15 0 a7.5 7.5 0 1 0 -15 0zM727.83 2044.89 a7.5 7.5 0 1 0 15 0 a7.5 7.5 0 1 0 -15 0zM792.78 4257.39 a7.5 7.5 0 1 0 15 0 a7.5 7.5 0 1 0 -15 0zM857.74 4294.89 a7.5 7.5 0 1 0 15 0 a7.5 7.5 0 1 0 -15 0zM857.74 4369.89 a7.5 7.5 0 1 0 15 0 a7.5 7.5 0 1 0 -15 0zM792.78 4407.39 a7.5 7.5 0 1 0 15 0 a7.5 7.5 0 1 0 -15 0zM727.83 4369.89 a7.5 7.5 0 1 0 15 0 a7.5 7.5 0 1 0 -15 0zM727.83 4294.89 a7.5 7.5 0 1 0 15 0 a7.5 7.5 0 1 0 -15 0zM987.65 1444.89 a7.5 7.5 0 1 0 15 0 a7.5 7.5 0 1 0 -15 0zM1052.6 1482.39 a7.5 7.5 0 1 0 15 0 a7.5 7.5 0 1 0 -15 0zM1052.6 1557.39 a7.5 7.5 0 1 0 15 0 a7.5 7.5 0 1 0 -15 0zM987.65 1594.89 a7.5 7.5 0 1 0 15 0 a7.5 7.5 0 1 0 -15 0zM922.69 1557.39 a7.5 7.5 0 1 0 15 0 a7.5 7.5 0 1 0 -15 0zM922.69 1482.39 a7.5 7.5 0 1 0 15 0 a7.5 7.5 0 1 0 -15 0zM922.69 1782.39 a7.5 7.5 0 1 0 15 0 a7.5 7.5 0 1 0 -15 0zM987.65 1819.89 a7.5 7.5 0 1 0 15 0 a7.5 7.5 0 1 0 -15 0zM987.65 1894.89 a7.5 7.5 0 1 0 15 0 a7.5 7.5 0 1 0 -15 0zM857.74 1819.89 a7.5 7.5 0 1 0 15 0 a7.5 7.5 0 1 0 -15 0zM987.65 3244.89 a7.5 7.5 0 1 0 15 0 a7.5 7.5 0 1 0 -15 0zM1052.6 3282.39 a7.5 7.5 0 1 0 15 0 a7.5 7.5 0 1 0 -15 0zM1052.6 3357.39 a7.5 7.5 0 1 0 15 0 a7.5 7.5 0 1 0 -15 0zM987.65 3394.89 a7.5 7.5 0 1 0 15 0 a7.5 7.5 0 1 0 -15 0zM922.69 3357.39 a7.5 7.5 0 1 0 15 0 a7.5 7.5 0 1 0 -15 0zM922.69 3282.39 a7.5 7.5 0 1 0 15 0 a7.5 7.5 0 1 0 -15 0zM987.65 3469.89 a7.5 7.5 0 1 0 15 0 a7.5 7.5 0 1 0 -15 0zM1052.6 3507.39 a7.5 7.5 0 1 0 15 0 a7.5 7.5 0 1 0 -15 0zM1052.6 3582.39 a7.5 7.5 0 1 0 15 0 a7.5 7.5 0 1 0 -15 0zM987.65 3619.89 a7.5 7.5 0 1 0 15 0 a7.5 7.5 0 1 0 -15 0zM922.69 3582.39 a7.5 7.5 0 1 0 15 0 a7.5 7.5 0 1 0 -15 0zM922.69 3507.39 a7.5 7.5 0 1 0 15 0 a7.5 7.5 0 1 0 -15 0zM1117.55 94.89 a7.5 7.5 0 1 0 15 0 a7.5 7.5 0 1 0 -15 0zM1182.51 132.39 a7.5 7.5 0 1 0 15 0 a7.5 7.5 0 1 0 -15 0zM1182.51 207.39 a7.5 7.5 0 1 0 15 0 a7.5 7.5 0 1 0 -15 0zM1117.55 244.89 a7.5 7.5 0 1 0 15 0 a7.5 7.5 0 1 0 -15 0zM1052.6 207.39 a7.5 7.5 0 1 0 15 0 a7.5 7.5 0 1 0 -15 0zM1052.6 132.39 a7.5 7.5 0 1 0 15 0 a7.5 7.5 0 1 0 -15 0zM1117.55 319.89 a7.5 7.5 0 1 0 15 0 a7.5 7.5 0 1 0 -15 0zM1052.6 357.39 a7.5 7.5 0 1 0 15 0 a7.5 7.5 0 1 0 -15 0zM987.65 319.89 a7.5 7.5 0 1 0 15 0 a7.5 7.5 0 1 0 -15 0zM987.65 244.89 a7.5 7.5 0 1 0 15 0 a7.5 7.5 0 1 0 -15 0zM1052.6 2457.39 a7.5 7.5 0 1 0 15 0 a7.5 7.5 0 1 0 -15 0zM1117.55 2494.89 a7.5 7.5 0 1 0 15 0 a7.5 7.5 0 1 0 -15 0zM1117.55 2569.89 a7.5 7.5 0 1 0 15 0 a7.5 7.5 0 1 0 -15 0zM1052.6 2607.39 a7.5 7.5 0 1 0 15 0 a7.5 7.5 0 1 0 -15 0zM987.65 2569.89 a7.5 7.5 0 1 0 15 0 a7.5 7.5 0 1 0 -15 0zM987.65 2494.89 a7.5 7.5 0 1 0 15 0 a7.5 7.5 0 1 0 -15 0zM1182.51 2607.39 a7.5 7.5 0 1 0 15 0 a7.5 7.5 0 1 0 -15 0zM1182.51 2682.39 a7.5 7.5 0 1 0 15 0 a7.5 7.5 0 1 0 -15 0zM1117.55 2719.89 a7.5 7.5 0 1 0 15 0 a7.5 7.5 0 1 0 -15 0zM1052.6 2682.39 a7.5 7.5 0 1 0 15 0 a7.5 7.5 0 1 0 -15 0zM1117.55 2794.89 a7.5 7.5 0 1 0 15 0 a7.5 7.5 0 1 0 -15 0zM1182.51 2832.39 a7.5 7.5 0 1 0 15 0 a7.5 7.5 0 1 0 -15 0zM1182.51 2907.39 a7.5 7.5 0 1 0 15 0 a7.5 7.5 0 1 0 -15 0zM1117.55 2944.89 a7.5 7.5 0 1 0 15 0 a7.5 7.5 0 1 0 -15 0zM1052.6 2907.39 a7.5 7.5 0 1 0 15 0 a7.5 7.5 0 1 0 -15 0zM1052.6 2832.39 a7.5 7.5 0 1 0 15 0 a7.5 7.5 0 1 0 -15 0zM1117.55 3694.89 a7.5 7.5 0 1 0 15 0 a7.5 7.5 0 1 0 -15 0zM1182.51 3732.39 a7.5 7.5 0 1 0 15 0 a7.5 7.5 0 1 0 -15 0zM1182.51 3807.39 a7.5 7.5 0 1 0 15 0 a7.5 7.5 0 1 0 -15 0zM1117.55 3844.89 a7.5 7.5 0 1 0 15 0 a7.5 7.5 0 1 0 -15 0zM1052.6 3807.39 a7.5 7.5 0 1 0 15 0 a7.5 7.5 0 1 0 -15 0zM1052.6 3732.39 a7.5 7.5 0 1 0 15 0 a7.5 7.5 0 1 0 -15 0zM1117.55 4144.89 a7.5 7.5 0 1 0 15 0 a7.5 7.5 0 1 0 -15 0zM1182.51 4182.39 a7.5 7.5 0 1 0 15 0 a7.5 7.5 0 1 0 -15 0zM1182.51 4257.39 a7.5 7.5 0 1 0 15 0 a7.5 7.5 0 1 0 -15 0zM1117.55 4294.89 a7.5 7.5 0 1 0 15 0 a7.5 7.5 0 1 0 -15 0zM1052.6 4257.39 a7.5 7.5 0 1 0 15 0 a7.5 7.5 0 1 0 -15 0zM1052.6 4182.39 a7.5 7.5 0 1 0 15 0 a7.5 7.5 0 1 0 -15 0zM1182.51 882.39 a7.5 7.5 0 1 0 15 0 a7.5 7.5 0 1 0 -15 0zM1247.46 919.89 a7.5 7.5 0 1 0 15 0 a7.5 7.5 0 1 0 -15 0zM1247.46 994.89 a7.5 7.5 0 1 0 15 0 a7.5 7.5 0 1 0 -15 0zM1182.51 1032.39 a7.5 7.5 0 1 0 15 0 a7.5 7.5 0 1 0 -15 0zM1117.55 994.89 a7.5 7.5 0 1 0 15 0 a7.5 7.5 0 1 0 -15 0zM1117.55 919.89 a7.5 7.5 0 1 0 15 0 a7.5 7.5 0 1 0 -15 0zM1182.51 1557.39 a7.5 7.5 0 1 0 15 0 a7.5 7.5 0 1 0 -15 0zM1247.46 1594.89 a7.5 7.5 0 1 0 15 0 a7.5 7.5 0 1 0 -15 0zM1247.46 1669.89 a7.5 7.5 0 1 0 15 0 a7.5 7.5 0 1 0 -15 0zM1182.51 1707.39 a7.5 7.5 0 1 0 15 0 a7.5 7.5 0 1 0 -15 0zM1117.55 1669.89 a7.5 7.5 0 1 0 15 0 a7.5 7.5 0 1 0 -15 0zM1117.55 1594.89 a7.5 7.5 0 1 0 15 0 a7.5 7.5 0 1 0 -15 0zM1182.51 2232.39 a7.5 7.5 0 1 0 15 0 a7.5 7.5 0 1 0 -15 0zM1247.46 2269.89 a7.5 7.5 0 1 0 15 0 a7.5 7.5 0 1 0 -15 0zM1247.46 2344.89 a7.5 7.5 0 1 0 15 0 a7.5 7.5 0 1 0 -15 0zM1182.51 2382.39 a7.5 7.5 0 1 0 15 0 a7.5 7.5 0 1 0 -15 0zM1117.55 2344.89 a7.5 7.5 0 1 0 15 0 a7.5 7.5 0 1 0 -15 0zM1117.55 2269.89 a7.5 7.5 0 1 0 15 0 a7.5 7.5 0 1 0 -15 0zM1247.46 2794.89 a7.5 7.5 0 1 0 15 0 a7.5 7.5 0 1 0 -15 0zM1312.41 2832.39 a7.5 7.5 0 1 0 15 0 a7.5 7.5 0 1 0 -15 0zM1312.41 2907.39 a7.5 7.5 0 1 0 15 0 a7.5 7.5 0 1 0 -15 0zM1247.46 2944.89 a7.5 7.5 0 1 0 15 0 a7.5 7.5 0 1 0 -15 0zM1182.51 3357.39 a7.5 7.5 0 1 0 15 0 a7.5 7.5 0 1 0 -15 0zM1247.46 3394.89 a7.5 7.5 0 1 0 15 0 a7.5 7.5 0 1 0 -15 0zM1247.46 3469.89 a7.5 7.5 0 1 0 15 0 a7.5 7.5 0 1 0 -15 0zM1182.51 3507.39 a7.5 7.5 0 1 0 15 0 a7.5 7.5 0 1 0 -15 0zM1117.55 3469.89 a7.5 7.5 0 1 0 15 0 a7.5 7.5 0 1 0 -15 0zM1117.55 3394.89 a7.5 7.5 0 1 0 15 0 a7.5 7.5 0 1 0 -15 0zM1247.46 3844.89 a7.5 7.5 0 1 0 15 0 a7.5 7.5 0 1 0 -15 0zM1247.46 3919.89 a7.5 7.5 0 1 0 15 0 a7.5 7.5 0 1 0 -15 0zM1182.51 3957.39 a7.5 7.5 0 1 0 15 0 a7.5 7.5 0 1 0 -15 0zM1117.55 3919.89 a7.5 7.5 0 1 0 15 0 a7.5 7.5 0 1 0 -15 0zM1377.37 319.89 a7.5 7.5 0 1 0 15 0 a7.5 7.5 0 1 0 -15 0zM1442.32 357.39 a7.5 7.5 0 1 0 15 0 a7.5 7.5 0 1 0 -15 0zM1442.32 432.39 a7.5 7.5 0 1 0 15 0 a7.5 7.5 0 1 0 -15 0zM1377.37 469.89 a7.5 7.5 0 1 0 15 0 a7.5 7.5 0 1 0 -15 0zM1312.41 432.39 a7.5 7.5 0 1 0 15 0 a7.5 7.5 0 1 0 -15 0zM1312.41 357.39 a7.5 7.5 0 1 0 15 0 a7.5 7.5 0 1 0 -15 0zM1377.37 1894.89 a7.5 7.5 0 1 0 15 0 a7.5 7.5 0 1 0 -15 0zM1442.32 1932.39 a7.5 7.5 0 1 0 15 0 a7.5 7.5 0 1 0 -15 0zM1442.32 2007.39 a7.5 7.5 0 1 0 15 0 a7.5 7.5 0 1 0 -15 0zM1377.37 2044.89 a7.5 7.5 0 1 0 15 0 a7.5 7.5 0 1 0 -15 0zM1312.41 2007.39 a7.5 7.5 0 1 0 15 0 a7.5 7.5 0 1 0 -15 0zM1312.41 1932.39 a7.5 7.5 0 1 0 15 0 a7.5 7.5 0 1 0 -15 0zM1377.37 4369.89 a7.5 7.5 0 1 0 15 0 a7.5 7.5 0 1 0 -15 0zM1442.32 4407.39 a7.5 7.5 0 1 0 15 0 a7.5 7.5 0 1 0 -15 0zM1442.32 4482.39 a7.5 7.5 0 1 0 15 0 a7.5 7.5 0 1 0 -15 0zM1377.37 4519.89 a7.5 7.5 0 1 0 15 0 a7.5 7.5 0 1 0 -15 0zM1312.41 4482.39 a7.5 7.5 0 1 0 15 0 a7.5 7.5 0 1 0 -15 0zM1312.41 4407.39 a7.5 7.5 0 1 0 15 0 a7.5 7.5 0 1 0 -15 0zM1507.28 1894.89 a7.5 7.5 0 1 0 15 0 a7.5 7.5 0 1 0 -15 0zM1572.23 1932.39 a7.5 7.5 0 1 0 15 0 a7.5 7.5 0 1 0 -15 0zM1572.23 2007.39 a7.5 7.5 0 1 0 15 0 a7.5 7.5 0 1 0 -15 0zM1507.28 2044.89 a7.5 7.5 0 1 0 15 0 a7.5 7.5 0 1 0 -15 0zM1442.32 2457.39 a7.5 7.5 0 1 0 15 0 a7.5 7.5 0 1 0 -15 0zM1507.28 2494.89 a7.5 7.5 0 1 0 15 0 a7.5 7.5 0 1 0 -15 0zM1507.28 2569.89 a7.5 7.5 0 1 0 15 0 a7.5 7.5 0 1 0 -15 0zM1442.32 2607.39 a7.5 7.5 0 1 0 15 0 a7.5 7.5 0 1 0 -15 0zM1377.37 2569.89 a7.5 7.5 0 1 0 15 0 a7.5 7.5 0 1 0 -15 0zM1377.37 2494.89 a7.5 7.5 0 1 0 15 0 a7.5 7.5 0 1 0 -15 0zM1442.32 2907.39 a7.5 7.5 0 1 0 15 0 a7.5 7.5 0 1 0 -15 0zM1507.28 2944.89 a7.5 7.5 0 1 0 15 0 a7.5 7.5 0 1 0 -15 0zM1507.28 3019.89 a7.5 7.5 0 1 0 15 0 a7.5 7.5 0 1 0 -15 0zM1442.32 3057.39 a7.5 7.5 0 1 0 15 0 a7.5 7.5 0 1 0 -15 0zM1377.37 3019.89 a7.5 7.5 0 1 0 15 0 a7.5 7.5 0 1 0 -15 0zM1377.37 2944.89 a7.5 7.5 0 1 0 15 0 a7.5 7.5 0 1 0 -15 0zM1507.28 4144.89 a7.5 7.5 0 1 0 15 0 a7.5 7.5 0 1 0 -15 0zM1572.23 4182.39 a7.5 7.5 0 1 0 15 0 a7.5 7.5 0 1 0 -15 0zM1572.23 4257.39 a7.5 7.5 0 1 0 15 0 a7.5 7.5 0 1 0 -15 0zM1507.28 4294.89 a7.5 7.5 0 1 0 15 0 a7.5 7.5 0 1 0 -15 0zM1442.32 4257.39 a7.5 7.5 0 1 0 15 0 a7.5 7.5 0 1 0 -15 0zM1442.32 4182.39 a7.5 7.5 0 1 0 15 0 a7.5 7.5 0 1 0 -15 0zM1637.18 544.89 a7.5 7.5 0 1 0 15 0 a7.5 7.5 0 1 0 -15 0zM1702.14 582.39 a7.5 7.5 0 1 0 15 0 a7.5 7.5 0 1 0 -15 0zM1702.14 657.39 a7.5 7.5 0 1 0 15 0 a7.5 7.5 0 1 0 -15 0zM1637.18 694.89 a7.5 7.5 0 1 0 15 0 a7.5 7.5 0 1 0 -15 0zM1572.23 657.39 a7.5 7.5 0 1 0 15 0 a7.5 7.5 0 1 0 -15 0zM1572.23 582.39 a7.5 7.5 0 1 0 15 0 a7.5 7.5 0 1 0 -15 0zM1572.23 2682.39 a7.5 7.5 0 1 0 15 0 a7.5 7.5 0 1 0 -15 0zM1637.18 2719.89 a7.5 7.5 0 1 0 15 0 a7.5 7.5 0 1 0 -15 0zM1637.18 2794.89 a7.5 7.5 0 1 0 15 0 a7.5 7.5 0 1 0 -15 0zM1572.23 2832.39 a7.5 7.5 0 1 0 15 0 a7.5 7.5 0 1 0 -15 0zM1507.28 2794.89 a7.5 7.5 0 1 0 15 0 a7.5 7.5 0 1 0 -15 0zM1507.28 2719.89 a7.5 7.5 0 1 0 15 0 a7.5 7.5 0 1 0 -15 0zM1637.18 4369.89 a7.5 7.5 0 1 0 15 0 a7.5 7.5 0 1 0 -15 0zM1702.14 4407.39 a7.5 7.5 0 1 0 15 0 a7.5 7.5 0 1 0 -15 0zM1702.14 4482.39 a7.5 7.5 0 1 0 15 0 a7.5 7.5 0 1 0 -15 0zM1637.18 4519.89 a7.5 7.5 0 1 0 15 0 a7.5 7.5 0 1 0 -15 0zM1572.23 4482.39 a7.5 7.5 0 1 0 15 0 a7.5 7.5 0 1 0 -15 0zM1572.23 4407.39 a7.5 7.5 0 1 0 15 0 a7.5 7.5 0 1 0 -15 0zM1767.09 1894.89 a7.5 7.5 0 1 0 15 0 a7.5 7.5 0 1 0 -15 0zM1832.04 1932.39 a7.5 7.5 0 1 0 15 0 a7.5 7.5 0 1 0 -15 0zM1832.04 2007.39 a7.5 7.5 0 1 0 15 0 a7.5 7.5 0 1 0 -15 0zM1767.09 2044.89 a7.5 7.5 0 1 0 15 0 a7.5 7.5 0 1 0 -15 0zM1702.14 2007.39 a7.5 7.5 0 1 0 15 0 a7.5 7.5 0 1 0 -15 0zM1702.14 1932.39 a7.5 7.5 0 1 0 15 0 a7.5 7.5 0 1 0 -15 0zM1897 1444.89 a7.5 7.5 0 1 0 15 0 a7.5 7.5 0 1 0 -15 0zM1961.95 1482.39 a7.5 7.5 0 1 0 15 0 a7.5 7.5 0 1 0 -15 0zM1961.95 1557.39 a7.5 7.5 0 1 0 15 0 a7.5 7.5 0 1 0 -15 0zM1897 1594.89 a7.5 7.5 0 1 0 15 0 a7.5 7.5 0 1 0 -15 0zM1832.04 1557.39 a7.5 7.5 0 1 0 15 0 a7.5 7.5 0 1 0 -15 0zM1832.04 1482.39 a7.5 7.5 0 1 0 15 0 a7.5 7.5 0 1 0 -15 0zM1897 2794.89 a7.5 7.5 0 1 0 15 0 a7.5 7.5 0 1 0 -15 0zM1961.95 2832.39 a7.5 7.5 0 1 0 15 0 a7.5 7.5 0 1 0 -15 0zM1961.95 2907.39 a7.5 7.5 0 1 0 15 0 a7.5 7.5 0 1 0 -15 0zM1897 2944.89 a7.5 7.5 0 1 0 15 0 a7.5 7.5 0 1 0 -15 0zM1832.04 2907.39 a7.5 7.5 0 1 0 15 0 a7.5 7.5 0 1 0 -15 0zM1832.04 2832.39 a7.5 7.5 0 1 0 15 0 a7.5 7.5 0 1 0 -15 0zM1832.04 3807.39 a7.5 7.5 0 1 0 15 0 a7.5 7.5 0 1 0 -15 0zM1897 3844.89 a7.5 7.5 0 1 0 15 0 a7.5 7.5 0 1 0 -15 0zM1897 3919.89 a7.5 7.5 0 1 0 15 0 a7.5 7.5 0 1 0 -15 0zM1832.04 3957.39 a7.5 7.5 0 1 0 15 0 a7.5 7.5 0 1 0 -15 0zM1767.09 3919.89 a7.5 7.5 0 1 0 15 0 a7.5 7.5 0 1 0 -15 0zM1767.09 3844.89 a7.5 7.5 0 1 0 15 0 a7.5 7.5 0 1 0 -15 0zM1832.04 4482.39 a7.5 7.5 0 1 0 15 0 a7.5 7.5 0 1 0 -15 0zM1897 4519.89 a7.5 7.5 0 1 0 15 0 a7.5 7.5 0 1 0 -15 0zM1897 4594.89 a7.5 7.5 0 1 0 15 0 a7.5 7.5 0 1 0 -15 0zM1832.04 4632.39 a7.5 7.5 0 1 0 15 0 a7.5 7.5 0 1 0 -15 0zM1767.09 4594.89 a7.5 7.5 0 1 0 15 0 a7.5 7.5 0 1 0 -15 0zM1767.09 4519.89 a7.5 7.5 0 1 0 15 0 a7.5 7.5 0 1 0 -15 0z" fill="url(#SvgjsLinearGradient1397)"></path></g><defs><mask id="SvgjsMask1396"><rect width="1920" height="4500" fill="#ffffff"></rect></mask><linearGradient x1="960" y1="4500" x2="960" y2="0" gradientUnits="userSpaceOnUse" id="SvgjsLinearGradient1397"><stop stop-color="rgba(234, 234, 234, 0.258)" offset="0"></stop><stop stop-color="rgba(206, 37, 37, 0.27)" offset="0.5"></stop><stop stop-color="rgba(255, 0, 255, 0.25)" offset="1"></stop></linearGradient></defs></svg>