<svg viewBox="0 -560 1920 1280" fill="none" xmlns="http://www.w3.org/2000/svg">
<path d="M13.8942 603.929C126.446 762.947 425.994 599.032 599.381 494.304C738.085 410.523 777.536 239.474 687.496 112.25C615.466 10.4757 467.115 -17.6887 356.149 49.3347C267.379 102.959 242.128 212.428 299.758 293.846C345.858 358.979 440.803 377.006 511.818 334.111C568.634 299.796 521.12 169.745 458.442 193.785" stroke="#2E3192" stroke-width="0.695969" stroke-miterlimit="10"/>
<path d="M18.7632 599.229C128.239 753.517 420.765 598.88 593.052 498.31C729.466 418.018 771.321 253.775 688.712 130.238C622.674 31.3743 485.463 5.40746 378.001 62.3089C296.518 105.45 256.106 204.414 299.345 285.112C311.307 307.443 329.432 324.572 351.976 337.373C394.885 361.73 463.061 358.121 507.113 331.511C561.224 298.825 517.494 174.65 454.866 196.413" stroke="#2C3B97" stroke-width="0.695969" stroke-miterlimit="10"/>
<path d="M23.6403 594.536C130.039 744.087 415.929 599.328 586.731 502.331C721.156 425.994 765.106 268.099 689.944 148.24C629.906 52.2797 503.779 29.3019 399.868 75.29C325.156 108.359 270.351 196.775 298.948 276.386C306.88 298.465 321.135 315.792 341.257 330.538C380.973 359.644 460.576 354.201 502.423 328.918C553.823 297.87 513.875 179.555 451.306 199.055" stroke="#2A459C" stroke-width="0.695969" stroke-miterlimit="10"/>
<path d="M28.5101 589.834C131.832 734.649 410.861 599.451 580.403 506.343C712.664 433.707 758.892 282.414 691.169 166.227C637.131 73.1693 521.772 54.1133 421.736 88.2624C352.932 111.751 284.634 189.668 298.551 267.651C302.477 289.644 312.856 307.221 330.538 323.701C367.29 357.953 458.083 350.273 497.733 326.324C546.431 296.905 510.265 184.465 447.747 201.689" stroke="#274EA2" stroke-width="0.695969" stroke-miterlimit="10"/>
<path d="M33.3873 585.134C133.633 725.218 405.785 599.568 574.083 510.349C704.155 441.394 752.678 296.724 692.401 184.214C644.363 94.0673 531.547 60.7267 443.603 101.229C377.574 102.108 298.618 183.146 298.154 258.91C298.017 281.008 304.53 298.871 319.818 316.852C353.654 356.654 455.597 346.339 493.043 323.716C539.038 295.934 506.655 189.362 444.187 204.309" stroke="#2558A7" stroke-width="0.695969" stroke-miterlimit="10"/>
<path d="M38.2565 580.44C135.434 715.787 400.668 599.671 567.754 514.368C695.622 449.087 746.463 311.039 693.618 202.215C651.58 114.972 547.639 80.3481 465.455 114.216C405.12 101.901 311.951 177.092 297.741 250.19C293.398 272.537 296.078 290.726 309.09 310.03C339.892 355.748 453.104 342.425 488.346 321.136C531.63 294.991 503.037 194.287 440.627 206.957" stroke="#2362AC" stroke-width="0.695969" stroke-miterlimit="10"/>
<path d="M43.134 575.738C137.235 706.348 395.543 599.752 561.434 518.381C687.081 456.752 740.257 325.354 694.85 220.202C658.812 135.868 563.755 99.9473 487.331 127.189C432.68 101.687 324.551 171.168 297.352 241.455C288.592 264.094 287.513 282.696 298.379 303.187C325.889 355.099 450.618 338.497 483.657 318.535C524.236 294.019 499.427 199.182 437.068 209.591" stroke="#216CB1" stroke-width="0.695969" stroke-miterlimit="10"/>
<path d="M48.011 571.036C139.035 696.917 390.393 599.806 555.113 522.385C678.514 464.389 733.809 339.736 696.082 238.188C665.85 156.823 579.871 119.546 509.198 140.154C460.233 101.466 336.49 165.075 296.954 232.713C283.572 255.602 278.801 274.743 287.659 296.343C311.555 354.644 448.132 334.561 478.966 315.933C516.843 293.054 495.816 204.085 433.507 212.217" stroke="#1F76B6" stroke-width="0.695969" stroke-miterlimit="10"/>
<path d="M52.8808 566.344C140.829 687.487 385.204 599.848 548.785 526.406C669.924 472.021 727.556 354.054 697.307 256.183C673.051 177.723 595.979 139.154 531.058 153.136C487.778 101.261 348.032 158.667 296.55 223.987C278.406 247.01 269.958 266.833 276.931 289.508C296.848 354.293 445.639 330.641 474.269 313.341C509.443 292.099 492.198 208.997 429.94 214.853" stroke="#1C7FBC" stroke-width="0.695969" stroke-miterlimit="10"/>
<path d="M57.757 561.643C142.629 678.056 380.004 599.854 542.464 530.419C661.324 479.616 721.316 368.357 698.531 274.177C680.251 198.614 612.079 158.769 552.924 166.109C515.33 101.048 359.417 151.901 296.152 215.253C273.163 238.274 261.011 258.912 266.211 282.665C281.802 353.947 443.145 326.707 469.578 310.74C502.041 291.128 488.587 213.894 426.379 217.48" stroke="#1A89C1" stroke-width="0.695969" stroke-miterlimit="10"/>
<path d="M62.6273 556.943C144.422 668.619 374.781 599.824 536.136 534.425C652.692 487.184 715.079 382.652 699.756 292.165C687.452 219.499 628.188 178.369 574.785 179.083C542.876 100.835 370.791 144.818 295.748 206.519C267.893 229.424 251.987 250.973 255.484 275.83C266.434 353.563 440.652 322.787 464.882 308.155C494.641 290.179 484.97 218.812 422.813 220.13" stroke="#1893C6" stroke-width="0.695969" stroke-miterlimit="10"/>
<path d="M67.5046 552.249C146.223 659.188 369.532 599.773 529.816 538.444C644.06 494.737 708.848 396.954 700.988 310.158C694.668 240.382 644.304 197.976 596.652 192.055C570.429 100.621 382.249 137.499 295.343 197.785C262.634 220.479 242.889 242.993 244.757 268.987C250.802 353.096 438.159 318.852 460.184 305.554C487.241 289.214 481.351 223.716 419.253 222.756" stroke="#169DCB" stroke-width="0.695969" stroke-miterlimit="10"/>
<path d="M72.3812 547.549C148.024 649.758 364.258 599.667 523.495 542.458C635.401 502.249 702.624 411.242 702.22 328.154C701.892 261.266 660.419 217.584 618.527 205.036C597.997 100.416 393.826 130.017 294.953 189.059C257.412 211.475 233.766 234.986 234.045 262.16C234.977 352.543 435.673 314.939 455.495 302.968C479.847 288.259 477.741 228.635 415.693 225.399" stroke="#14A7D0" stroke-width="0.695969" stroke-miterlimit="10"/>
<path d="M77.2506 542.847C149.816 640.319 358.966 599.523 517.166 546.462C626.726 509.722 696.408 425.52 703.437 346.14C709.107 282.134 676.512 237.19 640.379 218.009C625.535 100.202 405.493 122.413 294.54 180.324C252.204 202.418 224.594 226.928 223.309 255.316C218.959 351.872 433.172 311.004 450.789 300.367C472.431 287.294 474.115 233.531 412.117 228.026" stroke="#12B1D5" stroke-width="0.695969" stroke-miterlimit="10"/>
<path d="M82.1286 538.155C151.618 630.89 353.65 599.332 510.847 550.484C618.043 517.178 690.209 439.816 704.67 364.136C716.347 303.011 692.628 256.799 662.247 230.984C653.088 99.9907 417.283 114.735 294.144 171.592C247.05 193.34 215.413 218.831 212.59 248.483C202.835 351.101 430.679 307.085 446.1 297.775C465.039 286.339 470.497 238.444 408.558 230.669" stroke="#0FBADB" stroke-width="0.695969" stroke-miterlimit="10"/>
<path d="M86.9974 533.454C153.41 621.459 348.322 599.074 504.518 554.496C609.333 524.582 684.025 454.101 705.894 382.13C723.594 323.893 708.736 276.406 684.114 243.964C680.641 99.7838 429.165 107.008 293.746 162.864C241.919 184.245 206.215 210.702 201.878 241.646C186.636 350.228 428.201 303.156 441.418 295.18C457.653 285.374 466.894 243.354 405.006 233.303" stroke="#0DC4E0" stroke-width="0.695969" stroke-miterlimit="10"/>
<path d="M91.8746 528.76C155.211 612.029 342.976 598.76 498.197 558.51C600.63 531.95 677.849 468.394 707.126 400.124C730.857 344.774 724.852 296.013 705.981 256.937C708.194 99.5708 441.124 99.2417 293.349 154.13C236.81 175.127 197.015 202.538 191.158 234.803C170.37 349.258 425.715 299.229 436.728 292.58C450.252 284.411 463.284 248.258 401.445 235.93" stroke="#0BCEE5" stroke-width="0.695969" stroke-miterlimit="10"/>
<path d="M96.7518 524.059C157.012 602.59 337.627 598.365 491.877 562.522C591.925 539.274 671.689 482.7 708.35 418.111C738.12 365.663 733.368 316.953 727.841 269.91C707.942 100.363 453.138 91.4583 292.944 145.395C231.718 166.008 187.806 194.337 180.431 227.967C154.046 348.216 423.214 295.309 432.03 289.986C442.851 283.446 459.665 253.161 397.885 238.564" stroke="#09D8EA" stroke-width="0.695969" stroke-miterlimit="10"/>
<path d="M101.621 519.358C158.805 593.16 332.268 597.892 485.548 566.527C583.21 546.547 665.53 497.013 709.575 436.098C745.392 386.559 751.446 335.662 749.708 282.876C743.657 98.9168 465.222 83.6509 292.546 136.654C226.656 156.882 178.604 186.108 169.711 221.117C137.711 347.089 420.728 291.366 427.332 287.378C435.45 282.475 456.047 258.058 394.318 241.191" stroke="#07E2EF" stroke-width="0.695969" stroke-miterlimit="10"/>
<path d="M106.498 514.664C160.605 583.728 326.912 597.338 479.228 570.547C574.501 553.785 659.484 511.438 710.807 454.099C752.753 407.552 769.495 354.844 771.576 295.864C778.549 98.3225 477.344 75.8562 292.149 127.934C221.603 147.776 169.401 177.879 158.991 214.296C121.367 345.926 418.242 287.46 422.643 284.799C428.057 281.533 452.437 262.983 390.758 243.84" stroke="#04EBF5" stroke-width="0.695969" stroke-miterlimit="10"/>
<path d="M111.368 509.964C162.399 574.291 321.562 596.691 472.9 574.56C565.807 560.971 653.27 525.747 712.032 472.086C759.978 428.45 787.479 374.325 793.436 308.837C812.605 98.2468 489.499 68.0458 291.745 119.2C216.557 138.648 160.19 169.613 148.264 207.453C105.004 344.691 415.741 283.525 417.946 282.198C420.649 280.562 448.819 267.88 387.19 246.467" stroke="#02F5FA" stroke-width="0.695969" stroke-miterlimit="10"/>
<path d="M116.245 505.264C216.631 630.001 773.036 629.84 815.303 321.804C857.57 13.7689 186.441 57.8168 137.544 200.611C88.6472 343.406 413.256 279.599 413.256 279.599C413.256 279.599 445.208 272.784 383.63 249.096" stroke="#00FFFF" stroke-width="0.695969" stroke-miterlimit="10"/>
<path d="M2931.7 842.401C2933.05 702.419 2883.56 562.487 2794.49 454.493C2769.15 423.769 2739.43 394.718 2701.95 381.242C2593.67 342.308 2478.04 427.418 2386.99 475.743C2277.12 534.054 2168.49 595.165 2054.09 644.372C1989.87 671.999 1914.44 695.446 1852.31 663.381C1789.4 630.907 1765.46 555.293 1739.45 489.445C1709.15 412.716 1667.42 338.802 1606.16 283.549C1544.9 228.296 1462.08 193.416 1380.08 202.409C1315.86 209.454 1257.34 242.038 1203.9 278.349C1063.5 373.761 944.224 500.073 857 645.709" stroke="#2EA7E0" stroke-width="0.552088" stroke-miterlimit="10"/>
<path d="M2935.21 836.349C2936.41 712.632 2892.89 591.548 2815.72 487.7C2808.56 478.055 2801.18 468.57 2793.48 459.345C2768.18 429.04 2738.72 400.359 2701.77 386.778C2594.92 347.453 2481.06 428.113 2390.14 474.704C2309.53 516.011 2229.5 559.626 2146.62 599.106C2117.87 612.858 2088.86 626.103 2059.49 638.597C1995.78 665.693 1921.24 688.826 1859.58 658.257C1797.15 627.301 1772.43 554.613 1745.7 491.344C1714.55 417.623 1672.34 346.581 1611.2 293.459C1589.91 274.964 1566.09 258.843 1540.64 246.051C1493.03 222.101 1439.73 209.79 1386.77 215.388C1323.15 222.112 1265.06 253.377 1211.97 288.032C1104.47 358.141 1009.49 445.167 931.178 545.415C907.809 575.327 885.929 606.41 865.662 638.58" stroke="#2EA7E0" stroke-width="0.552088" stroke-miterlimit="10"/>
<path d="M2938.72 830.304C2939.88 710.711 2894.04 596.334 2814.68 492.117C2807.47 482.659 2800.14 473.296 2792.47 464.209C2767.2 434.33 2738 406.013 2701.58 392.321C2596.16 352.598 2484.08 428.814 2393.28 473.677C2313.52 513.085 2234.18 555.546 2151.35 594.192C2122.81 607.619 2094.02 620.582 2064.89 632.833C2001.69 659.405 1928.04 682.217 1866.85 653.144C1804.89 623.701 1779.39 553.939 1751.95 493.254C1719.96 422.542 1677.26 354.371 1616.24 303.385C1594.99 285.636 1571.28 270.161 1546.01 257.888C1498.73 234.899 1445.92 223.051 1393.46 228.384C1330.45 234.794 1272.79 264.733 1220.03 297.726C1113.18 364.457 1018.82 446.702 940.283 542.34C916.846 570.878 894.824 600.597 874.33 631.464" stroke="#2EA7E0" stroke-width="0.552088" stroke-miterlimit="10"/>
<path d="M2942.23 824.254C2943.34 708.784 2895.22 601.116 2813.64 496.528C2806.4 487.248 2799.11 478.011 2791.47 469.067C2766.24 439.608 2737.29 411.667 2701.4 397.865C2597.42 357.75 2487.13 429.521 2396.43 472.645C2317.53 510.159 2238.8 551.268 2156.1 589.279C2127.73 602.32 2099.19 615.062 2070.29 627.07C2007.61 653.112 1934.85 675.609 1874.13 648.032C1812.64 620.102 1786.37 553.272 1758.21 495.165C1725.38 427.462 1682.2 362.161 1621.29 313.307C1600.08 296.302 1576.49 281.473 1551.39 269.714C1504.45 247.685 1452.14 236.301 1400.17 241.375C1337.76 247.47 1280.53 276.085 1228.11 307.416C1121.89 370.774 1028.16 448.232 949.398 539.266C925.895 566.428 903.735 594.783 883.015 624.353" stroke="#2EA7E0" stroke-width="0.552088" stroke-miterlimit="10"/>
<path d="M2945.73 818.207C2946.81 706.862 2896.42 605.891 2812.59 500.944C2805.32 491.846 2798.07 482.731 2790.46 473.931C2765.26 444.896 2736.56 417.319 2701.21 403.407C2598.66 362.9 2490.18 430.238 2399.57 471.617C2321.54 507.249 2243.45 547.126 2160.82 584.365C2132.66 597.063 2104.35 609.54 2075.68 621.305C2013.51 646.823 1941.64 669.006 1881.39 642.919C1820.38 616.507 1793.33 552.603 1764.45 497.074C1730.77 432.38 1687.11 369.945 1626.32 323.227C1605.15 306.962 1581.68 292.785 1556.74 281.539C1510.14 260.477 1458.33 249.556 1406.85 254.359C1345.04 260.134 1288.24 287.43 1236.16 317.099C1130.58 377.078 1037.47 449.755 958.479 536.179C934.905 561.967 912.606 588.958 891.66 617.225" stroke="#2EA7E0" stroke-width="0.552088" stroke-miterlimit="10"/>
<path d="M2949.24 812.158C2950.28 704.937 2897.65 610.656 2811.55 505.357C2804.25 496.435 2797.03 487.452 2789.45 478.79C2764.29 450.175 2735.85 422.968 2701.02 408.951C2599.9 368.052 2493.25 430.963 2402.71 470.592C2325.57 504.357 2248.13 542.992 2165.56 579.458C2137.59 591.814 2109.51 604.026 2081.08 615.548C2019.42 640.535 1948.45 662.404 1888.66 637.814C1828.12 612.914 1800.3 551.942 1770.7 498.991C1736.18 437.301 1692.03 377.741 1631.36 333.16C1610.23 317.641 1586.88 304.109 1562.11 293.377C1515.84 273.275 1464.52 262.819 1413.55 267.362C1352.33 272.822 1295.97 298.798 1244.22 326.806C1139.29 383.411 1046.8 451.302 967.584 533.121C943.943 557.534 921.501 583.162 900.328 610.126" stroke="#2EA7E0" stroke-width="0.552088" stroke-miterlimit="10"/>
<path d="M2952.75 806.106C2953.75 703.009 2898.91 615.404 2810.51 509.762C2803.19 501.017 2796.01 492.161 2788.45 483.642C2763.33 455.453 2735.13 428.61 2700.84 414.482C2601.15 373.192 2496.34 431.68 2405.86 469.547C2329.61 501.458 2252.8 538.84 2170.3 574.527C2142.53 586.54 2114.67 598.488 2086.48 609.761C2025.33 634.224 1955.25 655.772 1895.93 632.679C1835.87 609.292 1807.27 551.251 1776.95 500.879C1741.59 442.197 1696.96 385.509 1636.41 343.059C1615.3 328.285 1592.08 315.399 1567.48 305.185C1521.54 286.044 1470.72 276.052 1420.24 280.33C1359.63 285.476 1303.68 310.126 1252.28 336.472C1147.99 389.699 1056.13 452.808 976.682 530.018C952.969 553.056 930.389 577.321 908.996 602.982" stroke="#2EA7E0" stroke-width="0.552088" stroke-miterlimit="10"/>
<path d="M2956.26 800.061C2957.21 701.088 2900.19 620.152 2809.46 514.179C2802.12 505.605 2794.96 496.882 2787.44 488.506C2762.35 460.736 2734.41 434.264 2700.64 420.031C2602.39 378.343 2499.43 432.431 2409 468.526C2333.67 498.593 2257.47 534.716 2175.03 569.625C2147.46 581.302 2119.83 592.973 2091.87 604.009C2031.24 627.942 1962.05 649.175 1903.2 627.578C1843.61 605.709 1814.23 550.589 1783.2 502.8C1747 447.127 1701.88 393.31 1641.45 352.996C1620.39 338.962 1597.28 326.728 1572.85 317.028C1527.25 298.848 1476.93 289.324 1426.94 293.338C1366.93 298.163 1311.41 321.494 1260.34 346.178C1156.69 396.032 1065.45 454.354 985.775 526.959C961.996 548.623 939.272 571.524 917.652 595.882" stroke="#2EA7E0" stroke-width="0.552088" stroke-miterlimit="10"/>
<path d="M2959.77 794.01C2960.68 699.161 2901.51 624.877 2808.42 518.589C2801.06 510.186 2793.94 501.601 2786.43 493.364C2761.38 466.019 2733.7 439.917 2700.46 425.573C2603.65 383.493 2502.55 433.181 2412.14 467.493C2337.74 495.733 2262.15 530.581 2179.77 564.705C2152.4 576.04 2125 587.446 2097.27 598.239C2037.16 621.648 1968.86 642.561 1910.47 622.465C1851.36 602.109 1821.19 549.92 1789.45 504.71C1752.4 452.046 1706.8 401.099 1646.49 362.917C1625.47 349.628 1602.48 338.04 1578.22 328.853C1532.95 311.639 1483.13 302.574 1433.63 306.328C1374.22 310.838 1319.14 332.845 1268.41 355.872C1165.39 402.347 1074.78 455.889 994.873 523.884C971.023 544.173 948.161 565.704 926.314 588.771" stroke="#2EA7E0" stroke-width="0.552088" stroke-miterlimit="10"/>
<path d="M2963.27 787.959C2964.15 697.234 2902.85 629.587 2807.38 523C2800 514.769 2792.9 506.316 2785.43 498.223C2760.41 471.297 2732.98 445.564 2700.28 431.111C2604.9 388.639 2505.69 433.943 2415.29 466.461C2341.83 492.89 2266.83 526.456 2184.51 559.792C2157.34 570.795 2130.16 581.925 2102.67 592.475C2043.07 615.354 1975.66 635.952 1917.74 617.352C1859.1 598.51 1828.16 549.252 1795.7 506.62C1757.81 456.965 1711.73 408.889 1651.53 372.843C1630.55 360.3 1607.67 349.358 1583.58 340.684C1538.65 324.431 1489.32 315.835 1440.33 319.318C1381.52 323.509 1326.86 344.196 1276.47 365.561C1174.1 408.663 1084.11 457.418 1003.98 520.809C980.061 539.723 957.055 559.891 934.988 581.654" stroke="#2EA7E0" stroke-width="0.552088" stroke-miterlimit="10"/>
<path d="M2966.78 781.914C2967.62 695.314 2904.22 634.291 2806.34 527.412C2798.95 519.346 2791.87 511.032 2784.42 503.076C2759.44 476.576 2732.26 451.208 2700.09 436.649C2606.14 393.785 2508.83 434.717 2418.43 465.424C2345.91 490.058 2271.51 522.328 2189.23 554.868C2162.27 565.534 2135.31 576.394 2108.06 586.701C2048.97 609.055 1982.45 629.333 1925 612.23C1866.84 594.9 1835.12 548.574 1801.94 508.52C1763.21 461.874 1716.64 416.669 1656.56 382.754C1635.62 370.95 1612.86 360.654 1588.94 352.5C1544.34 337.207 1495.51 329.075 1447.01 332.299C1388.79 336.174 1334.57 355.536 1284.52 375.24C1182.79 414.963 1093.42 458.931 1013.06 517.718C989.076 535.258 965.927 554.062 943.634 574.522" stroke="#2EA7E0" stroke-width="0.552088" stroke-miterlimit="10"/>
<path d="M2970.29 775.863C2971.09 693.386 2905.61 638.967 2805.29 531.823C2797.89 523.923 2790.83 515.752 2783.41 507.934C2758.47 481.853 2731.54 456.855 2699.9 442.186C2607.39 398.93 2511.99 435.511 2421.57 464.391C2350.02 487.247 2276.19 518.203 2193.98 549.954C2167.22 560.289 2140.48 570.872 2113.46 580.937C2054.89 602.761 1989.26 622.73 1932.28 607.117C1874.59 591.305 1842.1 547.9 1808.2 510.435C1768.62 466.792 1721.58 424.464 1661.62 392.68C1640.71 381.622 1618.08 371.971 1594.32 364.336C1550.06 350.004 1501.73 342.335 1453.71 345.294C1396.1 348.855 1342.31 366.892 1292.6 384.94C1191.5 421.289 1102.76 460.471 1022.17 514.647C998.119 530.813 974.832 548.253 952.318 567.411" stroke="#2EA7E0" stroke-width="0.552088" stroke-miterlimit="10"/>
<path d="M2973.8 769.818C2974.55 691.465 2907.03 643.627 2804.25 536.24C2796.85 528.506 2789.81 520.456 2782.4 512.799C2757.55 487.093 2730.83 462.514 2699.72 447.735C2608.64 404.081 2515.16 436.329 2424.72 463.37C2354.14 484.471 2280.88 514.102 2198.71 545.046C2172.16 555.05 2145.65 565.352 2118.86 575.174C2060.8 596.473 1996.06 616.122 1939.55 602.005C1882.33 587.706 1849.06 547.232 1814.45 512.346C1774.03 471.712 1726.5 432.255 1666.66 402.607C1645.79 392.294 1623.27 383.29 1599.69 376.168C1555.76 362.802 1507.92 355.597 1460.41 358.291C1403.4 361.532 1350.04 378.249 1300.66 394.635C1200.21 427.606 1112.09 462.007 1031.28 511.579C1007.16 526.369 983.726 542.446 960.986 560.306" stroke="#2EA7E0" stroke-width="0.552088" stroke-miterlimit="10"/>
<path d="M2977.31 763.767C2978.02 689.538 2908.48 648.259 2803.21 540.651C2795.8 533.077 2788.77 525.176 2781.4 517.657C2756.58 492.371 2730.11 468.162 2699.53 453.272C2609.88 409.226 2518.34 437.162 2427.86 462.332C2358.27 481.694 2285.56 509.983 2203.45 540.127C2177.1 549.799 2150.81 559.825 2124.26 569.404C2066.71 590.174 2002.87 609.508 1946.82 596.887C1890.08 584.1 1856.03 546.558 1820.7 514.25C1779.44 476.625 1731.43 440.039 1671.7 412.522C1650.86 402.949 1628.47 394.596 1605.05 387.988C1561.45 375.582 1514.12 368.841 1467.1 371.27C1410.69 374.196 1357.76 389.589 1308.72 404.313C1208.91 433.91 1121.41 463.524 1040.37 508.486C1016.17 521.902 992.604 536.615 969.637 553.172" stroke="#2EA7E0" stroke-width="0.552088" stroke-miterlimit="10"/>
</svg>
